<svg width="1440" height="1875" viewBox="0 0 1440 1875" fill="none" xmlns="http://www.w3.org/2000/svg">
<g clip-path="url(#clip0_1428_8048)">
<g filter="url(#filter0_f_1428_8048)">
<ellipse cx="108.5" cy="82.8881" rx="298.112" ry="295.5" transform="rotate(-90 108.5 82.8881)" fill="#1BB0B0"/>
</g>
<g filter="url(#filter1_f_1428_8048)">
<ellipse cx="188" cy="157.197" rx="328.135" ry="281" transform="rotate(-90 188 157.197)" fill="url(#paint0_linear_1428_8048)"/>
</g>
<g filter="url(#filter2_f_1428_8048)">
<ellipse cx="-33.5" cy="-19" rx="339" ry="329.5" transform="rotate(-90 -33.5 -19)" fill="#191B20"/>
</g>
<g filter="url(#filter3_f_1428_8048)">
<ellipse cx="1395.5" cy="281.888" rx="298.112" ry="295.5" transform="rotate(-90 1395.5 281.888)" fill="#1BB0B0"/>
</g>
<g filter="url(#filter4_f_1428_8048)">
<ellipse cx="1335" cy="206.197" rx="328.135" ry="281" transform="rotate(-90 1335 206.197)" fill="url(#paint1_linear_1428_8048)"/>
</g>
<g filter="url(#filter5_f_1428_8048)">
<ellipse cx="1363.5" cy="190.129" rx="339.129" ry="279.5" transform="rotate(-90 1363.5 190.129)" fill="#191B20"/>
</g>
<g opacity="0.2" filter="url(#filter6_f_1428_8048)">
<circle cx="700" cy="704" r="348" fill="url(#paint2_linear_1428_8048)"/>
</g>
<g opacity="0.35" filter="url(#filter7_f_1428_8048)">
<circle cx="700" cy="704" r="159" fill="url(#paint3_radial_1428_8048)"/>
</g>
<path d="M520.349 835.893C518.996 836.477 518.47 838.164 519.054 839.517C519.638 840.869 521.232 841.415 522.584 840.832C523.937 840.248 524.463 838.56 523.879 837.208C523.295 835.855 521.702 835.309 520.349 835.893Z" fill="#A4A3F4" fill-opacity="0.2"/>
<path d="M749.195 802.05C747.862 802.728 747.222 804.342 747.826 805.789C748.524 807.215 750.118 807.761 751.47 807.178C752.803 806.499 753.443 804.886 752.839 803.439C752.235 801.993 750.527 801.372 749.195 802.05Z" fill="#A4A3F4" fill-opacity="0.2"/>
<path d="M718.87 819.645C717.537 820.323 716.897 821.936 717.501 823.383C718.199 824.809 719.793 825.356 721.24 824.752C722.572 824.074 723.213 822.46 722.609 821.013C721.911 819.587 720.297 818.946 718.87 819.645Z" fill="#A4A3F4" fill-opacity="0.2"/>
<path d="M584.585 735.837C583.158 736.535 582.612 738.128 583.216 739.575C583.914 741.002 585.508 741.548 586.955 740.944C588.382 740.246 588.928 738.652 588.324 737.206C587.626 735.779 586.012 735.139 584.585 735.837Z" fill="#A4A3F4" fill-opacity="0.2"/>
<path d="M149.758 858.515C148.332 859.213 147.785 860.806 148.389 862.253C149.088 863.68 150.681 864.226 152.128 863.622C153.555 862.924 154.101 861.33 153.497 859.884C152.799 858.457 151.111 857.931 149.758 858.515Z" fill="#A4A3F4" fill-opacity="0.2"/>
<path d="M599.802 896.241C598.375 896.94 597.829 898.533 598.433 899.98C599.131 901.406 600.745 902.047 602.172 901.349C603.598 900.65 604.239 899.037 603.541 897.61C602.842 896.184 601.134 895.563 599.802 896.241Z" fill="#A4A3F4" fill-opacity="0.2"/>
<path d="M775.364 1067.35C773.938 1068.05 773.297 1069.66 773.995 1071.09C774.694 1072.51 776.307 1073.15 777.734 1072.45C779.161 1071.76 779.802 1070.14 779.103 1068.72C778.405 1067.29 776.697 1066.67 775.364 1067.35Z" fill="#A4A3F4" fill-opacity="0.2"/>
<path d="M449.458 1013.68C448.031 1014.38 447.391 1015.99 448.089 1017.42C448.787 1018.84 450.401 1019.48 451.828 1018.79C453.255 1018.09 453.895 1016.47 453.197 1015.05C452.499 1013.62 450.791 1013 449.458 1013.68Z" fill="#A4A3F4" fill-opacity="0.2"/>
<path d="M516.475 763.262C515.048 763.96 514.428 765.668 515.032 767.115C515.73 768.541 517.438 769.161 518.885 768.557C520.312 767.859 520.932 766.151 520.328 764.705C519.61 763.184 517.902 762.564 516.475 763.262Z" fill="#A4A3F4" fill-opacity="0.2"/>
<path d="M973.374 1045.01C971.947 1045.71 971.326 1047.41 971.93 1048.86C972.629 1050.29 974.337 1050.91 975.784 1050.3C977.21 1049.61 977.831 1047.9 977.227 1046.45C976.508 1044.93 974.8 1044.31 973.374 1045.01Z" fill="#A4A3F4" fill-opacity="0.2"/>
<path d="M960.538 826.985C959.111 827.683 958.49 829.391 959.094 830.837C959.793 832.264 961.521 832.978 962.948 832.28C964.374 831.582 964.995 829.874 964.391 828.428C963.767 826.887 961.964 826.286 960.538 826.985Z" fill="#A4A3F4" fill-opacity="0.2"/>
<path d="M814.595 914.726C813.168 915.424 812.548 917.132 813.152 918.578C813.85 920.005 815.578 920.719 817.005 920.021C818.432 919.323 819.052 917.615 818.448 916.169C817.844 914.722 816.022 914.028 814.595 914.726Z" fill="#A4A3F4" fill-opacity="0.2"/>
<path d="M387.048 872.104C385.622 872.803 384.907 874.53 385.625 876.051C386.324 877.478 388.052 878.192 389.573 877.474C391 876.776 391.714 875.048 390.996 873.527C390.183 872.027 388.475 871.406 387.048 872.104Z" fill="#A4A3F4" fill-opacity="0.2"/>
<path d="M1106.94 1130.05C1105.51 1130.75 1104.8 1132.48 1105.52 1134C1106.23 1135.52 1107.94 1136.14 1109.46 1135.42C1110.89 1134.72 1111.6 1132.99 1110.89 1131.47C1110.17 1129.95 1108.37 1129.35 1106.94 1130.05Z" fill="#A4A3F4" fill-opacity="0.2"/>
<path d="M159.321 973.943C157.894 974.641 157.179 976.369 157.898 977.89C158.616 979.411 160.324 980.031 161.845 979.313C163.272 978.615 163.987 976.887 163.268 975.366C162.57 973.939 160.842 973.225 159.321 973.943Z" fill="#A4A3F4" fill-opacity="0.2"/>
<path d="M865.954 948.184C864.433 948.902 863.812 950.61 864.53 952.13C865.249 953.651 866.957 954.271 868.478 953.553C869.999 952.835 870.619 951.127 869.901 949.606C869.183 948.086 867.474 947.465 865.954 948.184Z" fill="#A4A3F4" fill-opacity="0.2"/>
<path d="M652.661 692.565C651.14 693.283 650.54 695.085 651.238 696.512C651.957 698.032 653.665 698.653 655.186 697.934C656.707 697.216 657.307 695.414 656.609 693.988C655.911 692.561 654.202 691.941 652.661 692.565Z" fill="#A4A3F4" fill-opacity="0.2"/>
<path d="M974.384 921.413C972.863 922.131 972.169 923.954 972.887 925.474C973.605 926.995 975.428 927.689 976.949 926.971C978.47 926.253 979.164 924.431 978.446 922.91C977.613 921.315 975.905 920.695 974.384 921.413Z" fill="#A4A3F4" fill-opacity="0.2"/>
<path d="M801.274 705.967C799.753 706.685 799.058 708.507 799.776 710.028C800.495 711.549 802.317 712.243 803.838 711.525C805.359 710.806 806.054 708.984 805.335 707.464C804.617 705.943 802.795 705.249 801.274 705.967Z" fill="#A4A3F4" fill-opacity="0.2"/>
<path d="M1433.08 944.791C1431.56 945.509 1430.87 947.331 1431.59 948.852C1432.3 950.373 1434.13 951.067 1435.65 950.349C1437.17 949.631 1437.86 947.809 1437.14 946.288C1436.43 944.767 1434.6 944.073 1433.08 944.791Z" fill="#A4A3F4" fill-opacity="0.2"/>
<path d="M864.388 754.832C862.867 755.55 862.172 757.372 862.911 758.987C863.629 760.508 865.451 761.202 867.066 760.464C868.587 759.746 869.282 757.923 868.543 756.309C867.805 754.694 866.003 754.093 864.388 754.832Z" fill="#A4A3F4" fill-opacity="0.2"/>
<path d="M768.793 671.437C767.272 672.156 766.577 673.978 767.316 675.593C768.034 677.113 769.856 677.808 771.472 677.069C772.992 676.351 773.687 674.529 772.949 672.914C772.21 671.299 770.294 670.625 768.793 671.437Z" fill="#A4A3F4" fill-opacity="0.2"/>
<path d="M564.956 923.562C563.341 924.301 562.76 926.197 563.479 927.717C564.217 929.332 566.04 930.027 567.635 929.194C569.25 928.456 569.83 926.56 569.112 925.039C568.393 923.518 566.571 922.824 564.956 923.562Z" fill="#A4A3F4" fill-opacity="0.2"/>
<path d="M129.812 808.416C128.197 809.155 127.523 811.071 128.241 812.592C128.98 814.206 130.896 814.881 132.417 814.163C134.032 813.424 134.707 811.508 133.988 809.987C133.25 808.372 131.333 807.698 129.812 808.416Z" fill="#A4A3F4" fill-opacity="0.2"/>
<path d="M355.933 787.659C354.318 788.397 353.643 790.314 354.382 791.929C355.12 793.543 357.037 794.218 358.652 793.479C360.267 792.741 360.942 790.825 360.203 789.21C359.465 787.595 357.548 786.921 355.933 787.659Z" fill="#A4A3F4" fill-opacity="0.2"/>
<path d="M862.839 791.89C861.224 792.628 860.55 794.544 861.288 796.159C862.027 797.774 863.943 798.448 865.558 797.71C867.174 796.972 867.848 795.055 867.11 793.44C866.371 791.826 864.455 791.151 862.839 791.89Z" fill="#A4A3F4" fill-opacity="0.2"/>
<path d="M1330.74 942.393C1329.12 943.132 1328.45 945.048 1329.19 946.663C1329.93 948.278 1331.84 948.952 1333.46 948.214C1335.07 947.475 1335.75 945.559 1335.01 943.944C1334.27 942.329 1332.35 941.655 1330.74 942.393Z" fill="#A4A3F4" fill-opacity="0.2"/>
<path d="M1391.93 863.174C1390.32 863.912 1389.57 865.942 1390.4 867.537C1391.14 869.152 1393.08 869.921 1394.79 869.162C1396.4 868.424 1397.15 866.393 1396.32 864.799C1395.56 863.09 1393.64 862.415 1391.93 863.174Z" fill="#A4A3F4" fill-opacity="0.2"/>
<path d="M1135.98 698.385C1134.36 699.123 1133.61 701.154 1134.35 702.769C1135.09 704.384 1137.12 705.132 1138.74 704.394C1140.35 703.655 1141.1 701.625 1140.36 700.01C1139.6 698.301 1137.59 697.647 1135.98 698.385Z" fill="#A4A3F4" fill-opacity="0.2"/>
<path d="M195.944 927.732C194.235 928.491 193.486 930.521 194.265 932.325C195.023 934.034 197.054 934.782 198.763 934.024C200.473 933.265 201.221 931.235 200.443 929.431C199.684 927.722 197.653 926.974 195.944 927.732Z" fill="#A4A3F4" fill-opacity="0.2"/>
<path d="M326.666 1025.3C324.882 1026.17 324.154 1028.29 324.932 1030.1C325.805 1031.88 327.856 1032.72 329.64 1031.85C331.423 1030.98 332.152 1028.85 331.373 1027.05C330.5 1025.27 328.469 1024.52 326.666 1025.3Z" fill="#A4A3F4" fill-opacity="0.2"/>
<path d="M956.245 622.696C954.462 623.568 953.639 625.713 954.438 627.611C955.331 629.488 957.456 630.216 959.354 629.418C961.137 628.545 961.96 626.4 961.161 624.503C960.268 622.625 958.029 621.823 956.245 622.696Z" fill="#A4A3F4" fill-opacity="0.2"/>
<path d="M130.857 1027.48C128.979 1028.37 128.177 1030.61 129.05 1032.39C129.943 1034.27 132.088 1035.09 133.966 1034.2C135.843 1033.31 136.646 1031.07 135.773 1029.28C134.88 1027.41 132.641 1026.6 130.857 1027.48Z" fill="#A4A3F4" fill-opacity="0.2"/>
<path d="M1256.41 724.195C1254.53 725.088 1253.73 727.327 1254.6 729.11C1255.5 730.987 1257.64 731.81 1259.52 730.917C1261.4 730.024 1262.2 727.785 1261.33 726.002C1260.53 724.105 1258.29 723.302 1256.41 724.195Z" fill="#A4A3F4" fill-opacity="0.2"/>
<path d="M1019.79 833.743C1017.82 834.655 1017.04 836.989 1017.93 838.866C1018.84 840.837 1021.18 841.62 1023.05 840.727C1025.02 839.814 1025.81 837.481 1024.91 835.604C1024 833.632 1021.76 832.83 1019.79 833.743Z" fill="#A4A3F4" fill-opacity="0.2"/>
<path d="M257.001 757.852C255.029 758.765 254.247 761.098 255.16 763.07C256.073 765.041 258.406 765.823 260.284 764.931C262.256 764.018 263.038 761.684 262.125 759.713C261.212 757.741 258.879 756.959 257.001 757.852Z" fill="#A4A3F4" fill-opacity="0.2"/>
<path d="M1005.9 740.01C1003.93 740.923 1003.05 743.277 1003.96 745.248C1004.88 747.22 1007.23 748.096 1009.2 747.183C1011.17 746.27 1012.05 743.917 1011.14 741.946C1010.22 739.974 1007.87 739.098 1005.9 740.01Z" fill="#A4A3F4" fill-opacity="0.2"/>
<path d="M1303.98 1040.86C1302.01 1041.77 1301.13 1044.12 1302.07 1046.19C1302.98 1048.16 1305.33 1049.04 1307.3 1048.13C1309.28 1047.21 1310.15 1044.86 1309.22 1042.79C1308.31 1040.82 1305.95 1039.95 1303.98 1040.86Z" fill="#A4A3F4" fill-opacity="0.2"/>
<path d="M1369.95 813.705C1367.89 814.638 1366.94 817.105 1367.98 819.245C1368.92 821.311 1371.39 822.261 1373.43 821.234C1375.5 820.301 1376.45 817.833 1375.4 815.694C1374.49 813.722 1372.02 812.772 1369.95 813.705Z" fill="#A4A3F4" fill-opacity="0.2"/>
<path d="M1261.83 723.73C1259.69 724.777 1258.76 727.339 1259.71 729.499C1260.76 731.638 1263.34 732.663 1265.48 731.616C1267.62 730.569 1268.55 728.007 1267.6 725.847C1266.55 723.707 1263.99 722.777 1261.83 723.73Z" fill="#A4A3F4" fill-opacity="0.2"/>
<path d="M701.666 765.317C699.431 766.384 698.501 768.946 699.568 771.18C700.636 773.414 703.198 774.345 705.432 773.277C707.667 772.21 708.597 769.648 707.53 767.414C706.482 765.274 703.806 764.27 701.666 765.317Z" fill="#A4A3F4" fill-opacity="0.2"/>
<path opacity="0.01" d="M865.765 757.59L770.077 674.216L802.556 708.743L865.765 757.59Z" fill="#A4A3F4" fill-opacity="0.2"/>
<path opacity="0.1408" d="M177.742 712.723L150.886 861.03L86.4293 764.791L177.742 712.723Z" fill="#A4A3F4" fill-opacity="0.2"/>
<path opacity="0.028422" d="M750.32 804.566L600.928 898.759L450.587 1016.19L750.32 804.566Z" fill="#A4A3F4" fill-opacity="0.2"/>
<path opacity="0.064896" d="M815.837 917.318L1108.2 1132.73L974.615 1047.6L815.837 917.318Z" fill="#A4A3F4" fill-opacity="0.2"/>
<path opacity="0.040397" d="M653.941 695.344L517.621 765.873L388.309 874.787L653.941 695.344Z" fill="#A4A3F4" fill-opacity="0.2"/>
<path opacity="0.3" d="M865.765 757.59L770.077 674.216L802.556 708.743L865.765 757.59Z" fill="#A4A3F4" fill-opacity="0.2"/>
<path opacity="0.3" d="M865.765 757.59L770.077 674.216L802.556 708.743L865.765 757.59Z" fill="#A4A3F4" fill-opacity="0.2"/>
<path opacity="0.3" d="M865.765 757.59L770.077 674.216L802.556 708.743L865.765 757.59Z" fill="#A4A3F4" fill-opacity="0.2"/>
<path opacity="0.1576" d="M864.258 794.836L865.765 757.59L770.077 674.216L864.258 794.836Z" fill="#A4A3F4" fill-opacity="0.2"/>
<path opacity="0.1573" d="M258.632 761.347L125.491 725.84L191.477 680.158L258.632 761.347Z" fill="#A4A3F4" fill-opacity="0.2"/>
<path opacity="0.072094" d="M1056.12 569.688L1021.42 837.236L1007.57 743.694L1056.12 569.688Z" fill="#A4A3F4" fill-opacity="0.2"/>
<g opacity="0.056139">
<path d="M150.95 861.313C151.118 861.179 151.098 861.085 151.078 860.99L86.6011 764.655C86.581 764.561 86.3726 764.507 86.2985 764.621C86.2043 764.641 86.1503 764.85 86.2646 764.924L150.741 861.259C150.836 861.239 150.856 861.333 150.95 861.313Z" fill="#A4A3F4" fill-opacity="0.2"/>
</g>
<path d="M720.135 822.327L750.455 804.733C750.55 804.713 750.604 804.505 750.489 804.431C750.469 804.336 750.261 804.282 750.187 804.397L719.96 821.97C719.866 821.99 719.812 822.199 719.926 822.273C719.947 822.367 720.041 822.347 720.135 822.327Z" fill="#A4A3F4" fill-opacity="0.2"/>
<g opacity="0.7928">
<path d="M150.949 861.309C151.043 861.289 151.137 861.269 151.117 861.175L177.873 712.888C177.853 712.794 177.833 712.7 177.718 712.626C177.624 712.646 177.53 712.666 177.456 712.78L150.7 861.067C150.72 861.161 150.74 861.255 150.949 861.309Z" fill="#A4A3F4" fill-opacity="0.2"/>
</g>
<g opacity="0.4859">
<path d="M600.97 898.95L750.432 804.643C750.526 804.623 750.58 804.415 750.466 804.341C750.446 804.247 750.237 804.193 750.163 804.307L600.795 898.593C600.701 898.613 600.647 898.822 600.761 898.896C600.875 898.97 600.875 898.97 600.97 898.95Z" fill="#A4A3F4" fill-opacity="0.2"/>
</g>
<g opacity="0.042287">
<path d="M776.554 1070.15C776.648 1070.13 776.722 1070.01 776.702 1069.92L720.188 822.119C720.168 822.025 720.054 821.951 719.96 821.971C719.866 821.991 719.791 822.105 719.812 822.199L776.326 1070C776.346 1070.09 776.46 1070.17 776.554 1070.15Z" fill="#A4A3F4" fill-opacity="0.2"/>
</g>
<g opacity="0.6679">
<path d="M600.972 898.947C601.066 898.927 601.14 898.812 601.12 898.718L585.9 738.313C585.879 738.219 585.765 738.145 585.671 738.165C585.577 738.185 585.503 738.299 585.523 738.394L600.743 898.799C600.763 898.893 600.878 898.967 600.972 898.947Z" fill="#A4A3F4" fill-opacity="0.2"/>
</g>
<g opacity="0.5698">
<path d="M150.947 861.317L151.041 861.297C151.115 861.183 151.095 861.089 150.98 861.015L2.37178 732.697C2.25749 732.623 2.16336 732.643 2.08927 732.757C2.01517 732.872 2.03526 732.966 2.14955 733.04L150.758 861.357C150.832 861.243 150.947 861.317 150.947 861.317Z" fill="#A4A3F4" fill-opacity="0.2"/>
</g>
<g opacity="0.6271">
<path d="M450.629 1016.38L601.06 898.928C601.135 898.814 601.114 898.72 601.094 898.625C600.98 898.551 600.886 898.571 600.792 898.592L450.455 1016.03C450.381 1016.14 450.401 1016.24 450.421 1016.33C450.535 1016.4 450.535 1016.4 450.629 1016.38Z" fill="#A4A3F4" fill-opacity="0.2"/>
</g>
<g opacity="0.048349">
<path d="M600.968 898.948C601.136 898.813 601.116 898.719 601.096 898.625L517.79 765.737C517.77 765.643 517.562 765.589 517.488 765.703C517.393 765.723 517.339 765.931 517.454 766.006L600.759 898.894C600.874 898.968 600.874 898.968 600.968 898.948Z" fill="#A4A3F4" fill-opacity="0.2"/>
</g>
<g opacity="0.4709">
<path d="M974.66 1047.78C974.754 1047.76 974.828 1047.65 974.808 1047.56L961.966 829.532C961.946 829.438 961.832 829.364 961.737 829.384C961.643 829.404 961.569 829.518 961.589 829.612L974.431 1047.64C974.451 1047.73 974.471 1047.82 974.66 1047.78Z" fill="#A4A3F4" fill-opacity="0.2"/>
</g>
<g opacity="0.5091">
<path d="M974.654 1047.79L974.748 1047.77C974.822 1047.65 974.802 1047.56 974.688 1047.49L815.91 917.201C815.795 917.127 815.701 917.147 815.627 917.262C815.553 917.376 815.573 917.47 815.688 917.544L974.466 1047.83C974.56 1047.81 974.56 1047.81 974.654 1047.79Z" fill="#A4A3F4" fill-opacity="0.2"/>
</g>
<g opacity="0.8169">
<path d="M815.88 917.507L961.913 829.741C962.007 829.721 962.061 829.512 961.946 829.438C961.926 829.344 961.718 829.29 961.644 829.404L815.705 917.15C815.611 917.17 815.557 917.378 815.671 917.452C815.691 917.547 815.786 917.527 815.88 917.507Z" fill="#A4A3F4" fill-opacity="0.2"/>
</g>
<g opacity="0.5677">
<path d="M388.353 874.979L517.869 766.12C517.943 766.005 517.923 765.911 517.903 765.817C517.789 765.743 517.694 765.763 517.6 765.783L388.178 874.622C388.104 874.737 388.124 874.831 388.145 874.925C388.145 874.925 388.259 874.999 388.353 874.979Z" fill="#A4A3F4" fill-opacity="0.2"/>
</g>
<g opacity="0.6315">
<path d="M1108.25 1132.93C1108.34 1132.91 1108.34 1132.91 1108.32 1132.81C1108.39 1132.7 1108.37 1132.6 1108.26 1132.53L974.694 1047.48C974.58 1047.41 974.485 1047.43 974.411 1047.54C974.337 1047.66 974.357 1047.75 974.472 1047.82L1108.04 1132.87C1108.13 1132.85 1108.15 1132.95 1108.25 1132.93Z" fill="#A4A3F4" fill-opacity="0.2"/>
</g>
<g opacity="0.2431">
<path d="M974.656 1047.79L974.75 1047.77C974.824 1047.65 974.804 1047.56 974.69 1047.49L867.289 950.752C867.174 950.678 867.08 950.698 867.006 950.812C866.932 950.927 866.952 951.021 867.066 951.095L974.468 1047.83C974.562 1047.81 974.562 1047.81 974.656 1047.79Z" fill="#A4A3F4" fill-opacity="0.2"/>
</g>
<g opacity="0.12">
<path d="M517.685 766.158C517.78 766.138 517.78 766.138 517.685 766.158L653.983 695.534C654.077 695.514 654.151 695.4 654.017 695.231C653.997 695.137 653.882 695.063 653.714 695.197L517.417 765.821C517.323 765.841 517.248 765.955 517.383 766.124C517.571 766.084 517.685 766.158 517.685 766.158Z" fill="#A4A3F4" fill-opacity="0.2"/>
</g>
<g opacity="0.9466">
<path d="M867.257 951.057C867.351 951.037 867.351 951.037 867.331 950.943C867.405 950.828 867.385 950.734 867.27 950.66L815.894 917.109C815.779 917.035 815.685 917.055 815.611 917.169C815.537 917.284 815.557 917.378 815.671 917.452L867.048 951.003C867.162 951.077 867.162 951.077 867.257 951.057Z" fill="#A4A3F4" fill-opacity="0.2"/>
</g>
<g opacity="0.297">
<path d="M160.625 976.817L388.329 874.882C388.424 874.862 388.498 874.747 388.478 874.653C388.458 874.559 388.343 874.485 388.249 874.505L160.544 976.441C160.45 976.461 160.376 976.575 160.396 976.669C160.436 976.858 160.531 976.838 160.625 976.817Z" fill="#A4A3F4" fill-opacity="0.2"/>
</g>
<g opacity="0.7588">
<path d="M867.255 951.054L975.705 924.378C975.799 924.358 975.873 924.243 975.853 924.149C975.833 924.055 975.718 923.981 975.624 924.001L867.174 950.678C867.08 950.698 867.006 950.812 867.026 950.906C867.046 951 867.161 951.075 867.255 951.054Z" fill="#A4A3F4" fill-opacity="0.2"/>
</g>
<g opacity="0.464">
<path d="M802.596 708.937C802.691 708.917 802.765 708.803 802.765 708.803C802.745 708.708 802.725 708.614 802.61 708.54L653.997 695.135C653.903 695.155 653.808 695.175 653.734 695.289C653.754 695.383 653.774 695.477 653.889 695.551L802.596 708.937Z" fill="#A4A3F4" fill-opacity="0.2"/>
</g>
<g opacity="0.1491">
<path d="M975.684 924.292C975.852 924.158 975.832 924.064 975.812 923.97L802.723 708.61C802.609 708.536 802.515 708.556 802.42 708.576C802.346 708.69 802.366 708.784 802.387 708.879L975.495 924.332C975.495 924.332 975.59 924.312 975.684 924.292Z" fill="#A4A3F4" fill-opacity="0.2"/>
</g>
<g opacity="0.2005">
<path d="M975.686 924.288C975.854 924.154 975.834 924.059 975.814 923.965L865.934 757.456C865.914 757.362 865.705 757.308 865.631 757.422C865.537 757.442 865.483 757.65 865.597 757.725L975.477 924.234C975.497 924.328 975.591 924.308 975.686 924.288Z" fill="#A4A3F4" fill-opacity="0.2"/>
</g>
<g opacity="0.8633">
<path d="M802.599 708.935L802.693 708.915C802.767 708.8 802.747 708.706 802.727 708.612L770.247 674.084C770.133 674.01 770.039 674.03 769.944 674.05C769.87 674.164 769.89 674.258 769.911 674.353L802.39 708.881C802.505 708.955 802.505 708.955 802.599 708.935Z" fill="#A4A3F4" fill-opacity="0.2"/>
</g>
<path d="M865.807 757.785L865.901 757.765C865.976 757.651 865.955 757.557 865.841 757.483L770.247 674.084C770.133 674.01 770.038 674.03 769.964 674.144C769.89 674.259 769.91 674.353 770.025 674.427L865.619 757.825C865.619 757.825 865.713 757.805 865.807 757.785Z" fill="#A4A3F4" fill-opacity="0.2"/>
<g opacity="0.2279">
<path d="M864.3 795.027C864.395 795.007 864.469 794.892 864.449 794.798L865.955 757.552C865.935 757.458 865.915 757.364 865.8 757.29C865.706 757.31 865.612 757.33 865.558 757.538L864.052 794.784C864.072 794.879 864.092 794.973 864.3 795.027Z" fill="#A4A3F4" fill-opacity="0.2"/>
</g>
<g opacity="0.1936">
<path d="M864.298 795.026C864.466 794.891 864.446 794.797 864.426 794.703L770.245 674.079C770.225 673.985 770.016 673.931 769.942 674.045C769.848 674.065 769.888 674.253 769.908 674.347L864.089 794.972C864.089 794.972 864.204 795.046 864.298 795.026Z" fill="#A4A3F4" fill-opacity="0.2"/>
</g>
<g opacity="0.1071">
<path d="M566.393 926.611C566.487 926.591 566.487 926.591 566.467 926.497C566.541 926.383 566.521 926.288 566.406 926.214L357.403 790.393C357.289 790.319 357.195 790.339 357.12 790.453C357.046 790.567 357.066 790.662 357.181 790.736L566.184 926.557C566.298 926.631 566.298 926.631 566.393 926.611Z" fill="#A4A3F4" fill-opacity="0.2"/>
</g>
<g opacity="0.4264">
<path d="M357.39 790.798C357.485 790.778 357.559 790.663 357.539 790.569C357.518 790.475 357.404 790.401 357.31 790.421L131.076 811.098C130.982 811.118 130.908 811.232 130.928 811.327C130.948 811.421 131.062 811.495 131.156 811.475L357.39 790.798Z" fill="#A4A3F4" fill-opacity="0.2"/>
</g>
<path d="M1332.2 945.531L1332.29 945.511L1393.5 866.384C1393.58 866.27 1393.56 866.175 1393.44 866.101C1393.33 866.027 1393.24 866.047 1393.16 866.162L1331.95 945.289C1331.88 945.403 1331.9 945.497 1332.01 945.571C1332.01 945.571 1332.11 945.551 1332.2 945.531Z" fill="#A4A3F4" fill-opacity="0.2"/>
<g opacity="0.0272">
<path d="M328.205 1028.81C328.299 1028.79 328.373 1028.68 328.353 1028.58C328.333 1028.49 328.219 1028.41 328.125 1028.43L132.334 1030.7C132.239 1030.72 132.165 1030.84 132.186 1030.93C132.206 1031.03 132.32 1031.1 132.414 1031.08L328.205 1028.81Z" fill="#A4A3F4" fill-opacity="0.2"/>
</g>
<g opacity="0.2115">
<path d="M1258.06 727.788C1258.16 727.768 1258.16 727.768 1258.23 727.653C1258.3 727.539 1258.19 727.465 1258.08 727.391L957.911 625.878C957.797 625.804 957.722 625.918 957.648 626.032C957.574 626.146 957.689 626.221 957.803 626.295L1257.97 727.808C1257.97 727.808 1257.97 727.808 1258.06 727.788Z" fill="#A4A3F4" fill-opacity="0.2"/>
</g>
<g opacity="0.087997">
<path d="M132.4 1030.99C132.495 1030.97 132.569 1030.85 132.569 1030.85L191.658 680.115C191.638 680.02 191.618 679.926 191.503 679.852C191.409 679.872 191.315 679.892 191.241 680.007L132.152 1030.74C132.192 1030.93 132.212 1031.03 132.4 1030.99Z" fill="#A4A3F4" fill-opacity="0.2"/>
</g>
<g opacity="0.090279">
<path d="M258.675 761.535C258.843 761.4 258.823 761.306 258.803 761.212L191.742 680C191.628 679.926 191.534 679.946 191.439 679.966C191.365 680.081 191.386 680.175 191.406 680.269L258.466 761.481C258.486 761.575 258.58 761.555 258.675 761.535Z" fill="#A4A3F4" fill-opacity="0.2"/>
</g>
<g opacity="0.9688">
<path d="M1021.46 837.424C1021.56 837.404 1021.63 837.29 1021.61 837.196L1007.74 743.559C1007.72 743.465 1007.6 743.391 1007.51 743.411C1007.41 743.431 1007.34 743.546 1007.36 743.64L1021.23 837.276C1021.25 837.37 1021.37 837.444 1021.46 837.424Z" fill="#A4A3F4" fill-opacity="0.2"/>
</g>
<g opacity="0.014495">
<path d="M1305.7 1044.73C1305.79 1044.71 1305.79 1044.71 1305.77 1044.62C1305.84 1044.5 1305.82 1044.41 1305.71 1044.33L1021.5 837.111C1021.38 837.037 1021.29 837.057 1021.21 837.171C1021.14 837.285 1021.16 837.38 1021.27 837.454L1305.49 1044.68C1305.58 1044.66 1305.6 1044.75 1305.7 1044.73Z" fill="#A4A3F4" fill-opacity="0.2"/>
</g>
<g opacity="0.3259">
<path d="M258.675 761.533C258.769 761.512 258.863 761.492 258.843 761.398L291.576 616.661C291.556 616.567 291.536 616.473 291.421 616.399C291.327 616.419 291.233 616.439 291.159 616.553L258.426 761.29C258.352 761.404 258.466 761.479 258.675 761.533C258.58 761.553 258.58 761.553 258.675 761.533Z" fill="#A4A3F4" fill-opacity="0.2"/>
</g>
<g opacity="0.3835">
<path d="M1007.61 743.884C1007.71 743.864 1007.71 743.864 1007.78 743.75L1056.35 569.838C1056.42 569.723 1056.31 569.649 1056.19 569.575C1056.08 569.501 1056 569.615 1055.93 569.73L1007.36 743.642C1007.38 743.736 1007.4 743.83 1007.61 743.884Z" fill="#A4A3F4" fill-opacity="0.2"/>
</g>
<g opacity="0.01">
<path d="M1305.7 1044.73C1305.79 1044.71 1305.79 1044.71 1305.87 1044.59L1371.87 817.631C1371.94 817.516 1371.83 817.442 1371.71 817.368C1371.6 817.294 1371.53 817.408 1371.45 817.523L1305.45 1044.49C1305.38 1044.6 1305.49 1044.67 1305.7 1044.73Z" fill="#A4A3F4" fill-opacity="0.2"/>
</g>
<g opacity="0.2" filter="url(#filter8_f_1428_8048)">
<circle cx="720" cy="1341" r="421" fill="url(#paint4_linear_1428_8048)"/>
</g>
<path d="M919.651 1527.89C921.004 1528.48 921.53 1530.16 920.946 1531.52C920.362 1532.87 918.768 1533.42 917.416 1532.83C916.063 1532.25 915.537 1530.56 916.121 1529.21C916.705 1527.86 918.298 1527.31 919.651 1527.89Z" fill="#A4A3F4" fill-opacity="0.2"/>
<path d="M690.805 1494.05C692.138 1494.73 692.778 1496.34 692.174 1497.79C691.476 1499.22 689.882 1499.76 688.53 1499.18C687.197 1498.5 686.557 1496.89 687.161 1495.44C687.765 1493.99 689.473 1493.37 690.805 1494.05Z" fill="#A4A3F4" fill-opacity="0.2"/>
<path d="M721.13 1511.64C722.463 1512.32 723.103 1513.94 722.499 1515.38C721.801 1516.81 720.207 1517.36 718.76 1516.75C717.428 1516.07 716.787 1514.46 717.391 1513.01C718.089 1511.59 719.703 1510.95 721.13 1511.64Z" fill="#A4A3F4" fill-opacity="0.2"/>
<path d="M855.415 1427.84C856.842 1428.53 857.388 1430.13 856.784 1431.58C856.086 1433 854.492 1433.55 853.045 1432.94C851.618 1432.25 851.072 1430.65 851.676 1429.21C852.374 1427.78 853.988 1427.14 855.415 1427.84Z" fill="#A4A3F4" fill-opacity="0.2"/>
<path d="M1290.24 1550.51C1291.67 1551.21 1292.21 1552.81 1291.61 1554.25C1290.91 1555.68 1289.32 1556.23 1287.87 1555.62C1286.44 1554.92 1285.9 1553.33 1286.5 1551.88C1287.2 1550.46 1288.89 1549.93 1290.24 1550.51Z" fill="#A4A3F4" fill-opacity="0.2"/>
<path d="M840.198 1588.24C841.625 1588.94 842.171 1590.53 841.567 1591.98C840.869 1593.41 839.255 1594.05 837.828 1593.35C836.402 1592.65 835.761 1591.04 836.459 1589.61C837.158 1588.18 838.866 1587.56 840.198 1588.24Z" fill="#A4A3F4" fill-opacity="0.2"/>
<path d="M664.636 1759.35C666.062 1760.05 666.703 1761.66 666.005 1763.09C665.306 1764.52 663.693 1765.16 662.266 1764.46C660.839 1763.76 660.198 1762.15 660.897 1760.72C661.595 1759.29 663.303 1758.67 664.636 1759.35Z" fill="#A4A3F4" fill-opacity="0.2"/>
<path d="M990.542 1705.68C991.969 1706.38 992.609 1707.99 991.911 1709.42C991.213 1710.84 989.599 1711.48 988.172 1710.79C986.745 1710.09 986.105 1708.47 986.803 1707.05C987.501 1705.62 989.209 1705 990.542 1705.68Z" fill="#A4A3F4" fill-opacity="0.2"/>
<path d="M923.525 1455.26C924.952 1455.96 925.572 1457.67 924.968 1459.11C924.27 1460.54 922.562 1461.16 921.115 1460.56C919.688 1459.86 919.068 1458.15 919.672 1456.7C920.39 1455.18 922.098 1454.56 923.525 1455.26Z" fill="#A4A3F4" fill-opacity="0.2"/>
<path d="M466.626 1737C468.053 1737.7 468.674 1739.41 468.07 1740.86C467.371 1742.28 465.663 1742.9 464.216 1742.3C462.79 1741.6 462.169 1739.89 462.773 1738.45C463.492 1736.93 465.2 1736.31 466.626 1737Z" fill="#A4A3F4" fill-opacity="0.2"/>
<path d="M479.462 1518.98C480.889 1519.68 481.51 1521.39 480.906 1522.84C480.207 1524.26 478.479 1524.98 477.052 1524.28C475.626 1523.58 475.005 1521.87 475.609 1520.43C476.233 1518.89 478.036 1518.29 479.462 1518.98Z" fill="#A4A3F4" fill-opacity="0.2"/>
<path d="M625.405 1606.73C626.832 1607.42 627.452 1609.13 626.848 1610.58C626.15 1612 624.422 1612.72 622.995 1612.02C621.568 1611.32 620.948 1609.62 621.552 1608.17C622.156 1606.72 623.978 1606.03 625.405 1606.73Z" fill="#A4A3F4" fill-opacity="0.2"/>
<path d="M1052.95 1564.1C1054.38 1564.8 1055.09 1566.53 1054.37 1568.05C1053.68 1569.48 1051.95 1570.19 1050.43 1569.47C1049 1568.78 1048.29 1567.05 1049 1565.53C1049.82 1564.03 1051.52 1563.41 1052.95 1564.1Z" fill="#A4A3F4" fill-opacity="0.2"/>
<path d="M333.061 1822.05C334.488 1822.74 335.202 1824.47 334.484 1825.99C333.766 1827.51 332.058 1828.13 330.537 1827.42C329.11 1826.72 328.395 1824.99 329.114 1823.47C329.832 1821.95 331.634 1821.35 333.061 1822.05Z" fill="#A4A3F4" fill-opacity="0.2"/>
<path d="M1280.68 1665.95C1282.11 1666.65 1282.82 1668.37 1282.1 1669.89C1281.38 1671.41 1279.68 1672.03 1278.15 1671.32C1276.73 1670.62 1276.01 1668.89 1276.73 1667.37C1277.43 1665.94 1279.16 1665.23 1280.68 1665.95Z" fill="#A4A3F4" fill-opacity="0.2"/>
<path d="M574.046 1640.18C575.567 1640.9 576.188 1642.61 575.47 1644.13C574.751 1645.65 573.043 1646.27 571.522 1645.55C570.001 1644.83 569.381 1643.12 570.099 1641.6C570.817 1640.08 572.526 1639.46 574.046 1640.18Z" fill="#A4A3F4" fill-opacity="0.2"/>
<path d="M787.339 1384.56C788.86 1385.28 789.46 1387.09 788.762 1388.51C788.043 1390.03 786.335 1390.65 784.814 1389.93C783.293 1389.22 782.693 1387.41 783.391 1385.99C784.089 1384.56 785.798 1383.94 787.339 1384.56Z" fill="#A4A3F4" fill-opacity="0.2"/>
<path d="M465.616 1613.41C467.137 1614.13 467.831 1615.95 467.113 1617.47C466.395 1618.99 464.572 1619.69 463.051 1618.97C461.53 1618.25 460.836 1616.43 461.554 1614.91C462.387 1613.31 464.095 1612.69 465.616 1613.41Z" fill="#A4A3F4" fill-opacity="0.2"/>
<path d="M638.726 1397.97C640.247 1398.69 640.942 1400.51 640.224 1402.03C639.505 1403.55 637.683 1404.24 636.162 1403.52C634.641 1402.81 633.946 1400.98 634.665 1399.46C635.383 1397.94 637.205 1397.25 638.726 1397.97Z" fill="#A4A3F4" fill-opacity="0.2"/>
<path d="M6.91778 1636.79C8.43874 1637.51 9.13328 1639.33 8.41489 1640.85C7.69651 1642.37 5.87414 1643.06 4.35318 1642.35C2.83222 1641.63 2.13765 1639.8 2.85604 1638.28C3.57443 1636.76 5.39682 1636.07 6.91778 1636.79Z" fill="#A4A3F4" fill-opacity="0.2"/>
<path d="M575.612 1446.83C577.133 1447.55 577.828 1449.37 577.089 1450.99C576.371 1452.51 574.549 1453.2 572.934 1452.46C571.413 1451.75 570.718 1449.92 571.457 1448.31C572.195 1446.69 573.997 1446.09 575.612 1446.83Z" fill="#A4A3F4" fill-opacity="0.2"/>
<path d="M671.207 1363.44C672.728 1364.16 673.423 1365.98 672.684 1367.59C671.966 1369.11 670.144 1369.81 668.528 1369.07C667.008 1368.35 666.313 1366.53 667.051 1364.91C667.79 1363.3 669.706 1362.62 671.207 1363.44Z" fill="#A4A3F4" fill-opacity="0.2"/>
<path d="M875.044 1615.57C876.659 1616.3 877.24 1618.2 876.521 1619.72C875.783 1621.34 873.96 1622.03 872.365 1621.2C870.75 1620.46 870.17 1618.56 870.888 1617.04C871.607 1615.52 873.429 1614.83 875.044 1615.57Z" fill="#A4A3F4" fill-opacity="0.2"/>
<path d="M1310.19 1500.42C1311.8 1501.15 1312.48 1503.07 1311.76 1504.59C1311.02 1506.21 1309.1 1506.88 1307.58 1506.16C1305.97 1505.42 1305.29 1503.51 1306.01 1501.99C1306.75 1500.37 1308.67 1499.7 1310.19 1500.42Z" fill="#A4A3F4" fill-opacity="0.2"/>
<path d="M1084.07 1479.66C1085.68 1480.4 1086.36 1482.31 1085.62 1483.93C1084.88 1485.54 1082.96 1486.22 1081.35 1485.48C1079.73 1484.74 1079.06 1482.82 1079.8 1481.21C1080.54 1479.6 1082.45 1478.92 1084.07 1479.66Z" fill="#A4A3F4" fill-opacity="0.2"/>
<path d="M577.161 1483.89C578.776 1484.63 579.45 1486.54 578.712 1488.16C577.973 1489.77 576.057 1490.45 574.442 1489.71C572.826 1488.97 572.152 1487.06 572.89 1485.44C573.629 1483.83 575.545 1483.15 577.161 1483.89Z" fill="#A4A3F4" fill-opacity="0.2"/>
<path d="M109.262 1634.4C110.877 1635.14 111.552 1637.05 110.813 1638.67C110.075 1640.28 108.158 1640.96 106.543 1640.22C104.928 1639.48 104.254 1637.56 104.992 1635.95C105.73 1634.33 107.647 1633.66 109.262 1634.4Z" fill="#A4A3F4" fill-opacity="0.2"/>
<path d="M48.0664 1555.17C49.6815 1555.91 50.4301 1557.94 49.5974 1559.54C48.8589 1561.15 46.9223 1561.92 45.2129 1561.16C43.5978 1560.42 42.8492 1558.39 43.6819 1556.8C44.4404 1555.09 46.357 1554.42 48.0664 1555.17Z" fill="#A4A3F4" fill-opacity="0.2"/>
<path d="M304.024 1390.38C305.639 1391.12 306.387 1393.15 305.649 1394.77C304.91 1396.38 302.88 1397.13 301.264 1396.39C299.649 1395.66 298.901 1393.62 299.639 1392.01C300.398 1390.3 302.409 1389.65 304.024 1390.38Z" fill="#A4A3F4" fill-opacity="0.2"/>
<path d="M1244.06 1619.73C1245.77 1620.49 1246.51 1622.52 1245.74 1624.32C1244.98 1626.03 1242.95 1626.78 1241.24 1626.02C1239.53 1625.26 1238.78 1623.23 1239.56 1621.43C1240.32 1619.72 1242.35 1618.97 1244.06 1619.73Z" fill="#A4A3F4" fill-opacity="0.2"/>
<path d="M1113.33 1717.3C1115.12 1718.17 1115.85 1720.3 1115.07 1722.1C1114.19 1723.88 1112.14 1724.73 1110.36 1723.85C1108.58 1722.98 1107.85 1720.86 1108.63 1719.05C1109.5 1717.27 1111.53 1716.52 1113.33 1717.3Z" fill="#A4A3F4" fill-opacity="0.2"/>
<path d="M483.755 1314.7C485.538 1315.57 486.361 1317.71 485.562 1319.61C484.669 1321.49 482.544 1322.22 480.646 1321.42C478.863 1320.54 478.04 1318.4 478.839 1316.5C479.732 1314.63 481.971 1313.82 483.755 1314.7Z" fill="#A4A3F4" fill-opacity="0.2"/>
<path d="M1309.14 1719.48C1311.02 1720.37 1311.82 1722.61 1310.95 1724.39C1310.06 1726.27 1307.91 1727.09 1306.03 1726.2C1304.16 1725.31 1303.35 1723.07 1304.23 1721.28C1305.12 1719.41 1307.36 1718.6 1309.14 1719.48Z" fill="#A4A3F4" fill-opacity="0.2"/>
<path d="M183.588 1416.19C185.466 1417.09 186.268 1419.33 185.395 1421.11C184.503 1422.99 182.357 1423.81 180.48 1422.92C178.602 1422.02 177.799 1419.79 178.672 1418C179.471 1416.1 181.71 1415.3 183.588 1416.19Z" fill="#A4A3F4" fill-opacity="0.2"/>
<path d="M420.21 1525.74C422.182 1526.66 422.964 1528.99 422.071 1530.87C421.158 1532.84 418.825 1533.62 416.947 1532.73C414.975 1531.81 414.193 1529.48 415.086 1527.6C415.999 1525.63 418.238 1524.83 420.21 1525.74Z" fill="#A4A3F4" fill-opacity="0.2"/>
<path d="M1183 1449.85C1184.97 1450.76 1185.75 1453.1 1184.84 1455.07C1183.93 1457.04 1181.59 1457.82 1179.72 1456.93C1177.74 1456.02 1176.96 1453.68 1177.87 1451.71C1178.79 1449.74 1181.12 1448.96 1183 1449.85Z" fill="#A4A3F4" fill-opacity="0.2"/>
<path d="M434.101 1432.01C436.073 1432.92 436.949 1435.28 436.036 1437.25C435.123 1439.22 432.77 1440.1 430.798 1439.18C428.826 1438.27 427.949 1435.92 428.862 1433.95C429.775 1431.97 432.129 1431.1 434.101 1432.01Z" fill="#A4A3F4" fill-opacity="0.2"/>
<path d="M136.019 1732.86C137.991 1733.77 138.867 1736.12 137.934 1738.19C137.021 1740.16 134.668 1741.04 132.696 1740.13C130.724 1739.21 129.847 1736.86 130.78 1734.79C131.693 1732.82 134.047 1731.95 136.019 1732.86Z" fill="#A4A3F4" fill-opacity="0.2"/>
<path d="M70.0463 1505.7C72.1123 1506.64 73.0631 1509.11 72.0157 1511.24C71.0825 1513.31 68.6146 1514.26 66.5686 1513.23C64.5026 1512.3 63.5518 1509.83 64.5993 1507.69C65.5123 1505.72 67.9802 1504.77 70.0463 1505.7Z" fill="#A4A3F4" fill-opacity="0.2"/>
<path d="M178.173 1415.73C180.314 1416.78 181.244 1419.34 180.291 1421.5C179.243 1423.64 176.661 1424.66 174.521 1423.62C172.381 1422.57 171.45 1420.01 172.404 1417.85C173.451 1415.71 176.013 1414.78 178.173 1415.73Z" fill="#A4A3F4" fill-opacity="0.2"/>
<path d="M738.334 1457.32C740.569 1458.38 741.499 1460.95 740.432 1463.18C739.364 1465.41 736.802 1466.34 734.568 1465.28C732.333 1464.21 731.403 1461.65 732.47 1459.41C733.518 1457.27 736.194 1456.27 738.334 1457.32Z" fill="#A4A3F4" fill-opacity="0.2"/>
<path opacity="0.01" d="M574.235 1449.59L669.923 1366.22L637.444 1400.74L574.235 1449.59Z" fill="#A4A3F4" fill-opacity="0.2"/>
<path opacity="0.1408" d="M1262.26 1404.72L1289.11 1553.03L1353.57 1456.79L1262.26 1404.72Z" fill="#A4A3F4" fill-opacity="0.2"/>
<path opacity="0.028422" d="M689.68 1496.57L839.072 1590.76L989.413 1708.19L689.68 1496.57Z" fill="#A4A3F4" fill-opacity="0.2"/>
<path opacity="0.064896" d="M624.163 1609.32L331.799 1824.73L465.385 1739.6L624.163 1609.32Z" fill="#A4A3F4" fill-opacity="0.2"/>
<path opacity="0.040397" d="M786.059 1387.34L922.379 1457.87L1051.69 1566.79L786.059 1387.34Z" fill="#A4A3F4" fill-opacity="0.2"/>
<path opacity="0.3" d="M574.235 1449.59L669.923 1366.22L637.444 1400.74L574.235 1449.59Z" fill="#A4A3F4" fill-opacity="0.2"/>
<path opacity="0.3" d="M574.235 1449.59L669.923 1366.22L637.444 1400.74L574.235 1449.59Z" fill="#A4A3F4" fill-opacity="0.2"/>
<path opacity="0.3" d="M574.235 1449.59L669.923 1366.22L637.444 1400.74L574.235 1449.59Z" fill="#A4A3F4" fill-opacity="0.2"/>
<path opacity="0.1576" d="M575.742 1486.84L574.235 1449.59L669.923 1366.22L575.742 1486.84Z" fill="#A4A3F4" fill-opacity="0.2"/>
<path opacity="0.1573" d="M1181.37 1453.35L1314.51 1417.84L1248.52 1372.16L1181.37 1453.35Z" fill="#A4A3F4" fill-opacity="0.2"/>
<path opacity="0.072094" d="M383.875 1261.69L418.577 1529.24L432.429 1435.69L383.875 1261.69Z" fill="#A4A3F4" fill-opacity="0.2"/>
<g opacity="0.056139">
<path d="M1289.05 1553.31C1288.88 1553.18 1288.9 1553.08 1288.92 1552.99L1353.4 1456.65C1353.42 1456.56 1353.63 1456.51 1353.7 1456.62C1353.8 1456.64 1353.85 1456.85 1353.74 1456.92L1289.26 1553.26C1289.16 1553.24 1289.14 1553.33 1289.05 1553.31Z" fill="#A4A3F4" fill-opacity="0.2"/>
</g>
<path d="M719.865 1514.33L689.545 1496.73C689.45 1496.71 689.396 1496.5 689.511 1496.43C689.531 1496.34 689.739 1496.28 689.813 1496.4L720.04 1513.97C720.134 1513.99 720.188 1514.2 720.074 1514.27C720.053 1514.37 719.959 1514.35 719.865 1514.33Z" fill="#A4A3F4" fill-opacity="0.2"/>
<g opacity="0.7928">
<path d="M1289.05 1553.31C1288.96 1553.29 1288.86 1553.27 1288.88 1553.17L1262.13 1404.89C1262.15 1404.79 1262.17 1404.7 1262.28 1404.63C1262.38 1404.65 1262.47 1404.67 1262.54 1404.78L1289.3 1553.07C1289.28 1553.16 1289.26 1553.26 1289.05 1553.31Z" fill="#A4A3F4" fill-opacity="0.2"/>
</g>
<g opacity="0.4859">
<path d="M839.03 1590.95L689.568 1496.64C689.474 1496.62 689.42 1496.41 689.534 1496.34C689.554 1496.25 689.763 1496.19 689.837 1496.31L839.205 1590.59C839.299 1590.61 839.353 1590.82 839.239 1590.9C839.125 1590.97 839.125 1590.97 839.03 1590.95Z" fill="#A4A3F4" fill-opacity="0.2"/>
</g>
<g opacity="0.042287">
<path d="M663.446 1762.15C663.352 1762.13 663.278 1762.01 663.298 1761.92L719.812 1514.12C719.832 1514.02 719.946 1513.95 720.04 1513.97C720.134 1513.99 720.209 1514.11 720.188 1514.2L663.674 1762C663.654 1762.09 663.54 1762.17 663.446 1762.15Z" fill="#A4A3F4" fill-opacity="0.2"/>
</g>
<g opacity="0.6679">
<path d="M839.028 1590.95C838.934 1590.93 838.86 1590.81 838.88 1590.72L854.1 1430.31C854.121 1430.22 854.235 1430.15 854.329 1430.17C854.423 1430.19 854.497 1430.3 854.477 1430.39L839.257 1590.8C839.237 1590.89 839.122 1590.97 839.028 1590.95Z" fill="#A4A3F4" fill-opacity="0.2"/>
</g>
<g opacity="0.5698">
<path d="M1289.05 1553.32L1288.96 1553.3C1288.89 1553.18 1288.91 1553.09 1289.02 1553.01L1437.63 1424.7C1437.74 1424.62 1437.84 1424.64 1437.91 1424.76C1437.98 1424.87 1437.96 1424.97 1437.85 1425.04L1289.24 1553.36C1289.17 1553.24 1289.05 1553.32 1289.05 1553.32Z" fill="#A4A3F4" fill-opacity="0.2"/>
</g>
<g opacity="0.6271">
<path d="M989.371 1708.38L838.94 1590.92C838.865 1590.81 838.886 1590.71 838.906 1590.62C839.02 1590.54 839.114 1590.56 839.208 1590.58L989.545 1708.02C989.619 1708.13 989.599 1708.23 989.579 1708.32C989.465 1708.4 989.465 1708.4 989.371 1708.38Z" fill="#A4A3F4" fill-opacity="0.2"/>
</g>
<g opacity="0.048349">
<path d="M839.032 1590.95C838.864 1590.81 838.884 1590.72 838.904 1590.63L922.21 1457.74C922.23 1457.64 922.438 1457.59 922.512 1457.7C922.607 1457.72 922.661 1457.93 922.546 1458.01L839.241 1590.89C839.126 1590.97 839.126 1590.97 839.032 1590.95Z" fill="#A4A3F4" fill-opacity="0.2"/>
</g>
<g opacity="0.4709">
<path d="M465.34 1739.78C465.246 1739.76 465.172 1739.65 465.192 1739.56L478.034 1521.53C478.054 1521.44 478.168 1521.36 478.263 1521.38C478.357 1521.4 478.431 1521.52 478.411 1521.61L465.569 1739.64C465.549 1739.73 465.529 1739.82 465.34 1739.78Z" fill="#A4A3F4" fill-opacity="0.2"/>
</g>
<g opacity="0.5091">
<path d="M465.346 1739.79L465.252 1739.77C465.178 1739.65 465.198 1739.56 465.312 1739.49L624.09 1609.2C624.205 1609.13 624.299 1609.15 624.373 1609.26C624.447 1609.38 624.427 1609.47 624.312 1609.54L465.534 1739.83C465.44 1739.81 465.44 1739.81 465.346 1739.79Z" fill="#A4A3F4" fill-opacity="0.2"/>
</g>
<g opacity="0.8169">
<path d="M624.12 1609.51L478.087 1521.74C477.993 1521.72 477.939 1521.51 478.054 1521.44C478.074 1521.34 478.282 1521.29 478.356 1521.4L624.295 1609.15C624.389 1609.17 624.443 1609.38 624.329 1609.45C624.309 1609.55 624.214 1609.53 624.12 1609.51Z" fill="#A4A3F4" fill-opacity="0.2"/>
</g>
<g opacity="0.5677">
<path d="M1051.65 1566.98L922.131 1458.12C922.057 1458.01 922.077 1457.91 922.097 1457.82C922.211 1457.74 922.306 1457.76 922.4 1457.78L1051.82 1566.62C1051.9 1566.74 1051.88 1566.83 1051.86 1566.93C1051.86 1566.93 1051.74 1567 1051.65 1566.98Z" fill="#A4A3F4" fill-opacity="0.2"/>
</g>
<g opacity="0.6315">
<path d="M331.753 1824.92C331.659 1824.9 331.659 1824.9 331.679 1824.8C331.605 1824.69 331.625 1824.6 331.739 1824.52L465.306 1739.47C465.42 1739.4 465.515 1739.42 465.589 1739.53C465.663 1739.65 465.643 1739.74 465.528 1739.82L331.962 1824.87C331.868 1824.85 331.847 1824.94 331.753 1824.92Z" fill="#A4A3F4" fill-opacity="0.2"/>
</g>
<g opacity="0.2431">
<path d="M465.344 1739.79L465.25 1739.77C465.176 1739.65 465.196 1739.56 465.31 1739.49L572.711 1642.75C572.826 1642.68 572.92 1642.7 572.994 1642.81C573.068 1642.93 573.048 1643.02 572.934 1643.09L465.532 1739.83C465.438 1739.81 465.438 1739.81 465.344 1739.79Z" fill="#A4A3F4" fill-opacity="0.2"/>
</g>
<g opacity="0.12">
<path d="M922.315 1458.16C922.22 1458.14 922.22 1458.14 922.315 1458.16L786.017 1387.53C785.923 1387.51 785.849 1387.4 785.983 1387.23C786.003 1387.14 786.118 1387.06 786.286 1387.2L922.583 1457.82C922.677 1457.84 922.752 1457.96 922.617 1458.12C922.429 1458.08 922.315 1458.16 922.315 1458.16Z" fill="#A4A3F4" fill-opacity="0.2"/>
</g>
<g opacity="0.9466">
<path d="M572.743 1643.05C572.649 1643.03 572.649 1643.03 572.669 1642.94C572.595 1642.82 572.615 1642.73 572.73 1642.66L624.106 1609.11C624.221 1609.03 624.315 1609.05 624.389 1609.17C624.463 1609.28 624.443 1609.37 624.329 1609.45L572.952 1643C572.838 1643.07 572.838 1643.07 572.743 1643.05Z" fill="#A4A3F4" fill-opacity="0.2"/>
</g>
<g opacity="0.297">
<path d="M1279.38 1668.82L1051.67 1566.88C1051.58 1566.86 1051.5 1566.75 1051.52 1566.65C1051.54 1566.56 1051.66 1566.48 1051.75 1566.51L1279.46 1668.44C1279.55 1668.46 1279.62 1668.58 1279.6 1668.67C1279.56 1668.86 1279.47 1668.84 1279.38 1668.82Z" fill="#A4A3F4" fill-opacity="0.2"/>
</g>
<g opacity="0.7588">
<path d="M572.745 1643.05L464.295 1616.38C464.201 1616.36 464.127 1616.24 464.147 1616.15C464.167 1616.06 464.282 1615.98 464.376 1616L572.826 1642.68C572.92 1642.7 572.994 1642.81 572.974 1642.91C572.954 1643 572.839 1643.07 572.745 1643.05Z" fill="#A4A3F4" fill-opacity="0.2"/>
</g>
<g opacity="0.464">
<path d="M637.404 1400.94C637.309 1400.92 637.235 1400.8 637.235 1400.8C637.255 1400.71 637.275 1400.61 637.39 1400.54L786.003 1387.13C786.097 1387.15 786.192 1387.17 786.266 1387.29C786.246 1387.38 786.226 1387.48 786.111 1387.55L637.404 1400.94Z" fill="#A4A3F4" fill-opacity="0.2"/>
</g>
<g opacity="0.1491">
<path d="M464.316 1616.29C464.148 1616.16 464.168 1616.06 464.188 1615.97L637.277 1400.61C637.391 1400.54 637.485 1400.56 637.58 1400.58C637.654 1400.69 637.634 1400.78 637.613 1400.88L464.505 1616.33C464.505 1616.33 464.41 1616.31 464.316 1616.29Z" fill="#A4A3F4" fill-opacity="0.2"/>
</g>
<g opacity="0.2005">
<path d="M464.314 1616.29C464.146 1616.15 464.166 1616.06 464.186 1615.97L574.066 1449.46C574.086 1449.36 574.295 1449.31 574.369 1449.42C574.463 1449.44 574.517 1449.65 574.403 1449.72L464.523 1616.23C464.503 1616.33 464.409 1616.31 464.314 1616.29Z" fill="#A4A3F4" fill-opacity="0.2"/>
</g>
<g opacity="0.8633">
<path d="M637.401 1400.93L637.307 1400.91C637.233 1400.8 637.253 1400.71 637.273 1400.61L669.753 1366.08C669.867 1366.01 669.961 1366.03 670.056 1366.05C670.13 1366.16 670.11 1366.26 670.089 1366.35L637.61 1400.88C637.495 1400.95 637.495 1400.95 637.401 1400.93Z" fill="#A4A3F4" fill-opacity="0.2"/>
</g>
<path d="M574.193 1449.79L574.099 1449.77C574.024 1449.65 574.045 1449.56 574.159 1449.48L669.753 1366.08C669.867 1366.01 669.962 1366.03 670.036 1366.14C670.11 1366.26 670.09 1366.35 669.975 1366.43L574.381 1449.83C574.381 1449.83 574.287 1449.81 574.193 1449.79Z" fill="#A4A3F4" fill-opacity="0.2"/>
<g opacity="0.2279">
<path d="M575.7 1487.03C575.605 1487.01 575.531 1486.89 575.551 1486.8L574.045 1449.55C574.065 1449.46 574.085 1449.36 574.2 1449.29C574.294 1449.31 574.388 1449.33 574.442 1449.54L575.948 1486.78C575.928 1486.88 575.908 1486.97 575.7 1487.03Z" fill="#A4A3F4" fill-opacity="0.2"/>
</g>
<g opacity="0.1936">
<path d="M575.702 1487.03C575.534 1486.89 575.554 1486.8 575.574 1486.7L669.755 1366.08C669.775 1365.98 669.984 1365.93 670.058 1366.04C670.152 1366.06 670.112 1366.25 670.092 1366.35L575.911 1486.97C575.911 1486.97 575.796 1487.05 575.702 1487.03Z" fill="#A4A3F4" fill-opacity="0.2"/>
</g>
<g opacity="0.1071">
<path d="M873.607 1618.61C873.513 1618.59 873.513 1618.59 873.533 1618.5C873.459 1618.38 873.479 1618.29 873.594 1618.21L1082.6 1482.39C1082.71 1482.32 1082.81 1482.34 1082.88 1482.45C1082.95 1482.57 1082.93 1482.66 1082.82 1482.74L873.816 1618.56C873.702 1618.63 873.702 1618.63 873.607 1618.61Z" fill="#A4A3F4" fill-opacity="0.2"/>
</g>
<g opacity="0.4264">
<path d="M1082.61 1482.8C1082.52 1482.78 1082.44 1482.66 1082.46 1482.57C1082.48 1482.48 1082.6 1482.4 1082.69 1482.42L1308.92 1503.1C1309.02 1503.12 1309.09 1503.23 1309.07 1503.33C1309.05 1503.42 1308.94 1503.49 1308.84 1503.47L1082.61 1482.8Z" fill="#A4A3F4" fill-opacity="0.2"/>
</g>
<path d="M107.8 1637.53L107.706 1637.51L46.4953 1558.38C46.4212 1558.27 46.4413 1558.18 46.5556 1558.1C46.6699 1558.03 46.7641 1558.05 46.8382 1558.16L108.049 1637.29C108.123 1637.4 108.103 1637.5 107.989 1637.57C107.989 1637.57 107.895 1637.55 107.8 1637.53Z" fill="#A4A3F4" fill-opacity="0.2"/>
<g opacity="0.0272">
<path d="M1111.8 1720.81C1111.7 1720.79 1111.63 1720.68 1111.65 1720.58C1111.67 1720.49 1111.78 1720.41 1111.88 1720.43L1307.67 1722.7C1307.76 1722.72 1307.83 1722.84 1307.81 1722.93C1307.79 1723.03 1307.68 1723.1 1307.59 1723.08L1111.8 1720.81Z" fill="#A4A3F4" fill-opacity="0.2"/>
</g>
<g opacity="0.2115">
<path d="M181.938 1419.79C181.843 1419.77 181.843 1419.77 181.769 1419.65C181.695 1419.54 181.81 1419.46 181.924 1419.39L482.089 1317.88C482.203 1317.8 482.278 1317.92 482.352 1318.03C482.426 1318.15 482.311 1318.22 482.197 1318.29L182.032 1419.81C182.032 1419.81 182.032 1419.81 181.938 1419.79Z" fill="#A4A3F4" fill-opacity="0.2"/>
</g>
<g opacity="0.087997">
<path d="M1307.6 1722.99C1307.51 1722.97 1307.43 1722.85 1307.43 1722.85L1248.34 1372.11C1248.36 1372.02 1248.38 1371.93 1248.5 1371.85C1248.59 1371.87 1248.68 1371.89 1248.76 1372.01L1307.85 1722.74C1307.81 1722.93 1307.79 1723.03 1307.6 1722.99Z" fill="#A4A3F4" fill-opacity="0.2"/>
</g>
<g opacity="0.090279">
<path d="M1181.33 1453.53C1181.16 1453.4 1181.18 1453.31 1181.2 1453.21L1248.26 1372C1248.37 1371.93 1248.47 1371.95 1248.56 1371.97C1248.63 1372.08 1248.61 1372.17 1248.59 1372.27L1181.53 1453.48C1181.51 1453.57 1181.42 1453.55 1181.33 1453.53Z" fill="#A4A3F4" fill-opacity="0.2"/>
</g>
<g opacity="0.9688">
<path d="M418.539 1529.42C418.445 1529.4 418.371 1529.29 418.391 1529.2L432.265 1435.56C432.285 1435.47 432.399 1435.39 432.493 1435.41C432.587 1435.43 432.661 1435.55 432.641 1435.64L418.768 1529.28C418.747 1529.37 418.633 1529.44 418.539 1529.42Z" fill="#A4A3F4" fill-opacity="0.2"/>
</g>
<g opacity="0.014495">
<path d="M134.305 1736.73C134.21 1736.71 134.21 1736.71 134.231 1736.62C134.156 1736.5 134.177 1736.41 134.291 1736.33L418.503 1529.11C418.618 1529.04 418.712 1529.06 418.786 1529.17C418.86 1529.29 418.84 1529.38 418.726 1529.45L134.513 1736.68C134.419 1736.66 134.399 1736.75 134.305 1736.73Z" fill="#A4A3F4" fill-opacity="0.2"/>
</g>
<g opacity="0.3259">
<path d="M1181.33 1453.53C1181.23 1453.51 1181.14 1453.49 1181.16 1453.4L1148.42 1308.66C1148.44 1308.57 1148.46 1308.47 1148.58 1308.4C1148.67 1308.42 1148.77 1308.44 1148.84 1308.55L1181.57 1453.29C1181.65 1453.4 1181.53 1453.48 1181.33 1453.53C1181.42 1453.55 1181.42 1453.55 1181.33 1453.53Z" fill="#A4A3F4" fill-opacity="0.2"/>
</g>
<g opacity="0.3835">
<path d="M432.389 1435.88C432.295 1435.86 432.295 1435.86 432.221 1435.75L383.654 1261.84C383.58 1261.72 383.694 1261.65 383.808 1261.58C383.923 1261.5 383.997 1261.62 384.071 1261.73L432.638 1435.64C432.618 1435.74 432.598 1435.83 432.389 1435.88Z" fill="#A4A3F4" fill-opacity="0.2"/>
</g>
<g opacity="0.01">
<path d="M134.301 1736.73C134.207 1736.71 134.207 1736.71 134.133 1736.59L68.1306 1509.63C68.0565 1509.52 68.1707 1509.44 68.285 1509.37C68.3993 1509.29 68.4734 1509.41 68.5475 1509.52L134.55 1736.49C134.624 1736.6 134.51 1736.67 134.301 1736.73Z" fill="#A4A3F4" fill-opacity="0.2"/>
</g>
</g>
<defs>
<filter id="filter0_f_1428_8048" x="-260.621" y="-288.843" width="738.241" height="743.464" filterUnits="userSpaceOnUse" color-interpolation-filters="sRGB">
<feFlood flood-opacity="0" result="BackgroundImageFix"/>
<feBlend mode="normal" in="SourceGraphic" in2="BackgroundImageFix" result="shape"/>
<feGaussianBlur stdDeviation="36.8103" result="effect1_foregroundBlur_1428_8048"/>
</filter>
<filter id="filter1_f_1428_8048" x="-253" y="-330.938" width="882" height="976.27" filterUnits="userSpaceOnUse" color-interpolation-filters="sRGB">
<feFlood flood-opacity="0" result="BackgroundImageFix"/>
<feBlend mode="normal" in="SourceGraphic" in2="BackgroundImageFix" result="shape"/>
<feGaussianBlur stdDeviation="80" result="effect1_foregroundBlur_1428_8048"/>
</filter>
<filter id="filter2_f_1428_8048" x="-413" y="-408" width="759" height="778" filterUnits="userSpaceOnUse" color-interpolation-filters="sRGB">
<feFlood flood-opacity="0" result="BackgroundImageFix"/>
<feBlend mode="normal" in="SourceGraphic" in2="BackgroundImageFix" result="shape"/>
<feGaussianBlur stdDeviation="25" result="effect1_foregroundBlur_1428_8048"/>
</filter>
<filter id="filter3_f_1428_8048" x="1026.38" y="-89.8432" width="738.241" height="743.464" filterUnits="userSpaceOnUse" color-interpolation-filters="sRGB">
<feFlood flood-opacity="0" result="BackgroundImageFix"/>
<feBlend mode="normal" in="SourceGraphic" in2="BackgroundImageFix" result="shape"/>
<feGaussianBlur stdDeviation="36.8103" result="effect1_foregroundBlur_1428_8048"/>
</filter>
<filter id="filter4_f_1428_8048" x="894" y="-281.938" width="882" height="976.27" filterUnits="userSpaceOnUse" color-interpolation-filters="sRGB">
<feFlood flood-opacity="0" result="BackgroundImageFix"/>
<feBlend mode="normal" in="SourceGraphic" in2="BackgroundImageFix" result="shape"/>
<feGaussianBlur stdDeviation="80" result="effect1_foregroundBlur_1428_8048"/>
</filter>
<filter id="filter5_f_1428_8048" x="1034" y="-199" width="659" height="778.258" filterUnits="userSpaceOnUse" color-interpolation-filters="sRGB">
<feFlood flood-opacity="0" result="BackgroundImageFix"/>
<feBlend mode="normal" in="SourceGraphic" in2="BackgroundImageFix" result="shape"/>
<feGaussianBlur stdDeviation="25" result="effect1_foregroundBlur_1428_8048"/>
</filter>
<filter id="filter6_f_1428_8048" x="172.827" y="176.827" width="1054.35" height="1054.35" filterUnits="userSpaceOnUse" color-interpolation-filters="sRGB">
<feFlood flood-opacity="0" result="BackgroundImageFix"/>
<feBlend mode="normal" in="SourceGraphic" in2="BackgroundImageFix" result="shape"/>
<feGaussianBlur stdDeviation="89.5865" result="effect1_foregroundBlur_1428_8048"/>
</filter>
<filter id="filter7_f_1428_8048" x="361.827" y="365.827" width="676.346" height="676.346" filterUnits="userSpaceOnUse" color-interpolation-filters="sRGB">
<feFlood flood-opacity="0" result="BackgroundImageFix"/>
<feBlend mode="normal" in="SourceGraphic" in2="BackgroundImageFix" result="shape"/>
<feGaussianBlur stdDeviation="89.5865" result="effect1_foregroundBlur_1428_8048"/>
</filter>
<filter id="filter8_f_1428_8048" x="119.827" y="740.827" width="1200.35" height="1200.35" filterUnits="userSpaceOnUse" color-interpolation-filters="sRGB">
<feFlood flood-opacity="0" result="BackgroundImageFix"/>
<feBlend mode="normal" in="SourceGraphic" in2="BackgroundImageFix" result="shape"/>
<feGaussianBlur stdDeviation="89.5865" result="effect1_foregroundBlur_1428_8048"/>
</filter>
<linearGradient id="paint0_linear_1428_8048" x1="69.0888" y1="-144.861" x2="264.266" y2="411.44" gradientUnits="userSpaceOnUse">
<stop stop-color="#7574FD"/>
<stop offset="1" stop-color="#0D82D2" stop-opacity="0"/>
</linearGradient>
<linearGradient id="paint1_linear_1428_8048" x1="1216.09" y1="-95.8611" x2="1411.27" y2="460.44" gradientUnits="userSpaceOnUse">
<stop stop-color="#7574FD"/>
<stop offset="1" stop-color="#0D82D2" stop-opacity="0"/>
</linearGradient>
<linearGradient id="paint2_linear_1428_8048" x1="440.145" y1="356.001" x2="978.408" y2="362.892" gradientUnits="userSpaceOnUse">
<stop stop-color="#615FEB"/>
<stop offset="1" stop-color="#8F5FEB"/>
</linearGradient>
<radialGradient id="paint3_radial_1428_8048" cx="0" cy="0" r="1" gradientUnits="userSpaceOnUse" gradientTransform="translate(702.223 704) rotate(52.7401) scale(199.775 7645.81)">
<stop stop-color="#1BB0B0"/>
<stop offset="1" stop-color="#97E1E1"/>
</radialGradient>
<linearGradient id="paint4_linear_1428_8048" x1="405.635" y1="920.001" x2="1056.81" y2="928.337" gradientUnits="userSpaceOnUse">
<stop stop-color="#615FEB"/>
<stop offset="1" stop-color="#8F5FEB"/>
</linearGradient>
<clipPath id="clip0_1428_8048">
<rect width="1440" height="1875" fill="white"/>
</clipPath>
</defs>
</svg>
