<svg width="56" height="58" viewBox="0 0 56 58" fill="none" xmlns="http://www.w3.org/2000/svg">
<path d="M15.7264 5.19803C14.4171 6.06253 13.3209 7.31543 12.2308 8.43051C11.0844 9.60197 9.95056 10.786 8.83548 11.9825C7.74546 13.1539 6.67424 14.3505 5.61554 15.5595C5.06426 16.1922 4.51299 16.8187 3.9805 17.4702C3.5044 18.059 2.88422 18.6604 2.57099 19.3558C2.51461 19.4748 2.63991 19.6439 2.77146 19.5562C3.40418 19.1302 3.88654 18.4474 4.40022 17.8899C4.93897 17.301 5.4652 16.6934 6.00394 16.0982C7.10023 14.8829 8.2153 13.6801 9.33665 12.4899C10.4329 11.3247 11.548 10.1658 12.6756 9.0319C13.8032 7.89176 15.0874 6.80173 16.0209 5.49872C16.1461 5.31705 15.9018 5.07901 15.7264 5.19803Z" fill="#3F3F3F"/>
<path d="M22.743 1.53335C22.292 1.63358 22.0101 1.94053 21.6781 2.25376C21.2709 2.62963 20.8637 3.01177 20.4628 3.3939C19.7048 4.10805 18.953 4.82847 18.2013 5.54889C16.679 7.02104 15.1693 8.51199 13.6846 10.0155C10.7089 13.0287 7.7897 16.1108 4.98321 19.2806C4.17509 20.189 3.37323 21.1036 2.59644 22.037C1.87602 22.9015 0.980194 23.7723 0.447712 24.7746C0.410125 24.8498 0.497826 24.9625 0.573 24.8999C1.36859 24.2985 2.00757 23.4465 2.67787 22.7136C3.37949 21.9493 4.08739 21.1788 4.78901 20.4083C6.21731 18.8421 7.65814 17.2948 9.1115 15.7537C12.0245 12.6779 15.0064 9.67092 18.0635 6.73914C18.9405 5.89969 19.8238 5.06025 20.7133 4.23334C21.1456 3.83241 21.5778 3.4315 22.0101 3.03057C22.411 2.66096 22.8558 2.35399 23.0249 1.82151C23.0938 1.63984 22.9122 1.49576 22.743 1.53335Z" fill="#3F3F3F"/>
<path d="M29.0888 0.0480768C27.9799 0.730906 27.0716 1.83972 26.1445 2.74807C25.1609 3.70654 24.1837 4.66501 23.2001 5.62974C21.2957 7.50282 19.3913 9.38216 17.5057 11.274C13.6531 15.133 9.83799 19.0295 6.07303 22.9698C4.00575 25.1374 1.83197 27.2798 0.021533 29.6666C-0.0599053 29.7793 0.109232 29.8796 0.203199 29.8044C2.27675 28.0754 4.13104 26.0645 6.02292 24.1413C7.92106 22.2118 9.83172 20.2886 11.7361 18.3654C15.5449 14.519 19.3851 10.6914 23.244 6.89516C24.2964 5.85525 25.3551 4.82162 26.4138 3.78798C26.9588 3.2555 27.4976 2.72928 28.0426 2.20306C28.5876 1.67685 29.1577 1.18194 29.5774 0.549228C29.7841 0.236004 29.3895 -0.133593 29.0888 0.0480768Z" fill="#3F3F3F"/>
<path d="M31.726 2.23444C31.0683 2.42864 30.611 2.87968 30.1098 3.33072C29.5335 3.85694 28.9822 4.40822 28.456 4.97829C27.4349 6.07457 26.4764 7.22724 25.4803 8.34859C23.5195 10.5662 21.4523 12.6836 19.3349 14.7509C15.0938 18.8855 10.646 22.8133 6.53025 27.0731C5.37759 28.2634 4.26251 29.485 3.19128 30.7567C2.12631 32.0158 1.19917 33.3564 0.196852 34.6594C0.127943 34.7471 0.278294 34.8599 0.347203 34.7785C1.28061 33.6383 2.37062 32.5734 3.39174 31.5084C4.40032 30.4497 5.4277 29.4161 6.45508 28.3824C8.54116 26.2838 10.6961 24.2479 12.8637 22.2307C17.1548 18.2402 21.4961 14.2936 25.4427 9.95857C26.539 8.75578 27.5789 7.50288 28.669 6.29384C29.2328 5.66739 29.8154 5.05346 30.423 4.4646C31.0056 3.90706 31.7135 3.44975 32.1395 2.76065C32.2961 2.49755 32.0205 2.14674 31.726 2.23444Z" fill="#3F3F3F"/>
<path d="M37.6398 1.70062C28.431 11.0535 19.1094 20.2936 9.65005 29.3897C8.32824 30.6614 7.00017 31.9268 5.6721 33.1922C4.3315 34.4702 2.87813 35.7168 1.70041 37.1514C1.53126 37.3581 1.75053 37.7277 2.00737 37.546C3.31665 36.6314 4.48184 35.4788 5.65957 34.395C6.88114 33.2737 8.08393 32.1461 9.29297 31.0184C11.7111 28.757 14.1229 26.4955 16.5097 24.2027C21.2268 19.6672 25.8939 15.0753 30.5045 10.4333C32.9414 7.97764 35.3533 5.49691 37.7463 3.00365C37.9655 3.0475 38.2287 2.95979 38.3038 2.70922C38.3539 2.53381 38.4103 2.3584 38.4604 2.17673C38.5983 1.70689 37.9843 1.34355 37.6398 1.70062Z" fill="#3F3F3F"/>
<path d="M39.9765 4.42689C39.2624 4.74637 38.6923 5.09719 38.0972 5.60461C37.4644 6.14336 36.8819 6.73849 36.318 7.35241C35.1529 8.6241 33.9939 9.88952 32.835 11.1612C30.4733 13.7547 28.0802 16.3169 25.6809 18.8728C20.9325 23.9345 16.0963 28.9148 11.1661 33.8011C9.80672 35.148 8.44107 36.4886 7.06914 37.8166C6.35499 38.5057 5.6471 39.1948 4.95174 39.9027C4.25638 40.6106 3.62367 41.3749 2.92831 42.0827C2.83435 42.1767 2.97216 42.3083 3.0724 42.2268C4.43179 41.0741 5.82877 39.9967 7.13805 38.7813C8.38469 37.6224 9.62506 36.4572 10.8592 35.292C13.3775 32.9053 15.877 30.4934 18.3452 28.0565C23.2879 23.1828 28.099 18.1837 32.8099 13.0781C34.1067 11.6686 35.3846 10.2529 36.6501 8.8183C37.8341 7.4777 39.0055 6.08698 40.3774 4.94058C40.6844 4.68373 40.2897 4.2828 39.9765 4.42689Z" fill="#3F3F3F"/>
<path d="M43.3342 6.35035C42.6012 6.8014 42.0061 7.42158 41.3859 8.01044C40.7407 8.6181 40.1267 9.26335 39.5066 9.90233C38.2599 11.174 37.0258 12.452 35.7917 13.7299C33.3235 16.2858 30.8741 18.8668 28.4309 21.4478C23.5446 26.6035 18.6395 31.7403 13.5653 36.7143C10.6899 39.5334 7.7456 42.2647 4.82008 45.0336C4.61962 45.2215 4.89525 45.5911 5.12077 45.422C10.74 41.0995 15.8143 36.0879 20.782 31.045C25.7936 25.9582 30.6674 20.7336 35.5975 15.5654C36.9632 14.1308 38.3414 12.7088 39.7321 11.293C40.4525 10.5601 41.1792 9.83967 41.8933 9.10673C42.5824 8.4051 43.3154 7.70348 43.8478 6.8703C44.0483 6.55081 43.6474 6.15615 43.3342 6.35035Z" fill="#3F3F3F"/>
<path d="M47.3057 9.65679C44.8438 12.2252 42.4507 14.8626 40.0013 17.4373C37.5519 20.0183 35.0774 22.5742 32.5904 25.1175C27.6603 30.1479 22.6612 35.1157 17.5995 40.0145C14.7366 42.7834 11.8362 45.5147 9.06101 48.3776C8.82922 48.6156 9.17377 48.9477 9.42435 48.7409C14.8682 44.1679 19.9299 39.1124 25.0041 34.1322C30.0283 29.1957 34.9647 24.1653 39.8322 19.0723C42.5823 16.1969 45.37 13.3278 48.0136 10.3521C48.4271 9.88856 47.7505 9.19321 47.3057 9.65679Z" fill="#3F3F3F"/>
<path d="M50.5822 14.6574C45.4954 19.7943 40.3961 24.9249 35.3093 30.0618C30.3291 35.0859 25.4114 40.1664 20.3122 45.0715C18.9026 46.4247 17.4806 47.7715 16.0398 49.0933C14.6052 50.4151 13.0829 51.6492 11.805 53.1214C11.7549 53.1778 11.8175 53.2655 11.8864 53.2279C13.3774 52.3947 14.6553 51.2922 15.9583 50.1896C17.2927 49.0557 18.6019 47.9031 19.8862 46.7191C22.4609 44.3574 24.9541 41.908 27.4411 39.4523C32.5718 34.3843 37.6961 29.3163 42.7578 24.1794C45.6332 21.2665 48.4334 18.2846 51.2525 15.3215C51.6722 14.883 51.0144 14.2189 50.5822 14.6574Z" fill="#3F3F3F"/>
<path d="M54.2343 20.6521C54.1404 20.7398 53.9587 20.7962 53.8459 20.8839C53.6705 21.0154 53.5139 21.1658 53.351 21.3161C53.0817 21.5604 52.8186 21.811 52.5492 22.0553C51.9102 22.6505 51.265 23.2456 50.626 23.8407C49.4357 24.9433 48.2455 26.0521 47.0552 27.1546C44.6685 29.3597 42.3005 31.5711 39.9388 33.8012C35.1652 38.3054 30.423 42.8409 25.662 47.3639C24.3277 48.6356 22.9871 49.901 21.6653 51.1852C20.3372 52.4757 19.1094 53.8351 17.8377 55.1757C17.7437 55.2759 17.8815 55.4075 17.988 55.3198C19.3035 54.236 20.6441 53.1961 21.9158 52.0497C23.1249 50.9659 24.3214 49.8696 25.5179 48.7671C27.911 46.5683 30.2977 44.3694 32.6908 42.1769C37.5269 37.7353 42.3694 33.3001 47.1429 28.7897C48.4835 27.5242 49.8241 26.2588 51.1647 24.9934C51.8037 24.392 52.4427 23.7906 53.0817 23.1892C53.4012 22.8885 53.7144 22.5941 54.0339 22.2934C54.1905 22.143 54.3596 21.9989 54.5037 21.8423C54.6478 21.692 54.7543 21.4539 54.8984 21.3161C55.3494 20.9026 54.6791 20.2386 54.2343 20.6521Z" fill="#3F3F3F"/>
<path d="M55.5876 26.3092C53.4013 27.8816 51.5032 29.9238 49.5737 31.7906C47.4813 33.8203 45.3953 35.8501 43.2967 37.8735C39.1245 41.889 34.9398 45.8983 30.7928 49.9326C29.6276 51.0665 28.4749 52.2004 27.316 53.3405C26.1821 54.4556 24.9981 55.5644 24.096 56.8799C24.0459 56.9551 24.1461 57.0491 24.2213 57.0052C25.4303 56.2535 26.4515 55.2637 27.5039 54.3052C28.5939 53.3092 29.6714 52.3006 30.7426 51.2858C32.835 49.3124 34.9211 47.3266 37.0009 45.3407C41.2231 41.3189 45.4454 37.3034 49.6802 33.3004C50.8579 32.1853 52.0419 31.0702 53.2071 29.9426C54.2031 28.9779 55.4686 27.9255 55.9823 26.6037C56.0762 26.4032 55.7755 26.1714 55.5876 26.3092Z" fill="#3F3F3F"/>
<path d="M55.6563 34.29C54.7354 34.4216 54.0212 35.3174 53.3635 35.9251C52.6368 36.5954 51.9039 37.2719 51.1772 37.9422C49.6674 39.3392 48.1765 40.7612 46.6793 42.1708C43.7412 44.9459 40.822 47.7399 37.8839 50.5151C36.2113 52.0937 34.4009 53.6035 32.9037 55.3513C32.7282 55.558 32.9663 55.9401 33.2169 55.7522C34.8268 54.5619 36.2614 53.1148 37.7398 51.7742C39.2371 50.4148 40.7343 49.0554 42.2377 47.7023C45.2948 44.9459 48.3519 42.1896 51.3839 39.4019C52.2233 38.6313 53.0503 37.8483 53.8897 37.0777C54.2906 36.7019 54.6916 36.326 55.0862 35.9376C55.5059 35.5304 55.8567 35.2172 55.9883 34.6221C56.0322 34.4028 55.863 34.265 55.6563 34.29Z" fill="#3F3F3F"/>
<path d="M52.7934 42.1468C52.6744 41.9839 52.4739 41.8586 52.2609 41.9275C52.2484 41.9338 52.2296 41.9401 52.2171 41.9401C52.1106 41.9776 52.0291 42.0465 51.9728 42.128C51.6345 42.4913 51.2398 42.8171 50.889 43.1679C50.4505 43.6001 50.0182 44.0387 49.5797 44.4709C48.6839 45.3667 47.7818 46.2563 46.8985 47.1584C46.034 48.0354 45.1695 48.9124 44.3113 49.7957C43.8853 50.2405 43.4405 50.6728 43.0333 51.1301C42.6449 51.5686 42.1688 52.0259 41.937 52.5709C41.8807 52.6962 41.9746 52.9092 42.1438 52.8403C42.6825 52.6147 43.121 52.1825 43.5595 51.8066C44.0795 51.3681 44.5681 50.8795 45.063 50.4096C46.034 49.495 46.9925 48.5616 47.951 47.6407C48.9157 46.7136 49.8616 45.7739 50.8138 44.8405C51.3025 44.3644 51.7911 43.882 52.2797 43.4059C52.6055 43.0927 53.1505 42.6354 52.7934 42.1468Z" fill="#3F3F3F"/>
</svg>
