<svg width="13" height="12" viewBox="0 0 13 12" fill="none" xmlns="http://www.w3.org/2000/svg">
<g clip-path="url(#clip0_1279_19183)">
<path d="M6.16663 9.5V4.5H2.66663V9.5H6.16663ZM6.16663 3.5V2C6.16663 1.86739 6.2193 1.74021 6.31307 1.64645C6.40684 1.55268 6.53402 1.5 6.66663 1.5H11.1666C11.2992 1.5 11.4264 1.55268 11.5202 1.64645C11.6139 1.74021 11.6666 1.86739 11.6666 2V10C11.6666 10.1326 11.6139 10.2598 11.5202 10.3536C11.4264 10.4473 11.2992 10.5 11.1666 10.5H2.16663C2.03402 10.5 1.90684 10.4473 1.81307 10.3536C1.7193 10.2598 1.66663 10.1326 1.66663 10V4C1.66663 3.86739 1.7193 3.74021 1.81307 3.64645C1.90684 3.55268 2.03402 3.5 2.16663 3.5H6.16663ZM7.16663 2.5V9.5H10.6666V2.5H7.16663ZM3.16663 8H5.66663V9H3.16663V8ZM7.66663 8H10.1666V9H7.66663V8ZM7.66663 6.5H10.1666V7.5H7.66663V6.5ZM7.66663 5H10.1666V6H7.66663V5ZM3.16663 6.5H5.66663V7.5H3.16663V6.5Z" fill="white"/>
</g>
<defs>
<clipPath id="clip0_1279_19183">
<rect width="12" height="12" fill="white" transform="translate(0.666626)"/>
</clipPath>
</defs>
</svg>
