<svg width="13" height="12" viewBox="0 0 13 12" fill="none" xmlns="http://www.w3.org/2000/svg">
<g clip-path="url(#clip0_1279_19170)">
<path d="M6.66663 10C7.72749 10 8.74491 9.57857 9.49505 8.82843C10.2452 8.07828 10.6666 7.06087 10.6666 6C10.6666 4.93913 10.2452 3.92172 9.49505 3.17157C8.74491 2.42143 7.72749 2 6.66663 2C5.60576 2 4.58834 2.42143 3.8382 3.17157C3.08805 3.92172 2.66663 4.93913 2.66663 6C2.66663 7.06087 3.08805 8.07828 3.8382 8.82843C4.58834 9.57857 5.60576 10 6.66663 10ZM6.66663 11C3.90513 11 1.66663 8.7615 1.66663 6C1.66663 3.2385 3.90513 1 6.66663 1C9.42813 1 11.6666 3.2385 11.6666 6C11.6666 8.7615 9.42813 11 6.66663 11ZM6.66663 8C7.19706 8 7.70577 7.78929 8.08084 7.41421C8.45591 7.03914 8.66663 6.53043 8.66663 6C8.66663 5.46957 8.45591 4.96086 8.08084 4.58579C7.70577 4.21071 7.19706 4 6.66663 4C6.13619 4 5.62749 4.21071 5.25241 4.58579C4.87734 4.96086 4.66663 5.46957 4.66663 6C4.66663 6.53043 4.87734 7.03914 5.25241 7.41421C5.62749 7.78929 6.13619 8 6.66663 8ZM6.66663 9C5.87098 9 5.10791 8.68393 4.54531 8.12132C3.9827 7.55871 3.66663 6.79565 3.66663 6C3.66663 5.20435 3.9827 4.44129 4.54531 3.87868C5.10791 3.31607 5.87098 3 6.66663 3C7.46228 3 8.22534 3.31607 8.78795 3.87868C9.35056 4.44129 9.66663 5.20435 9.66663 6C9.66663 6.79565 9.35056 7.55871 8.78795 8.12132C8.22534 8.68393 7.46228 9 6.66663 9ZM6.66663 7C6.40141 7 6.14706 6.89464 5.95952 6.70711C5.77198 6.51957 5.66663 6.26522 5.66663 6C5.66663 5.73478 5.77198 5.48043 5.95952 5.29289C6.14706 5.10536 6.40141 5 6.66663 5C6.93184 5 7.1862 5.10536 7.37373 5.29289C7.56127 5.48043 7.66663 5.73478 7.66663 6C7.66663 6.26522 7.56127 6.51957 7.37373 6.70711C7.1862 6.89464 6.93184 7 6.66663 7Z" fill="white"/>
</g>
<defs>
<clipPath id="clip0_1279_19170">
<rect width="12" height="12" fill="white" transform="translate(0.666626)"/>
</clipPath>
</defs>
</svg>
