<svg width="1440" height="866" viewBox="0 0 1440 866" fill="none" xmlns="http://www.w3.org/2000/svg">
<path d="M1190.44 366.041C1191.52 366.255 1192.18 367.323 1191.96 368.463C1191.74 369.532 1190.65 370.173 1189.56 369.959C1188.48 369.745 1187.82 368.677 1188.04 367.537C1188.26 366.468 1189.35 365.827 1190.44 366.041Z" fill="#A4A3F4" fill-opacity="0.2"/>
<path d="M1234.46 377.041C1235.51 377.253 1236.22 378.387 1235.94 379.449C1235.73 380.512 1234.6 381.221 1233.54 380.937C1232.49 380.725 1231.78 379.591 1232.06 378.528C1232.34 377.466 1233.4 376.828 1234.46 377.041Z" fill="#A4A3F4" fill-opacity="0.2"/>
<path d="M1157.46 353.039C1158.51 353.315 1159.22 354.347 1158.94 355.449C1158.66 356.481 1157.6 357.17 1156.54 356.963C1155.49 356.688 1154.78 355.655 1155.06 354.554C1155.27 353.452 1156.33 352.833 1157.46 353.039Z" fill="#A4A3F4" fill-opacity="0.2"/>
<path d="M1201.45 460.039C1202.55 460.315 1203.17 461.346 1202.96 462.447C1202.69 463.548 1201.65 464.167 1200.55 463.961C1199.45 463.685 1198.83 462.654 1199.04 461.553C1199.31 460.452 1200.42 459.833 1201.45 460.039Z" fill="#A4A3F4" fill-opacity="0.2"/>
<path d="M1213.07 548.067C1214.37 548.391 1215.26 549.687 1214.93 551.065C1214.61 552.443 1213.31 553.253 1211.93 552.929C1210.63 552.605 1209.74 551.308 1210.07 549.931C1210.39 548.634 1211.69 547.743 1213.07 548.067Z" fill="#A4A3F4" fill-opacity="0.2"/>
<path d="M1208.43 419.062C1209.52 419.367 1210.19 420.738 1209.95 422.033C1209.71 423.404 1208.61 424.242 1207.57 423.938C1206.48 423.633 1205.81 422.262 1206.05 420.967C1206.29 419.596 1207.39 418.758 1208.43 419.062Z" fill="#A4A3F4" fill-opacity="0.2"/>
<path d="M1178.03 519.064C1179.38 519.4 1180.23 520.993 1179.95 522.671C1179.66 524.264 1178.32 525.271 1176.97 524.936C1175.62 524.6 1174.77 523.006 1175.05 521.329C1175.34 519.735 1176.68 518.729 1178.03 519.064Z" fill="#A4A3F4" fill-opacity="0.2"/>
<path d="M1095.65 613.061C1097.28 613.462 1098.26 615.066 1097.94 616.669C1097.53 618.273 1095.98 619.315 1094.35 618.914C1092.72 618.513 1091.74 616.91 1092.06 615.306C1092.47 613.703 1094.02 612.741 1095.65 613.061Z" fill="#A4A3F4" fill-opacity="0.2"/>
<path d="M1315.68 377.071C1317.28 377.404 1318.31 378.735 1317.91 380.066C1317.52 381.396 1315.92 382.261 1314.32 381.929C1312.72 381.596 1311.69 380.265 1312.09 378.934C1312.48 377.604 1314.08 376.739 1315.68 377.071Z" fill="#A4A3F4" fill-opacity="0.2"/>
<path d="M1199.05 354.047C1200.41 354.373 1201.25 355.74 1200.93 357.042C1200.61 358.409 1199.31 359.256 1197.95 358.93C1196.59 358.605 1195.75 357.237 1196.07 355.935C1196.33 354.633 1197.69 353.787 1199.05 354.047Z" fill="#A4A3F4" fill-opacity="0.2"/>
<path d="M1242.66 584.069C1244.29 584.393 1245.31 585.755 1244.92 587.051C1244.53 588.412 1242.97 589.255 1241.34 588.931C1239.71 588.607 1238.69 587.245 1239.08 585.949C1239.47 584.588 1241.11 583.745 1242.66 584.069Z" fill="#A4A3F4" fill-opacity="0.2"/>
<path d="M1104.67 401.079C1106.32 401.449 1107.29 403.076 1106.92 404.703C1106.55 406.329 1104.9 407.291 1103.33 406.921C1101.68 406.551 1100.71 404.924 1101.08 403.297C1101.45 401.671 1103.1 400.709 1104.67 401.079Z" fill="#A4A3F4" fill-opacity="0.2"/>
<path opacity="0.2229" d="M1157 355L1189.8 368.196L1234 379L1157 355Z" fill="#A4A3F4" fill-opacity="0.2"/>
<path opacity="0.2229" d="M1157 355L1189.8 368.196L1234 379L1157 355Z" fill="#A4A3F4" fill-opacity="0.2"/>
<path opacity="0.01003" d="M1157 354.819L1292 342L1189.79 368L1157 354.819Z" fill="#A4A3F4" fill-opacity="0.2"/>
<path opacity="0.1408" d="M1157 355L1200.98 462L1234 379.459L1157 355Z" fill="#A4A3F4" fill-opacity="0.2"/>
<path opacity="0.185" d="M1157 355.071L1292 342L1200.96 462L1157 355.071Z" fill="#A4A3F4" fill-opacity="0.2"/>
<path opacity="0.185" d="M1157 355.071L1292 342L1200.96 462L1157 355.071Z" fill="#A4A3F4" fill-opacity="0.2"/>
<path opacity="0.2003" d="M1198.54 356.657L1142 333L1242 586L1198.54 356.657Z" fill="#A4A3F4" fill-opacity="0.2"/>
<path opacity="0.2003" d="M1198.54 356.657L1142 333L1242 586L1198.54 356.657Z" fill="#A4A3F4" fill-opacity="0.2"/>
<path opacity="0.1573" d="M1104 404L1199 356.496L1141.7 333L1104 404Z" fill="#A4A3F4" fill-opacity="0.2"/>
<path d="M1234.14 379.571L1189.93 368.556C1189.86 368.556 1189.78 368.482 1189.78 368.334C1189.78 368.26 1189.86 368.186 1190.01 368.186L1234.14 379.201C1234.22 379.201 1234.29 379.275 1234.29 379.423C1234.29 379.497 1234.22 379.571 1234.14 379.571Z" fill="#A4A3F4" fill-opacity="0.2"/>
<g opacity="0.2985">
<path d="M1190.01 368.556C1189.93 368.556 1189.93 368.556 1190.01 368.556L1157.26 355.175C1157.18 355.175 1157.11 355.027 1157.18 354.953C1157.18 354.879 1157.33 354.805 1157.4 354.879L1190.08 368.26C1190.15 368.26 1190.23 368.408 1190.15 368.482C1190.08 368.482 1190.01 368.556 1190.01 368.556Z" fill="#A4A3F4" fill-opacity="0.2"/>
</g>
<g opacity="0.5587">
<path d="M1234.14 379.571L1157.26 355.175C1157.18 355.175 1157.11 355.027 1157.18 354.953C1157.18 354.879 1157.33 354.805 1157.4 354.879L1234.29 379.275C1234.36 379.275 1234.44 379.423 1234.36 379.497C1234.29 379.497 1234.22 379.571 1234.14 379.571Z" fill="#A4A3F4" fill-opacity="0.2"/>
</g>
<g opacity="0.056139">
<path d="M1201.17 462.223C1201.02 462.149 1201.02 462.075 1201.02 462.001L1233.99 379.35C1233.99 379.276 1234.14 379.202 1234.22 379.276C1234.29 379.276 1234.36 379.424 1234.29 379.498L1201.32 462.149C1201.24 462.149 1201.24 462.223 1201.17 462.223Z" fill="#A4A3F4" fill-opacity="0.2"/>
</g>
<g opacity="0.7928">
<path d="M1201.17 462.222C1201.1 462.222 1201.02 462.222 1201.02 462.148L1157.18 355.101C1157.18 355.027 1157.18 354.953 1157.26 354.879C1157.33 354.879 1157.4 354.879 1157.48 354.953L1201.32 462C1201.32 462.074 1201.32 462.148 1201.17 462.222Z" fill="#A4A3F4" fill-opacity="0.2"/>
</g>
<g opacity="0.4878">
<path d="M1157.26 355.101C1157.18 355.101 1157.11 355.027 1157.11 354.953C1157.11 354.879 1157.18 354.805 1157.26 354.805L1292.1 341.72C1292.17 341.72 1292.25 341.794 1292.25 341.868C1292.25 341.942 1292.17 342.016 1292.1 342.016L1157.26 355.101Z" fill="#A4A3F4" fill-opacity="0.2"/>
</g>
<g opacity="0.5698">
<path d="M1201.17 462.222H1201.1C1201.02 462.148 1201.02 462.075 1201.1 462.001L1292.1 341.868C1292.17 341.794 1292.25 341.794 1292.32 341.868C1292.4 341.942 1292.4 342.016 1292.32 342.09L1201.32 462.222C1201.24 462.148 1201.17 462.222 1201.17 462.222Z" fill="#A4A3F4" fill-opacity="0.2"/>
</g>
<g opacity="0.297">
<path d="M1212.41 550.492L1025.15 510.423C1025.07 510.423 1025 510.349 1025 510.275C1025 510.201 1025.07 510.127 1025.15 510.127L1212.41 550.196C1212.48 550.196 1212.55 550.27 1212.55 550.344C1212.55 550.492 1212.48 550.492 1212.41 550.492Z" fill="#A4A3F4" fill-opacity="0.2"/>
</g>
<g opacity="0.4264">
<path d="M1034.91 442.336C1034.83 442.336 1034.76 442.262 1034.76 442.188C1034.76 442.114 1034.83 442.04 1034.91 442.04L1208.05 421.34C1208.12 421.34 1208.19 421.414 1208.19 421.488C1208.19 421.562 1208.12 421.636 1208.05 421.636L1034.91 442.336Z" fill="#A4A3F4" fill-opacity="0.2"/>
</g>
<g opacity="0.5685">
<path d="M1314.94 379.793H1314.87C1314.8 379.719 1314.8 379.645 1314.8 379.571L1417.7 219.074C1417.78 219 1417.85 219 1417.93 219C1418 219.074 1418 219.148 1418 219.222L1315.09 379.719C1315.02 379.719 1315.02 379.793 1314.94 379.793Z" fill="#A4A3F4" fill-opacity="0.2"/>
</g>
<g opacity="0.0272">
<path d="M1094.94 616.362C1094.86 616.362 1094.79 616.288 1094.79 616.214C1094.79 616.14 1094.86 616.066 1094.94 616.066L1242.27 586.421C1242.35 586.421 1242.42 586.495 1242.42 586.569C1242.42 586.643 1242.35 586.717 1242.27 586.717L1094.94 616.362Z" fill="#A4A3F4" fill-opacity="0.2"/>
</g>
<g opacity="0.351">
<path d="M1314.94 379.793L1198.51 356.653C1198.43 356.653 1198.36 356.579 1198.36 356.505C1198.36 356.431 1198.43 356.357 1198.51 356.357L1314.87 379.497C1314.94 379.497 1315.02 379.571 1315.02 379.645C1315.09 379.719 1315.02 379.793 1314.94 379.793Z" fill="#A4A3F4" fill-opacity="0.2"/>
</g>
<g opacity="0.01">
<path d="M1314.94 379.793L1141.66 332.849C1141.58 332.849 1141.51 332.775 1141.58 332.627C1141.58 332.553 1141.66 332.479 1141.81 332.553L1315.02 379.497C1315.09 379.497 1315.17 379.571 1315.09 379.719C1315.09 379.719 1315.02 379.793 1314.94 379.793Z" fill="#A4A3F4" fill-opacity="0.2"/>
</g>
<g opacity="0.3619">
<path d="M1242.27 586.643C1242.2 586.643 1242.13 586.569 1242.13 586.495L1198.43 356.432C1198.43 356.358 1198.51 356.284 1198.58 356.284C1198.66 356.284 1198.73 356.358 1198.73 356.432L1242.42 586.495C1242.42 586.569 1242.35 586.643 1242.27 586.643Z" fill="#A4A3F4" fill-opacity="0.2"/>
</g>
<path d="M1198.58 356.579L1141.66 332.775C1141.58 332.775 1141.51 332.627 1141.58 332.553C1141.58 332.479 1141.73 332.405 1141.81 332.479L1198.66 356.21C1198.73 356.21 1198.8 356.358 1198.73 356.431C1198.73 356.579 1198.66 356.579 1198.58 356.579Z" fill="#A4A3F4" fill-opacity="0.2"/>
<g opacity="0.087997">
<path d="M1242.27 586.643C1242.2 586.643 1242.13 586.569 1242.13 586.569L1141.58 332.701C1141.58 332.627 1141.58 332.553 1141.66 332.479C1141.73 332.479 1141.81 332.479 1141.88 332.553L1242.42 586.421C1242.42 586.569 1242.42 586.643 1242.27 586.643Z" fill="#A4A3F4" fill-opacity="0.2"/>
</g>
<g opacity="0.01">
<path d="M1198.58 356.579C1198.51 356.579 1198.43 356.505 1198.43 356.431C1198.43 356.357 1198.51 356.284 1198.58 356.284L1410.09 330.557C1410.16 330.557 1410.24 330.631 1410.24 330.705C1410.24 330.778 1410.16 330.852 1410.09 330.852L1198.58 356.579Z" fill="#A4A3F4" fill-opacity="0.2"/>
</g>
<g opacity="0.090279">
<path d="M1104.32 404.558C1104.18 404.484 1104.18 404.411 1104.18 404.337L1141.51 332.627C1141.58 332.553 1141.66 332.553 1141.73 332.553C1141.81 332.627 1141.81 332.701 1141.81 332.775L1104.47 404.484C1104.47 404.558 1104.4 404.558 1104.32 404.558Z" fill="#A4A3F4" fill-opacity="0.2"/>
</g>
<g opacity="0.3259">
<path d="M1104.32 404.559C1104.25 404.559 1104.18 404.559 1104.18 404.485L1056.42 301.06C1056.42 300.986 1056.42 300.912 1056.49 300.838C1056.57 300.838 1056.64 300.838 1056.72 300.912L1104.47 404.337C1104.55 404.411 1104.47 404.485 1104.32 404.559C1104.4 404.559 1104.4 404.559 1104.32 404.559Z" fill="#A4A3F4" fill-opacity="0.2"/>
</g>
<path d="M143.464 315.464C144.981 315.843 145.929 317.361 145.645 318.878C145.266 320.395 143.748 321.438 142.231 321.059C140.714 320.68 139.766 319.162 140.05 317.645C140.335 316.033 141.947 315.085 143.464 315.464Z" fill="#A4A3F4" fill-opacity="0.25"/>
<path d="M259.434 412.753C261.046 413.133 261.994 414.65 261.615 416.262C261.236 417.874 259.718 418.822 258.106 418.443C256.494 418.063 255.546 416.546 255.926 414.934C256.305 413.322 257.822 412.374 259.434 412.753Z" fill="#A4A3F4" fill-opacity="0.25"/>
<path d="M149.533 409.246C151.145 409.625 152.188 411.237 151.809 412.849C151.429 414.461 149.817 415.504 148.205 415.125C146.593 414.745 145.55 413.133 145.93 411.521C146.404 409.815 147.921 408.866 149.533 409.246Z" fill="#A4A3F4" fill-opacity="0.25"/>
<path d="M221.22 226.234C222.832 226.614 223.875 228.226 223.496 229.933C223.117 231.545 221.505 232.588 219.798 232.208C218.186 231.829 217.143 230.217 217.522 228.51C217.901 226.803 219.513 225.855 221.22 226.234Z" fill="#A4A3F4" fill-opacity="0.25"/>
<path d="M230.323 261.604C232.03 261.983 233.073 263.69 232.694 265.397C232.314 267.104 230.607 268.147 228.901 267.768C227.194 267.388 226.151 265.682 226.53 263.975C226.909 262.268 228.616 261.225 230.323 261.604Z" fill="#A4A3F4" fill-opacity="0.25"/>
<path opacity="0.01" d="M220.461 229.173L295.467 129.229L271.287 169.15L220.461 229.173Z" fill="#A4A3F4" fill-opacity="0.25"/>
<path opacity="0.1797" d="M142.8 318.213L301.347 372.737L175.23 530.81L142.8 318.213Z" fill="#A4A3F4" fill-opacity="0.25"/>
<path opacity="0.1155" d="M258.77 415.598L142.8 318.213L175.23 530.81L258.77 415.598Z" fill="#A4A3F4" fill-opacity="0.25"/>
<path opacity="0.2204" d="M258.77 415.598L142.8 318.213L301.347 372.737L258.77 415.598Z" fill="#A4A3F4" fill-opacity="0.25"/>
<path opacity="0.1469" d="M148.869 412.089L258.77 415.598L301.347 372.737L148.869 412.089Z" fill="#A4A3F4" fill-opacity="0.25"/>
<path opacity="0.038312" d="M220.461 229.174L148.869 412.09L258.77 415.599L220.461 229.174Z" fill="#A4A3F4" fill-opacity="0.25"/>
<path opacity="0.3" d="M220.461 229.173L295.467 129.229L271.287 169.15L220.461 229.173Z" fill="#A4A3F4" fill-opacity="0.25"/>
<path opacity="0.3" d="M220.461 229.173L295.467 129.229L271.287 169.15L220.461 229.173Z" fill="#A4A3F4" fill-opacity="0.25"/>
<path opacity="0.3" d="M220.461 229.173L295.467 129.229L271.287 169.15L220.461 229.173Z" fill="#A4A3F4" fill-opacity="0.25"/>
<path opacity="0.1576" d="M229.565 264.732L220.461 229.173L295.467 129.229L229.565 264.732Z" fill="#A4A3F4" fill-opacity="0.25"/>
<g opacity="0.4709">
<path d="M175.23 531C175.135 531 175.04 530.905 175.04 530.81L142.61 318.214C142.61 318.119 142.705 318.024 142.8 318.024C142.895 318.024 142.99 318.119 142.99 318.214L175.42 530.81C175.42 530.905 175.42 531 175.23 531Z" fill="#A4A3F4" fill-opacity="0.25"/>
</g>
<g opacity="0.5091">
<path d="M175.23 531H175.135C175.04 530.905 175.04 530.81 175.135 530.715L301.252 372.643C301.346 372.548 301.441 372.548 301.536 372.643C301.631 372.738 301.631 372.833 301.536 372.927L175.42 531C175.325 531 175.325 531 175.23 531Z" fill="#A4A3F4" fill-opacity="0.25"/>
</g>
<g opacity="0.8169">
<path d="M301.346 372.927L142.705 318.403C142.61 318.403 142.516 318.214 142.61 318.119C142.61 318.024 142.8 317.929 142.895 318.024L301.441 372.548C301.536 372.548 301.631 372.738 301.536 372.833C301.536 372.927 301.441 372.927 301.346 372.927Z" fill="#A4A3F4" fill-opacity="0.25"/>
</g>
<g opacity="0.2431">
<path d="M175.23 531H175.135C175.04 530.905 175.04 530.81 175.135 530.715L258.676 415.504C258.77 415.409 258.865 415.409 258.96 415.504C259.055 415.599 259.055 415.693 258.96 415.788L175.42 531C175.325 531 175.325 531 175.23 531Z" fill="#A4A3F4" fill-opacity="0.25"/>
</g>
<g opacity="0.4408">
<path d="M258.77 415.788H258.675L142.705 318.403C142.61 318.309 142.61 318.214 142.705 318.119C142.8 318.024 142.895 318.024 142.99 318.119L258.96 415.504C259.055 415.598 259.055 415.693 258.96 415.788C258.865 415.788 258.865 415.788 258.77 415.788Z" fill="#A4A3F4" fill-opacity="0.25"/>
</g>
<g opacity="0.9466">
<path d="M258.77 415.788C258.676 415.788 258.676 415.788 258.676 415.693C258.581 415.598 258.581 415.504 258.676 415.409L301.252 372.548C301.347 372.453 301.441 372.453 301.536 372.548C301.631 372.643 301.631 372.738 301.536 372.833L258.96 415.693C258.865 415.788 258.865 415.788 258.77 415.788Z" fill="#A4A3F4" fill-opacity="0.25"/>
</g>
<g opacity="0.7588">
<path d="M258.77 415.788L148.869 412.374C148.774 412.374 148.679 412.28 148.679 412.185C148.679 412.09 148.774 411.995 148.869 411.995L258.77 415.409C258.865 415.409 258.96 415.504 258.96 415.598C258.96 415.693 258.865 415.788 258.77 415.788Z" fill="#A4A3F4" fill-opacity="0.25"/>
</g>
<g opacity="0.1491">
<path d="M148.869 412.28C148.679 412.185 148.679 412.09 148.679 411.995L271.097 169.055C271.192 168.961 271.287 168.96 271.382 168.96C271.477 169.055 271.477 169.15 271.477 169.245L149.058 412.28C149.058 412.28 148.964 412.28 148.869 412.28Z" fill="#A4A3F4" fill-opacity="0.25"/>
</g>
<g opacity="0.2005">
<path d="M148.869 412.28C148.679 412.185 148.679 412.09 148.679 411.996L220.272 229.079C220.272 228.985 220.461 228.89 220.556 228.985C220.651 228.985 220.746 229.174 220.651 229.269L149.058 412.185C149.058 412.28 148.964 412.28 148.869 412.28Z" fill="#A4A3F4" fill-opacity="0.25"/>
</g>
<g opacity="0.991">
<path d="M220.461 229.363C220.461 229.363 220.366 229.363 220.366 229.269C220.271 229.174 220.271 229.079 220.366 228.984L271.192 168.96C271.287 168.865 271.382 168.865 271.477 168.96C271.571 169.055 271.571 169.15 271.477 169.245L220.651 229.269C220.556 229.363 220.556 229.363 220.461 229.363Z" fill="#A4A3F4" fill-opacity="0.25"/>
</g>
<path d="M220.461 229.363H220.366C220.271 229.269 220.271 229.174 220.366 229.079L295.277 129.134C295.372 129.039 295.467 129.039 295.562 129.134C295.657 129.229 295.657 129.324 295.562 129.419L220.651 229.363C220.651 229.363 220.556 229.363 220.461 229.363Z" fill="#A4A3F4" fill-opacity="0.25"/>
<g opacity="0.2279">
<path d="M229.564 264.923C229.469 264.923 229.375 264.828 229.375 264.733L220.271 229.174C220.271 229.079 220.271 228.984 220.366 228.89C220.461 228.89 220.556 228.89 220.651 229.079L229.754 264.638C229.754 264.733 229.754 264.828 229.564 264.923Z" fill="#A4A3F4" fill-opacity="0.25"/>
</g>
<g opacity="0.1936">
<path d="M229.564 264.923C229.375 264.828 229.375 264.733 229.375 264.638L295.278 129.134C295.278 129.039 295.467 128.944 295.562 129.039C295.657 129.039 295.657 129.229 295.657 129.324L229.754 264.828C229.754 264.828 229.659 264.923 229.564 264.923Z" fill="#A4A3F4" fill-opacity="0.25"/>
</g>
</svg>
