<svg width="14" height="17" viewBox="0 0 14 17" fill="none" xmlns="http://www.w3.org/2000/svg">
<path d="M7 16.5577L2.227 11.7847C1.28301 10.8407 0.64014 9.63792 0.379696 8.32855C0.119253 7.01918 0.25293 5.66198 0.763824 4.42859C1.27472 3.19519 2.13988 2.14099 3.24991 1.39929C4.35994 0.657597 5.66498 0.261719 7 0.261719C8.33502 0.261719 9.64006 0.657597 10.7501 1.39929C11.8601 2.14099 12.7253 3.19519 13.2362 4.42859C13.7471 5.66198 13.8808 7.01918 13.6203 8.32855C13.3599 9.63792 12.717 10.8407 11.773 11.7847L7 16.5577ZM10.7125 10.7242C11.4467 9.98991 11.9466 9.05445 12.1492 8.03607C12.3517 7.01768 12.2477 5.96211 11.8503 5.00283C11.4529 4.04355 10.78 3.22364 9.91669 2.64679C9.05334 2.06993 8.03833 1.76204 7 1.76204C5.96167 1.76204 4.94666 2.06993 4.08332 2.64679C3.21997 3.22364 2.54706 4.04355 2.14969 5.00283C1.75231 5.96211 1.64831 7.01768 1.85084 8.03607C2.05337 9.05445 2.55333 9.98991 3.2875 10.7242L7 14.4367L10.7125 10.7242ZM7 8.51166C6.60218 8.51166 6.22065 8.35363 5.93934 8.07232C5.65804 7.79102 5.5 7.40949 5.5 7.01166C5.5 6.61384 5.65804 6.23231 5.93934 5.951C6.22065 5.6697 6.60218 5.51166 7 5.51166C7.39783 5.51166 7.77936 5.6697 8.06066 5.951C8.34197 6.23231 8.5 6.61384 8.5 7.01166C8.5 7.40949 8.34197 7.79102 8.06066 8.07232C7.77936 8.35363 7.39783 8.51166 7 8.51166Z" fill="#888888"/>
</svg>
