<svg width="56" height="54" viewBox="0 0 56 54" fill="none" xmlns="http://www.w3.org/2000/svg">
<path d="M55.6684 20.3844C55.1428 16.6582 53.7256 12.7489 50.7552 10.3219C48.9541 8.85149 46.781 8.32003 44.7083 8.79835C44.0587 7.34566 43.2733 5.96384 42.3167 4.70012C41.236 3.27695 39.9368 1.81835 38.3306 1.02115C36.8012 0.259371 35.0827 0.300712 33.7009 1.35775C33.0572 1.85379 32.5435 2.48565 32.1301 3.18838C31.8526 3.02893 31.5809 2.86949 31.2975 2.72186C29.461 1.79474 27.152 1.04477 25.0852 1.28689C24.595 1.04477 23.975 0.985725 23.473 0.920767C22.5459 0.796757 21.6129 0.784949 20.6858 0.867622C12.8259 1.59397 7.62337 8.13106 3.54876 14.3198C3.42475 14.5087 3.72001 14.68 3.84402 14.4969C8.29657 8.10743 14.6093 0.507393 23.2427 1.55852C23.3904 1.57624 23.5557 1.59396 23.7152 1.61758C22.9888 1.90103 22.3215 2.36165 21.7428 3.02894C18.985 3.02304 16.2214 3.89701 14.0542 5.64496C11.5917 7.63502 9.96775 10.6054 8.63907 13.558C7.36944 13.4162 5.97582 13.5875 5.03098 14.426C3.73773 15.5658 3.50153 17.7507 3.34209 19.3746C3.17674 21.034 3.2535 22.717 3.50152 24.3646C1.05085 27.7955 -0.44318 31.8819 0.117817 36.0451C0.57252 39.4524 2.72202 42.1452 5.81637 43.468C6.54271 43.781 7.29268 44.0113 8.04855 44.1884C8.50325 45.0565 9.09378 45.8655 9.83194 46.5741C12.1763 48.8122 15.4301 49.7098 18.5658 49.9637C18.5953 49.9637 18.6248 49.9638 18.6485 49.9697C20.1425 51.0385 21.7133 51.9952 23.3431 52.7628C26.2308 54.121 29.768 54.6407 32.3427 52.5916C32.9923 52.6093 33.6478 52.6093 34.3032 52.568C37.8759 52.3613 41.4191 51.3633 44.4839 49.4736C47.4247 47.6548 49.834 45.0565 51.6056 42.0744C55.3554 35.7676 56.69 27.6301 55.6684 20.3844ZM52.4855 14.0363C53.5956 16.0145 54.2157 18.2526 54.5228 20.538C54.3633 19.9297 54.1803 19.3215 53.9559 18.7369C52.3733 14.6622 49.1254 11.4498 45.2397 9.70185C48.2514 9.14085 50.9855 11.3494 52.4855 14.0363ZM47.2711 42.8834C46.1905 46.0191 43.2969 48.2749 40.2262 49.1666C38.2361 49.7453 36.2992 49.7394 34.4568 49.3083C34.5749 48.7118 34.5867 48.0977 34.4509 47.4777C34.4332 47.395 34.3977 47.3182 34.38 47.2355C35.6437 46.7395 36.8897 46.1844 38.1003 45.5584C41.6612 43.7219 44.974 41.2831 47.6963 38.3009C47.8085 39.8481 47.779 41.3953 47.2711 42.8834ZM32.012 51.4755C30.1873 51.4164 28.3626 51.1448 26.5969 50.6724C25.7229 50.4362 24.8667 50.1527 24.034 49.822C25.5044 49.6508 26.9689 49.3909 28.4039 49.0602C28.9944 48.9244 29.5731 48.7768 30.1578 48.6174C30.7778 48.9658 31.4156 49.2906 32.0947 49.5681C32.4431 49.7098 32.7974 49.8338 33.1576 49.9519C32.886 50.5307 32.4844 51.0444 32.012 51.4755ZM19.1622 48.954C17.993 48.1154 16.8651 47.2178 15.7903 46.2612C15.1939 45.7297 14.6152 45.1687 14.0542 44.6018C14.1073 44.5959 14.1605 44.5959 14.2136 44.5959C14.3908 44.7671 14.5679 44.9443 14.751 45.1156C16.3572 46.6037 18.1111 47.9028 19.9771 48.9894C19.7055 48.9776 19.4338 48.9658 19.1622 48.954ZM4.84792 26.3782C4.68848 25.7405 4.55857 25.0968 4.44637 24.4531C4.72391 24.0752 5.01327 23.7032 5.31444 23.343C5.11366 24.5004 5.00146 25.6696 4.97783 26.8507C4.9365 26.6971 4.88335 26.5377 4.84792 26.3782ZM9.41267 14.4556C10.6646 14.7567 11.8338 15.4654 12.8436 16.3748C12.011 16.8531 11.1783 17.3432 10.3634 17.8629C9.25913 18.5656 8.16665 19.3982 7.12733 20.3254C7.67061 18.5066 8.37924 16.735 9.15873 15.0166C9.24141 14.8276 9.32409 14.6445 9.41267 14.4556ZM6.03488 27.6715C5.98763 25.6873 6.25335 23.7327 6.71987 21.8194C6.90884 21.6245 7.0978 21.4296 7.29268 21.2466C9.15283 19.4927 11.3023 18.2349 13.4637 16.983C14.3613 17.9279 15.1053 19.0203 15.625 20.0892C11.9814 23.8331 8.91663 28.4687 7.5289 33.5472C7.13916 32.7618 6.77303 31.9587 6.43643 31.1438C6.21203 29.9981 6.0644 28.8407 6.03488 27.6715ZM21.0342 7.70588C21.235 6.42444 21.6247 5.07214 22.4219 4.03282C23.1364 4.07416 23.851 4.17456 24.5537 4.3399C24.2939 5.00129 24.0163 5.65677 23.6856 6.29454C22.9179 7.78856 21.9613 9.18218 20.8629 10.4518C20.8511 9.52469 20.8924 8.60938 21.0342 7.70588ZM25.1147 2.47974C25.1265 2.78091 25.0025 3.11752 24.8962 3.4364C24.3884 3.30649 23.8746 3.20609 23.349 3.13523C23.8923 2.7632 24.4946 2.55651 25.1147 2.47974ZM32.5199 4.91271C33.9666 5.90479 35.2835 7.10944 36.4705 8.40269C35.189 8.57394 33.9253 8.86922 32.6911 9.26487C32.384 8.75702 32.0533 8.26098 31.6813 7.78856C31.6636 7.77084 31.6459 7.75313 31.6341 7.7295C31.8289 6.87915 32.0711 6.04061 32.3781 5.2434C32.4254 5.13711 32.4726 5.02491 32.5199 4.91271ZM13.3278 43.8341C12.3121 42.7357 11.3614 41.5783 10.4992 40.3441C11.4086 41.5665 12.3948 42.7298 13.4519 43.8282C13.4164 43.8282 13.3692 43.8282 13.3278 43.8341ZM9.66068 37.3206C9.17055 36.5411 8.69813 35.7439 8.25523 34.929C8.58002 33.5472 9.04064 32.2008 9.57211 30.9371C11.1016 27.2876 13.3869 24.0398 16.1151 21.2112C16.1801 21.3706 16.2509 21.5359 16.31 21.6954C14.3494 23.5851 12.944 26.3664 14.0306 28.9884C14.7569 30.7363 16.1269 31.7697 17.7213 32.2776C17.2548 33.7657 17.0127 35.3247 17.2784 36.8777C17.7331 39.5351 20.1248 41.9208 22.7821 41.4779C20.3905 42.8598 17.5914 43.5034 14.8455 43.7396C12.8672 41.8204 11.1311 39.6355 9.66068 37.3206ZM32.3486 10.6349C34.1615 14.2371 34.4095 18.7073 32.7915 22.469C32.7088 22.6638 32.6084 22.8469 32.514 23.0418C31.203 19.2211 30.7069 15.111 31.1026 11.1014C31.516 10.936 31.9293 10.7825 32.3486 10.6349ZM31.8289 24.3114C30.8132 25.9826 29.4905 27.453 27.9492 28.6399C27.9079 27.9963 27.8488 27.3526 27.7602 26.7148C27.5004 24.7779 27.1992 22.4749 26.0123 20.8687C25.9178 20.7446 25.8174 20.6265 25.717 20.5143C26.7859 19.3097 27.9197 18.1641 29.1303 17.1011C29.5613 16.7232 28.9354 16.0854 28.5043 16.4634C27.2819 17.5381 26.1363 18.7014 25.0616 19.9238C24.1876 19.286 23.1423 19.038 22.0676 19.0676C22.044 18.979 22.0144 18.8904 21.9967 18.7959C21.8078 18.0459 21.6483 17.2842 21.5007 16.5283C22.227 15.9968 22.9711 15.489 23.7211 15.0048C25.6757 13.741 27.7484 12.5659 29.8979 11.6092C29.5968 15.9024 30.3113 20.3254 31.8289 24.3114ZM44.2063 10.5522C45.2102 13.2391 45.6472 16.0382 45.6708 18.8609C45.3224 18.9495 44.974 19.0617 44.6492 19.1975C43.6749 16.7822 42.5056 14.4379 41.1002 12.2529C41.8147 11.4734 42.6296 10.8061 43.5567 10.3101C43.7693 10.3869 43.9878 10.4636 44.2063 10.5522ZM42.6887 33.5649C42.4347 34.2263 42.1749 34.9231 41.8501 35.5963C39.9073 34.4802 38.2302 32.7795 36.8897 31.0965C36.4232 30.5119 35.9921 29.9037 35.5847 29.2836C37.4566 26.4609 39.7656 23.7858 42.4288 21.8017C42.8954 21.4533 43.3855 21.1344 43.8933 20.8509C44.3717 22.1265 44.7968 23.4256 45.1807 24.7366C44.6551 27.766 43.7693 30.7422 42.6887 33.5649ZM45.8421 27.2227C46.1255 28.3683 46.3795 29.5198 46.598 30.6772C46.97 32.6142 47.2712 34.5629 47.5015 36.5175C47.5074 36.5707 47.5133 36.6297 47.5192 36.6829C47.0054 36.8128 46.4621 36.8837 45.8834 36.8541C44.8264 36.801 43.8166 36.5293 42.8599 36.1042C43.2497 35.2951 43.5686 34.4389 43.8756 33.6181C44.6669 31.5571 45.3342 29.4076 45.8421 27.2227ZM34.9292 30.2934C36.0394 31.9351 37.3267 33.4527 38.7971 34.7164C39.553 35.366 40.4093 35.992 41.3246 36.5175C40.858 37.2557 40.2734 37.8994 39.488 38.3068C37.8582 39.1454 35.9449 38.6493 34.4095 37.8344C33.5474 37.3797 32.7443 36.8128 31.9884 36.175C32.6025 34.3621 33.5415 32.626 34.4154 31.126C34.5867 30.8485 34.7579 30.571 34.9292 30.2934ZM45.0744 20.284C45.2693 20.2073 45.4641 20.1364 45.659 20.0774C45.6413 20.6029 45.6118 21.1344 45.5704 21.66C45.411 21.1993 45.2456 20.7387 45.0744 20.284ZM43.4682 19.7585C40.5274 21.3588 38.1239 24.1461 36.1398 26.7621C35.75 27.2699 35.3662 27.8014 34.9883 28.3388C34.504 27.5357 34.0611 26.703 33.6596 25.8527C34.7934 23.3311 35.9862 20.8391 37.25 18.3826C38.1062 16.7232 39.0274 14.8985 40.2085 13.3218C41.4899 15.3591 42.5647 17.5204 43.4682 19.7585ZM34.3091 29.3368C33.0513 31.2501 31.9293 33.311 31.1912 35.4546C30.7896 35.0708 30.4058 34.6692 30.0338 34.2558C30.5534 33.1457 31.0258 32.0059 31.4864 30.8839C32.0002 29.632 32.5376 28.386 33.0809 27.1459C33.4529 27.89 33.8662 28.6222 34.3091 29.3368ZM30.2877 30.8721C29.9511 31.6811 29.6086 32.502 29.2425 33.3169C28.8055 32.7795 28.3921 32.2244 27.9965 31.6634C28.0201 31.067 28.026 30.4706 28.0083 29.8741C29.6853 28.6754 31.1498 27.1695 32.2896 25.4511C32.3486 25.581 32.4018 25.7169 32.4608 25.8468C31.7168 27.5179 30.9904 29.1891 30.2877 30.8721ZM18.678 32.5197C18.8256 32.5492 18.9792 32.5669 19.1327 32.5846C19.9299 35.307 20.9928 38.0175 22.3865 40.4918C22.2684 40.5036 22.1503 40.5213 22.0263 40.5213C20.2901 40.4859 18.9378 38.9741 18.4241 37.3915C17.9103 35.803 18.1819 34.1023 18.678 32.5197ZM23.3136 40.2555C23.0301 39.7772 22.7585 39.2989 22.5164 38.8206C21.5125 36.8482 20.7389 34.7755 20.1011 32.6614C21.1995 32.685 22.3156 32.5197 23.3372 32.2126C24.3293 31.9114 25.28 31.504 26.1953 31.0138C26.4493 31.3977 26.7091 31.7697 26.9748 32.1418C26.963 32.3898 26.9571 32.6378 26.9335 32.8858C26.7859 34.6633 26.4552 36.4408 25.5812 38.0175C25.0497 38.9564 24.288 39.8363 23.3136 40.2555ZM19.4693 30.4233C20.1248 28.8643 20.9043 27.3526 21.7664 25.9058C22.0617 25.4098 22.3747 24.9255 22.6935 24.4413C23.5144 26.4137 24.4887 28.3211 25.6166 30.1281C23.9277 31.002 21.7782 31.6752 19.7823 31.5926C19.676 31.2028 19.5697 30.8131 19.4693 30.4233ZM26.6028 29.5612C25.3627 27.5888 24.3175 25.4984 23.4612 23.3311C23.9691 22.6284 24.5006 21.9375 25.0616 21.2702C26.154 22.5516 26.4257 24.5949 26.6796 26.1657C26.8508 27.2109 26.9512 28.262 26.9926 29.325C26.8685 29.4017 26.7327 29.4785 26.6028 29.5612ZM23.0951 22.345C22.8235 21.5891 22.5695 20.8273 22.3451 20.0537C23.0597 20.0655 23.7624 20.2368 24.3765 20.6502C24.3884 20.6561 24.4002 20.6679 24.412 20.6738C23.9573 21.2171 23.5203 21.7781 23.0951 22.345ZM22.2979 23.4492C21.8432 24.0988 21.4003 24.7602 20.9869 25.4393C20.296 26.5672 19.6642 27.7305 19.0913 28.9293C18.9201 28.2384 18.7548 27.5416 18.5953 26.8507C18.2351 25.2858 17.8571 23.6736 17.3316 22.1265C18.1347 21.4297 19.0264 20.8746 19.8708 20.538C20.296 20.3726 20.7448 20.2368 21.2054 20.1541C21.5184 21.2702 21.8845 22.3686 22.2979 23.4492ZM18.5008 30.2107C18.43 30.3702 18.3591 30.5296 18.2941 30.6891C18.2115 30.8898 18.1347 31.0906 18.0579 31.2973C16.9773 30.9489 16.0206 30.2757 15.3179 29.1596C13.9479 26.9806 14.9754 24.5358 16.6761 22.7524C17.4615 25.1736 17.9162 27.7305 18.5008 30.2107ZM27.8843 33.3641C27.9965 33.5059 28.0968 33.6476 28.209 33.7834C28.3803 33.996 28.5575 34.2086 28.7346 34.4212C28.1972 35.5373 27.6008 36.6238 26.8981 37.6277C27.465 36.2518 27.7484 34.7223 27.8843 33.3641ZM20.9397 19.1975C19.8531 19.4101 18.7902 19.8589 17.8985 20.4317C17.5796 20.6325 17.2666 20.8628 16.9596 21.1167C16.8887 20.9336 16.8178 20.7565 16.7411 20.5734C17.928 19.3983 19.1858 18.2999 20.5027 17.2783C20.6326 17.922 20.7802 18.5597 20.9397 19.1975ZM25.9001 40.3796C27.4354 38.9387 28.5633 37.1789 29.5141 35.307C29.9275 35.7676 30.3645 36.2164 30.8192 36.6415C30.7483 36.9073 30.6774 37.173 30.6184 37.4387C30.2286 39.2103 30.1637 41.1118 30.8014 42.8361C31.3093 44.1943 32.3899 45.3104 33.0277 46.6037C32.1065 46.9403 31.1735 47.2414 30.2286 47.5131C27.8902 46.0545 25.8469 43.9699 24.2466 41.6905C24.8253 41.3008 25.3804 40.8697 25.9001 40.3796ZM31.7935 42.5645C31.1498 40.8874 31.2089 39.1099 31.64 37.3679C33.1753 38.6434 34.9233 39.6119 36.9015 39.8481C38.4841 40.037 40.0431 39.5764 41.2183 38.4722C41.6671 38.0529 42.0332 37.5687 42.3521 37.0431C43.6512 37.6454 45.0449 38.0116 46.4385 37.9702C43.4091 41.1768 39.677 43.7042 35.6792 45.5171C35.1182 45.771 34.5513 46.0073 33.9784 46.2317C33.3407 44.9738 32.3014 43.905 31.7935 42.5645ZM48.6412 35.3542C48.464 33.9842 48.2514 32.6142 48.0093 31.256C47.59 28.9116 47.0704 26.5849 46.409 24.2996C46.6393 22.8115 46.781 21.3175 46.8105 19.8234C47.1176 19.7821 47.4247 19.7526 47.7436 19.7526C49.4206 19.7585 51.1686 20.4021 52.1252 21.8726C54.133 24.961 52.1961 29.3427 50.6548 32.2008C50.0525 33.3051 49.3734 34.3562 48.6412 35.3542ZM46.8164 18.6483C46.7751 16.1386 46.4031 13.6466 45.6354 11.2254C48.6707 12.8316 51.1922 15.4004 52.6036 18.5833C53.1705 19.8648 53.5543 21.2289 53.7551 22.6225C53.6665 22.3509 53.5661 22.0851 53.4421 21.8194C52.2138 19.2565 49.4325 18.3412 46.8164 18.6483ZM42.1159 9.9912C41.5371 10.4105 41.0234 10.8888 40.5333 11.3967C40.2439 10.9774 39.9487 10.5581 39.6357 10.1507C39.4644 9.92626 39.2873 9.70776 39.1101 9.48336C40.1612 9.51879 41.2006 9.66052 42.2222 9.91445C42.1867 9.93807 42.1513 9.96168 42.1159 9.9912ZM37.6043 9.70185C38.3306 10.5758 38.9979 11.4911 39.6239 12.4301C38.0826 14.3611 36.9311 16.6523 35.8268 18.8195C34.8642 20.6974 33.9489 22.5989 33.0691 24.5181C33.0395 24.4531 33.01 24.3823 32.9864 24.3173C34.2028 22.1147 34.9056 19.6286 34.8997 17.0539C34.8938 14.7213 34.321 12.4124 33.2875 10.3337C33.6182 10.2333 33.9489 10.127 34.2855 10.0385C35.3367 9.76091 36.3937 9.58965 37.4507 9.51288C37.498 9.57784 37.5511 9.63689 37.6043 9.70185ZM31.7581 9.58374C31.5927 9.64279 31.4274 9.70777 31.2621 9.76682C31.2975 9.51289 31.3329 9.26487 31.3801 9.01095C31.516 9.19992 31.64 9.38887 31.7581 9.58374ZM30.0338 10.2687C28.6992 10.8416 27.3941 11.5029 26.1304 12.1939C24.4592 13.1092 22.8353 14.1249 21.2822 15.241C21.1759 14.5441 21.0873 13.8473 21.0224 13.1446C20.9751 12.5954 20.9279 12.0462 20.8983 11.4852C22.3865 9.8731 23.6443 8.03067 24.5832 6.02879C24.8135 5.53275 25.0261 5.0249 25.221 4.51114C25.4808 4.58791 25.7406 4.6706 25.9946 4.76508C27.7602 5.42647 29.2543 6.49532 30.453 7.8299C30.27 8.63892 30.1341 9.44792 30.0338 10.2687ZM19.8531 12.6722C19.9417 13.7824 20.0834 14.8926 20.2665 15.9909C19.2449 16.7645 18.2587 17.5853 17.308 18.4534C16.9418 18.7841 16.5816 19.1325 16.2273 19.4809C15.684 18.4239 15.0285 17.4318 14.1959 16.5519C15.3179 15.8964 16.4281 15.2351 17.4969 14.4851C18.3237 13.9064 19.1032 13.2568 19.8413 12.5659C19.8472 12.5954 19.8531 12.6368 19.8531 12.6722ZM8.36154 42.3696C7.88912 40.9701 7.73558 39.5056 7.80054 38.0352C8.91072 40.1197 10.2925 42.0625 11.8456 43.84C10.8535 43.8164 9.84375 43.7278 8.85758 43.5507C8.66861 43.1786 8.50327 42.783 8.36154 42.3696ZM15.6132 44.4719C15.6427 44.466 15.6722 44.466 15.7017 44.466C18.3827 44.1766 21.0814 43.527 23.4258 42.1925C24.908 44.4128 26.715 46.3675 28.9236 47.8615C27.9197 48.1095 26.9099 48.328 25.8942 48.4993C24.6423 48.7119 23.3667 48.8713 22.0794 48.948C19.735 47.7788 17.5678 46.2494 15.6132 44.4719ZM31.5041 48.2335C32.1419 48.0386 32.7738 47.832 33.3997 47.6017C33.4116 47.6548 33.4352 47.702 33.447 47.7552C33.5356 48.1922 33.5356 48.6233 33.4588 49.0307C32.7915 48.8181 32.136 48.5524 31.5041 48.2335ZM52.202 31.6989C52.7394 30.5887 53.265 29.3604 53.6252 28.0967C53.513 28.6695 53.3771 29.2423 53.2059 29.7974C52.6272 31.6989 51.641 33.7362 50.2001 35.1298C50.9501 34.0373 51.6233 32.8976 52.202 31.6989ZM35.4311 1.73569C37.433 1.16288 39.2636 2.92264 40.4978 4.29265C41.7675 5.704 42.7832 7.32205 43.5804 9.04638C41.8206 8.47357 39.9723 8.19601 38.1062 8.26097C36.6299 6.56026 34.9646 5.00718 33.0927 3.77299C33.6478 2.84587 34.3977 2.03095 35.4311 1.73569ZM28.463 2.90492C29.5495 3.24742 30.5829 3.72576 31.5573 4.30447C31.4097 4.64107 31.2798 4.98356 31.1617 5.32607C31.0022 5.78668 30.8605 6.2591 30.7306 6.73152C29.272 5.27292 27.5004 4.21589 25.5576 3.61355C25.6816 3.24152 25.8115 2.83406 25.8115 2.44431C26.7032 2.43841 27.6244 2.63918 28.463 2.90492ZM15.997 5.53276C17.5265 4.63516 19.2626 4.14503 21.0224 4.03873C19.7468 6.2532 19.6405 9.06408 19.7823 11.6151C17.9339 13.4044 15.7785 14.68 13.5877 15.9437C12.4834 14.9339 11.1724 14.1308 9.73154 13.7587C11.2019 10.5876 12.9499 7.31614 15.997 5.53276ZM4.157 20.1364C4.24558 18.2645 4.41683 15.1642 6.54272 14.5264C7.13324 14.3493 7.72377 14.2902 8.29657 14.3079C8.06037 14.8512 7.83006 15.3886 7.61156 15.9142C6.81436 17.8038 6.11754 19.7585 5.63922 21.7662C5.1668 22.2623 4.7121 22.782 4.28102 23.3252C4.15701 22.2682 4.10976 21.2053 4.157 20.1364ZM3.44838 41.035C0.696539 38.4722 0.354029 34.5038 1.24572 31.0138C1.74176 29.071 2.59803 27.2345 3.6905 25.5515C3.6964 25.5751 3.6964 25.6047 3.7023 25.6283C4.06843 27.4766 4.62942 29.2954 5.32033 31.0552C5.65693 32.8563 6.21203 34.616 6.95018 36.2931C6.92656 36.4585 6.89703 36.6238 6.87341 36.7892C6.60767 38.9859 6.79074 41.2535 7.59976 43.2613C6.0703 42.8302 4.63533 42.1334 3.44838 41.035ZM15.7313 48.4697C13.2097 47.8615 10.8713 46.5564 9.41267 44.4601C10.4579 44.6136 11.5149 44.6608 12.572 44.649C13.1034 45.2159 13.6467 45.771 14.2077 46.2966C15.0935 47.1351 16.0324 47.9501 17.0068 48.7237C16.5816 48.6528 16.1564 48.5701 15.7313 48.4697ZM25.3804 52.4322C23.7388 51.883 22.2093 50.9913 20.7507 50.0405C21.1346 50.0346 21.5184 50.0287 21.9022 50.0051C24.6009 51.3101 27.4945 52.1664 30.4826 52.4735C28.8645 53.1703 27.0457 52.9872 25.3804 52.4322ZM33.4352 51.4814C33.7304 51.0976 33.9784 50.6783 34.1615 50.2413C36.1102 50.7019 38.1298 50.7373 40.0727 50.2885C37.9468 51.0267 35.7028 51.4164 33.4352 51.4814ZM47.0231 46.0368C46.7515 46.2966 46.468 46.5446 46.1846 46.7867C47.1471 45.7651 47.9207 44.5605 48.405 43.2082C49.0722 41.3657 49.0486 39.3698 48.8715 37.4387C51.83 36.1396 53.5957 32.6673 54.4401 29.6734C54.4637 29.5848 54.4814 29.4962 54.4991 29.4135C53.761 35.5727 51.4875 41.7141 47.0231 46.0368Z" fill="#3F3F3F" fill-opacity="0.6"/>
</svg>
