<svg width="56" height="59" viewBox="0 0 56 59" fill="none" xmlns="http://www.w3.org/2000/svg">
<path d="M55.3324 23.1455C55.0602 22.3481 54.7231 21.5702 54.3601 20.8053C54.1526 19.9755 53.9257 19.1587 53.6794 18.3484C52.8302 15.5803 51.5726 12.9484 49.8612 10.6082C46.4708 5.95368 41.3041 2.25212 35.6643 0.923196C32.5786 0.197147 29.4346 0.553703 26.3229 0.89728C23.6586 1.189 20.9748 1.54553 18.3947 2.32343C15.86 3.08838 13.4485 4.29414 11.5232 6.13519C9.37097 8.20314 7.73088 10.8934 6.20099 13.4346C4.67759 15.9693 3.45238 18.6466 2.77819 21.5313C2.1429 24.2605 1.94842 27.0869 2.16883 29.8744C2.62261 35.605 4.7878 41.18 8.33377 45.7048C11.5815 49.8472 16.0804 52.8875 21.0915 54.4887C25.9729 56.051 31.3145 56.239 36.2542 54.8193C38.3416 54.2229 40.3577 53.3543 42.2376 52.2523C40.4938 53.5682 38.6074 54.6897 36.5783 55.5389C34.1279 56.5632 31.496 57.1985 28.8381 57.3087C25.8951 57.4318 23.0362 56.7965 20.2423 55.9019C17.5455 55.0333 14.745 54.1451 12.2428 52.8033C9.80531 51.4938 7.9059 49.5555 6.35008 47.2866C4.83316 45.076 3.46534 42.671 2.32441 40.2465C1.03437 37.5044 0.781552 34.5094 0.703761 31.5145C0.561144 25.7904 1.39092 19.9236 3.9256 14.7441C6.03892 10.4202 9.31262 6.57601 13.5004 4.15153C13.7856 3.98298 13.5328 3.54864 13.2411 3.70423C8.59954 6.23891 5.11191 10.4202 2.95322 15.2108C0.470389 20.7275 -0.242682 26.8859 0.0684813 32.8823C0.146272 34.4511 0.28239 36.0264 0.638931 37.5562C0.982508 39.0213 1.58539 40.3827 2.28551 41.7116C3.59499 44.2009 4.96282 46.7226 6.6807 48.9591C8.41155 51.2085 10.5443 52.9199 13.1244 54.1063C14.4792 54.7351 15.886 55.2407 17.2927 55.7399C18.8096 56.2779 20.333 56.816 21.8888 57.2374C24.7217 58.0153 27.6389 58.3459 30.569 58.0153C33.3371 57.7041 36.0273 56.8808 38.5361 55.6686C43.599 53.2181 47.7349 49.1276 50.7882 44.4472C50.84 44.363 50.8984 44.2787 50.9502 44.1879C51.6763 43.1377 52.3245 42.0357 52.8885 40.8948C52.9339 40.7975 52.9728 40.7003 53.0182 40.6095C53.6275 39.4232 54.185 38.2045 54.6777 36.9663C55.2417 35.5531 55.676 34.101 55.877 32.5906C56.0261 31.4821 56.0131 30.3736 55.9094 29.2715C56.0974 27.2165 56.0326 25.1745 55.3324 23.1455ZM32.6434 54.5276C27.7815 55.2602 22.7056 54.4563 18.2456 52.4078C13.5004 50.2232 9.60434 46.6643 6.92704 42.1783C4.13305 37.5044 2.70689 32.0331 2.92081 26.5877C3.02453 23.9299 3.53017 21.2915 4.45718 18.7957C5.47494 16.06 7.03075 13.5642 8.63843 11.1397C10.1878 8.79953 11.8603 6.55656 14.2848 5.05908C16.4175 3.73664 18.8485 2.99763 21.2989 2.51792C23.9373 1.99932 26.6406 1.73353 29.3179 1.52609C30.8672 1.40292 32.436 1.35106 33.9788 1.56498C35.4115 1.76594 36.8182 2.1873 38.1601 2.73184C43.2878 4.79978 47.696 8.57264 50.464 13.3633C51.1447 14.5496 51.7087 15.7813 52.1819 17.0519C51.8707 16.5981 51.5596 16.1508 51.2355 15.7164C47.9488 11.3148 43.5536 7.77528 38.387 5.83051C35.6254 4.7933 32.6758 4.22283 29.7327 4.20338C26.8415 4.18393 23.8206 4.63771 21.2082 5.92775C18.6022 7.2113 16.5537 9.43482 14.6996 11.6194C12.8067 13.8559 11.1796 16.2804 10.1294 19.0226C8.60603 23.0093 8.35969 27.4499 9.29966 31.6182C9.81827 36.3764 12.165 40.8624 15.6072 44.1814C19.4903 47.9219 24.7152 50.2556 30.1282 50.4047C33.0972 50.489 36.1181 49.8861 38.7306 48.4405C41.1291 47.1116 43.1193 45.1473 44.7853 42.9886C48.0914 38.7037 50.4511 33.1222 49.4268 27.6314C49.0768 25.745 48.2859 23.9817 47.294 22.3481C47.0282 21.3822 46.7106 20.4293 46.3152 19.5152C45.2067 16.9222 43.4175 14.7505 41.0837 13.1688C38.9121 11.7037 36.3839 10.7702 33.8168 10.3165C30.8218 9.77841 27.7037 9.8173 24.7541 10.5952C21.9083 11.3472 19.2958 12.8317 17.0074 14.6663C14.7645 16.4619 12.716 18.5558 11.3222 21.097C10.6027 22.413 10.0711 23.8197 9.71454 25.2782C9.94791 21.661 11.1148 18.1409 13.1827 15.0876C14.7256 12.8058 16.6055 10.6276 18.6735 8.80601C20.8905 6.85476 23.5289 5.80458 26.4396 5.40915C31.8979 4.65717 37.5442 6.0185 42.2311 8.86435C46.6263 11.5352 50.2177 15.5155 52.6422 20.0403C52.9922 20.6886 53.3099 21.3433 53.5886 22.011C53.8609 23.2622 54.1008 24.5198 54.3341 25.7774C54.4897 26.6137 54.6388 27.4499 54.7555 28.2862C54.5545 31.2682 53.8933 34.3539 52.9728 37.1932C50.0427 46.1651 42.0043 53.1209 32.6434 54.5276ZM10.674 25.369C12.0483 20.0209 16.2555 15.7683 21.0461 13.2271C26.0182 10.5887 32.0924 10.485 37.2849 12.5918C39.5668 13.5188 41.6801 14.9515 43.223 16.8898C43.4434 17.1685 43.6573 17.4603 43.8518 17.7649C42.672 16.4684 41.3819 15.2821 39.9428 14.2708C37.7582 12.741 35.2689 11.6972 32.6175 11.3472C29.9013 10.9842 27.1073 11.3083 24.5078 12.164C19.5097 13.8041 14.758 17.4603 12.6836 22.3935C10.4406 27.7287 11.5491 34.0297 14.8552 38.6777C17.9863 43.0729 22.9649 45.9317 28.2807 46.6837C31.1719 47.0921 34.1603 46.8717 36.7469 45.4196C39.0288 44.1361 40.8115 42.1524 42.3867 40.1039C43.8713 38.1786 45.466 36.1366 46.3541 33.8353C45.8938 36.3051 45.0576 38.6972 43.8259 40.8559C42.6331 42.9562 41.0384 44.8686 39.0093 46.2105C36.8117 47.6626 34.2252 48.3368 31.6062 48.3822C26.5368 48.4664 21.4934 46.3985 17.6233 43.1831C13.993 40.1622 11.3417 36.0912 10.2461 31.5015C10.0322 29.4725 10.1554 27.3981 10.674 25.369ZM46.756 37.4525C47.871 34.1853 48.3442 30.594 48.0979 27.0674C48.4285 28.351 48.5906 29.6799 48.5193 31.0413C48.3831 33.8093 47.495 36.532 46.1466 39.0278C46.367 38.5092 46.5745 37.9841 46.756 37.4525ZM46.3605 24.5133C46.5421 25.4987 46.6652 26.497 46.7301 27.5083C46.4578 26.2377 46.0235 24.9865 45.5438 23.7873C44.8372 22.011 44.1176 20.1246 43.0739 18.4715C44.0268 19.5087 44.9149 20.6237 45.6928 21.8101C45.9716 22.6982 46.192 23.6122 46.3605 24.5133ZM35.3985 15.7164C37.9397 14.6468 40.5327 16.3452 41.9459 18.4067C42.659 19.4504 43.1906 20.5978 43.6897 21.7517C44.2861 23.1325 44.889 24.5263 45.3558 25.9589C45.8225 27.3981 46.1661 28.8955 46.1272 30.4189C46.0948 31.8775 45.6734 33.2648 45.0122 34.5548C44.3834 35.78 43.5925 36.9145 42.7887 38.0295C42.0302 39.0861 41.2523 40.1234 40.4031 41.1087C38.763 42.9951 36.8117 44.713 34.3872 45.4844C31.6775 46.3466 28.6696 46.0679 25.9599 45.3418C20.9359 43.987 16.5601 40.6744 14.181 36.0134C11.6593 31.0672 11.6075 24.9476 14.771 20.2737C17.6881 15.9693 22.7121 13.0586 27.8204 12.3196C30.3551 11.9501 32.974 12.1575 35.392 13.0197C36.6821 13.48 37.8878 14.1217 39.0158 14.8867C37.7776 14.4199 36.4163 14.3421 35.1587 14.8737C34.653 15.0876 34.8799 15.9368 35.3985 15.7164ZM28.9289 49.374C28.1251 49.3027 27.3212 49.1925 26.5303 49.0239C21.6684 47.9932 17.2279 45.2122 14.207 41.2643C16.048 43.3906 18.2651 45.1992 20.7155 46.5735C23.2113 47.9737 26.0442 48.985 28.9289 49.374Z" fill="#3F3F3F"/>
</svg>
