<svg width="13" height="12" viewBox="0 0 13 12" fill="none" xmlns="http://www.w3.org/2000/svg">
<g clip-path="url(#clip0_1279_19157)">
<path d="M6.66663 1C9.42763 1 11.6666 2.989 11.6666 5.4445C11.6662 6.1811 11.3734 6.88742 10.8525 7.40823C10.3316 7.92904 9.62523 8.22174 8.88863 8.222H7.90563C7.44463 8.222 7.07213 8.5945 7.07213 9.0555C7.07213 9.2665 7.15563 9.461 7.28313 9.6055C7.41663 9.7555 7.50013 9.95 7.50013 10.1665C7.50013 10.628 7.11663 11 6.66663 11C3.90563 11 1.66663 8.761 1.66663 6C1.66663 3.239 3.90563 1 6.66663 1ZM6.07213 9.0555C6.07193 8.81467 6.11922 8.57616 6.21129 8.35362C6.30336 8.13108 6.43841 7.92888 6.60871 7.75858C6.779 7.58828 6.9812 7.45324 7.20374 7.36117C7.42628 7.26909 7.66479 7.2218 7.90563 7.222H8.88863C9.35993 7.22174 9.81186 7.03446 10.1452 6.7013C10.4786 6.36813 10.6661 5.9163 10.6666 5.445C10.6666 3.5695 8.90063 2 6.66663 2C5.63441 1.99906 4.6418 2.39718 3.89632 3.11113C3.15083 3.82507 2.7102 4.79956 2.66656 5.83085C2.62291 6.86214 2.97962 7.87038 3.66211 8.64476C4.3446 9.41915 5.30003 9.89972 6.32863 9.986C6.16121 9.70464 6.07261 9.3834 6.07213 9.056V9.0555ZM4.41663 6C4.21771 6 4.02695 5.92098 3.8863 5.78033C3.74564 5.63968 3.66663 5.44891 3.66663 5.25C3.66663 5.05109 3.74564 4.86032 3.8863 4.71967C4.02695 4.57902 4.21771 4.5 4.41663 4.5C4.61554 4.5 4.8063 4.57902 4.94696 4.71967C5.08761 4.86032 5.16663 5.05109 5.16663 5.25C5.16663 5.44891 5.08761 5.63968 4.94696 5.78033C4.8063 5.92098 4.61554 6 4.41663 6ZM8.91663 6C8.71771 6 8.52695 5.92098 8.3863 5.78033C8.24564 5.63968 8.16663 5.44891 8.16663 5.25C8.16663 5.05109 8.24564 4.86032 8.3863 4.71967C8.52695 4.57902 8.71771 4.5 8.91663 4.5C9.11554 4.5 9.3063 4.57902 9.44696 4.71967C9.58761 4.86032 9.66663 5.05109 9.66663 5.25C9.66663 5.44891 9.58761 5.63968 9.44696 5.78033C9.3063 5.92098 9.11554 6 8.91663 6ZM6.66663 4.5C6.46771 4.5 6.27695 4.42098 6.1363 4.28033C5.99564 4.13968 5.91663 3.94891 5.91663 3.75C5.91663 3.55109 5.99564 3.36032 6.1363 3.21967C6.27695 3.07902 6.46771 3 6.66663 3C6.86554 3 7.0563 3.07902 7.19696 3.21967C7.33761 3.36032 7.41663 3.55109 7.41663 3.75C7.41663 3.94891 7.33761 4.13968 7.19696 4.28033C7.0563 4.42098 6.86554 4.5 6.66663 4.5Z" fill="white"/>
</g>
<defs>
<clipPath id="clip0_1279_19157">
<rect width="12" height="12" fill="white" transform="translate(0.666626)"/>
</clipPath>
</defs>
</svg>
