<svg width="56" height="49" viewBox="0 0 56 49" fill="none" xmlns="http://www.w3.org/2000/svg">
<path d="M45.8015 28.489C45.8015 28.489 45.7878 28.537 45.7398 28.626C45.6919 28.7151 45.6302 28.8453 45.5343 29.0166C45.3493 29.3592 45.0341 29.8525 44.5476 30.4555C43.5678 31.634 41.7658 33.2236 38.8949 34.2308C36.0445 35.2792 32.1732 35.4505 27.8429 34.6351C25.6708 34.2377 23.3755 33.6484 20.9362 32.9701C18.5038 32.2712 15.9207 31.4353 13.3101 30.2499C10.6996 29.0782 8.03422 27.5434 5.62922 25.4331C4.43015 24.3985 3.23108 23.1857 2.5322 21.5961C1.84701 19.9996 1.81276 18.177 2.10053 16.4435C2.38831 14.6963 2.9022 12.997 3.45034 11.2566C3.74497 10.3865 4.10812 9.50943 4.66312 8.72147C5.21126 7.92666 5.97182 7.26203 6.82144 6.78925C8.5344 5.82314 10.4735 5.45314 12.4057 5.1037C14.3516 4.78167 16.366 4.65148 18.4147 4.7063C22.5053 4.81592 26.7123 5.6724 30.7754 7.26203C34.8454 8.8585 38.7578 11.1813 42.3619 14.0727C45.9659 16.9779 49.2822 20.4244 52.2559 24.3025C53.7222 26.2347 55.1268 28.4616 55.4489 31.0653C55.7846 33.6416 55.1063 36.3069 53.7291 38.5406C52.345 40.7949 50.2278 42.5558 47.8296 43.7343C45.4315 44.9197 42.7456 45.5363 40.0323 45.6528C37.3121 45.7762 34.5645 45.4336 31.8923 44.7415C29.2132 44.0769 26.6027 43.1039 24.0332 41.9871C21.4638 40.8702 18.9355 39.6301 16.4003 38.3145C13.8788 36.9784 11.3711 35.471 9.17162 33.5045C6.95848 31.5586 5.15645 29.0371 4.0533 26.2484C3.4846 24.8644 3.03238 23.4255 2.63498 21.9866C2.23757 20.5409 1.90183 19.0403 1.81276 17.4918C1.72368 15.957 1.88813 14.3194 2.63498 12.86C3.00497 12.1337 3.52571 11.4828 4.12867 10.9483C4.73163 10.4139 5.39626 9.97535 6.06089 9.57795C8.74681 8.02258 11.6931 6.87147 14.7901 6.25481C16.3318 5.94648 17.9146 5.74777 19.5042 5.72037C21.0938 5.6724 22.6971 5.76148 24.2799 6.0287C25.0747 6.13148 25.8558 6.33703 26.6438 6.51518C27.418 6.74814 28.1992 6.96055 28.946 7.26888C29.7134 7.52925 30.4397 7.9061 31.1797 8.24184C31.8991 8.61869 32.6117 9.0161 33.2901 9.46146C36.0376 11.2155 38.4358 13.4492 40.7174 15.7651C42.9717 18.1085 45.2808 20.4175 47.3569 23.0349C48.3846 24.3436 49.3508 25.7277 50.1387 27.2283C50.9267 28.7288 51.5365 30.339 51.8722 32.0314C52.2011 33.7101 52.2422 35.5601 51.5433 37.2456C50.8719 38.9243 49.5906 40.2741 48.1174 41.2471C46.6374 42.2201 44.9108 42.7956 43.1772 43.0354C41.4369 43.2889 39.6828 43.2478 37.963 43.0902C34.5234 42.7545 31.1112 42.0899 27.7675 41.1032C24.4306 40.096 21.1349 38.8695 18.0242 37.136C16.4757 36.2521 14.9957 35.2106 13.7075 33.9293C12.4194 32.6481 11.3505 31.1749 10.4529 29.6195C9.55532 28.0573 8.79477 26.4471 8.13699 24.7479C7.49977 23.0555 7.07496 21.1644 7.32163 19.2801C7.54774 17.4096 8.25348 15.6555 9.13736 14.0522C10.0212 12.442 11.1175 10.9415 12.3851 9.5985C13.6527 8.25554 15.0916 7.07018 16.6675 6.09037C18.2434 5.11055 19.9427 4.3363 21.6899 3.72648C25.198 2.51371 28.8569 1.9176 32.5295 1.5202C36.2089 1.1502 40.0186 1.1502 43.7048 2.13686C45.5343 2.6439 47.3432 3.41815 48.8643 4.66518C49.6248 5.28185 50.31 6.015 50.8376 6.86462C51.372 7.7074 51.7352 8.65295 51.9613 9.60535C52.4067 11.5239 52.3861 13.4561 52.2354 15.3609C52.0572 17.2725 51.6598 19.1568 51.0911 20.9794C49.9537 24.6383 48.1311 28.0573 46.0276 31.2434C43.9172 34.4364 41.5397 37.4238 39.1758 40.4249C37.9767 41.9186 36.7023 43.4465 35.0441 44.5908C33.4134 45.7487 31.5017 46.5162 29.5353 46.8313C27.5688 47.1602 25.5338 47.0986 23.5879 46.6463C21.6351 46.2078 19.7645 45.3582 18.1749 44.1112C16.5716 42.8641 15.2903 41.254 14.3722 39.4793C13.4335 37.7116 12.7894 35.8067 12.3509 33.8814C10.5488 26.1525 11.8918 17.7796 16.0988 11.147C18.1955 7.83758 21.0116 4.95981 24.3964 2.97963C27.788 0.978901 31.6936 -0.0899844 35.5991 0.00594118C36.5721 0.0196448 37.545 0.136126 38.5043 0.307422C39.4636 0.471866 40.416 0.732235 41.3341 1.10223C42.2523 1.47223 43.1361 1.97242 43.9035 2.6439C44.6778 3.30852 45.2945 4.18556 45.685 5.1037C47.0965 8.78999 47.3089 12.675 46.9595 16.4503C46.5895 20.2325 45.6234 23.8846 44.4311 27.4201C43.8282 29.181 43.2184 30.9351 42.4167 32.6481C41.615 34.3473 40.5941 35.9986 39.2237 37.3416C37.8534 38.6845 36.2432 39.6917 34.6467 40.5962C33.0434 41.4938 31.4538 42.3708 29.8367 43.2341C26.6095 44.9402 23.259 46.4956 19.6892 47.3863C17.9077 47.8111 16.0851 48.1606 14.2009 48.0647C12.3303 47.9824 10.3912 47.3521 8.97292 46.0023C8.26718 45.3376 7.70533 44.4812 7.41755 43.5425C7.12292 42.6038 7.08181 41.6377 7.14348 40.7127C7.20515 39.7877 7.35589 38.8969 7.52033 38.0199C7.67792 37.1429 7.84922 36.2658 8.03422 35.4025C8.78107 31.9286 9.77458 28.5233 10.9805 25.2207C11.5835 23.5694 12.2412 21.9455 12.9538 20.3422C13.6664 18.7457 14.4338 17.1698 15.3246 15.6555C16.2084 14.1413 17.2294 12.6955 18.4216 11.3937C19.607 10.085 20.9979 8.96813 22.4847 8.04999C25.479 6.22055 28.809 5.16537 32.0978 4.35C33.7491 3.95945 35.3867 3.57574 37.0723 3.29482C38.751 3.03445 40.5119 2.89741 42.2454 3.28797C43.1087 3.47982 43.9447 3.82241 44.6984 4.30204C45.4589 4.78167 46.0961 5.41203 46.6306 6.11092C47.6858 7.5224 48.2819 9.2148 48.46 10.9278C48.645 12.6407 48.4395 14.3468 48.0558 15.9638C47.6652 17.5877 47.1171 19.15 46.4867 20.6642C45.2191 23.6996 43.5541 26.5362 41.5465 29.0783C37.5656 34.1966 32.1869 38.0816 26.2738 40.2262C23.3206 41.3019 20.2442 41.9734 17.1609 42.2064C15.6192 42.3365 14.0707 42.3297 12.5427 42.2338C11.7822 42.1927 11.0079 42.1241 10.2268 41.9597C9.45255 41.7884 8.66459 41.5143 7.98625 41.0073C7.30107 40.5002 6.83515 39.7397 6.55422 39.0134C6.26644 38.2734 6.06774 37.5608 5.86904 36.8277C5.47848 35.3682 5.21126 33.854 5.24552 32.3192C5.26608 30.7844 5.67034 29.2495 6.33496 27.8997C6.99274 26.5362 7.86292 25.3166 8.78107 24.1792C12.4605 19.6227 17.0307 15.9638 21.9777 13.2985C26.9316 10.6331 32.2897 8.98184 37.6547 8.37888C40.3337 8.1048 43.0882 8.15962 45.6645 8.96128C48.2476 9.74239 50.5019 11.4279 52.0367 13.552C53.592 15.6692 54.517 18.1701 54.8391 20.6985C55.1543 23.2405 54.7774 25.7962 53.962 28.1258C53.1467 30.4692 51.8722 32.5864 50.358 34.4432C48.8506 36.3069 47.0554 37.8897 45.1506 39.219C41.3204 41.8843 37.0723 43.5493 32.9064 44.7758C28.7336 46.0023 24.5745 46.8176 20.5114 47.1534C16.462 47.4617 12.4468 47.4754 8.76051 46.3791C6.93107 45.8173 5.19756 44.9745 3.79979 43.7412C2.38146 42.5352 1.36739 40.9456 0.764426 39.2806C-0.448348 35.9164 -0.112608 32.3397 1.03165 29.3592C2.1759 26.3512 4.00534 23.8503 5.92385 21.7262C9.80884 17.485 14.146 14.6277 18.1201 12.7435C22.1147 10.8592 25.7736 9.94109 28.7473 9.48202C31.7278 8.99554 34.0506 9.06406 35.5786 9.29017C37.1065 9.51628 37.8465 9.81776 37.8465 9.81776C37.8465 9.81776 37.7986 9.81776 37.7026 9.79035C37.6067 9.7698 37.4628 9.73554 37.2778 9.68758C36.8941 9.60535 36.3254 9.48887 35.5649 9.3998C34.0438 9.2148 31.7347 9.18054 28.7816 9.70128C25.8353 10.1946 22.2107 11.147 18.2571 13.045C14.331 14.9429 10.0487 17.8001 6.23904 22.0209C4.35478 24.1312 2.57331 26.5979 1.47016 29.5305C0.373871 32.4356 0.0792429 35.8958 1.25091 39.1093C1.83331 40.699 2.79942 42.1995 4.14923 43.3369C5.47848 44.5017 7.14348 45.3034 8.9181 45.8378C12.4948 46.8862 16.4483 46.8656 20.4566 46.5436C24.4718 46.1941 28.5829 45.3787 32.7145 44.1523C36.8325 42.9258 41.0121 41.2677 44.7395 38.6571C46.5963 37.3553 48.3298 35.8136 49.7893 33.9979C51.2556 32.1958 52.4752 30.1403 53.2563 27.886C54.0374 25.6386 54.3868 23.2062 54.0785 20.7944C53.7702 18.3894 52.8794 16.0118 51.4063 14.0179C49.9469 12.0172 47.8502 10.4618 45.4178 9.72869C42.9854 8.97499 40.3406 8.92017 37.73 9.19424C32.4815 9.79035 27.2262 11.4279 22.3751 14.0522C17.5309 16.6764 13.0566 20.2668 9.46625 24.7342C8.57551 25.8442 7.74644 27.0158 7.13663 28.2903C6.51996 29.5647 6.15682 30.9351 6.14311 32.3466C6.1157 33.7649 6.36237 35.1969 6.74607 36.6016C7.15718 37.9925 7.47922 39.5204 8.5481 40.2878C9.61699 41.0827 11.1312 41.2471 12.6112 41.3293C14.0981 41.4252 15.5986 41.4252 17.0992 41.2951C20.1003 41.0689 23.0877 40.4043 25.9586 39.356C31.7073 37.2593 36.9215 33.484 40.7928 28.4958C42.7456 26.0223 44.3626 23.2473 45.5891 20.3011C46.7882 17.3616 47.8022 14.1892 47.4802 11.0442C47.3158 9.48887 46.7676 7.96777 45.8358 6.72073C44.9108 5.46685 43.5541 4.61037 42.0261 4.27463C40.4913 3.93204 38.8537 4.04852 37.2299 4.30204C35.6128 4.56926 33.9684 4.95981 32.3377 5.34352C29.0967 6.14518 25.8695 7.17981 23.0192 8.92702C21.6077 9.81091 20.299 10.8524 19.1821 12.0994C18.0516 13.3327 17.0718 14.7168 16.2153 16.19C15.352 17.6563 14.5983 19.1979 13.8994 20.7738C13.2005 22.3498 12.5496 23.9531 11.9535 25.5838C10.7612 28.8453 9.78828 32.2027 9.05514 35.6355C8.87014 36.4919 8.69884 37.3553 8.5481 38.2186C8.39051 39.0888 8.24662 39.9453 8.19181 40.788C8.13699 41.6308 8.18496 42.4736 8.42477 43.2341C8.65773 44.0015 9.1031 44.6799 9.69921 45.2417C10.8914 46.3723 12.5564 46.941 14.2557 47.0163C15.9618 47.1054 17.7159 46.7834 19.4288 46.3654C22.8684 45.5021 26.1367 43.9878 29.3366 42.2954C30.933 41.4458 32.5364 40.5619 34.1191 39.6712C35.6882 38.7736 37.2162 37.8143 38.47 36.5742C39.7239 35.3477 40.6763 33.8197 41.4437 32.189C42.2111 30.5582 42.8141 28.8179 43.4102 27.0775C44.5819 23.5968 45.5274 20.0133 45.8769 16.3544C46.055 14.525 46.0756 12.6818 45.8974 10.8592C45.8084 9.94794 45.6713 9.03665 45.4658 8.14591C45.2739 7.24832 45.041 6.35759 44.6847 5.55592C44.02 3.92519 42.588 2.78778 40.9161 2.13001C40.0802 1.79427 39.2032 1.55445 38.2987 1.39686C37.3943 1.23242 36.483 1.12964 35.558 1.11594C31.8717 1.02001 28.158 2.03408 24.9514 3.91148C21.731 5.79574 19.0383 8.55017 17.0238 11.7226C12.9812 18.0948 11.6794 26.1868 13.4198 33.621C13.8446 35.4847 14.4612 37.2936 15.3451 38.9586C16.2153 40.6304 17.4007 42.1104 18.8533 43.241C20.3058 44.3852 22.0394 45.1732 23.8482 45.5775C25.6571 45.9954 27.5414 46.0502 29.364 45.7487C31.1865 45.4541 32.9338 44.7484 34.4275 43.6932C35.9349 42.6586 37.1545 41.2128 38.3399 39.7397C40.6969 36.7454 43.0676 33.7718 45.1369 30.6336C47.2061 27.5023 48.9739 24.1792 50.0702 20.6436C50.6183 18.8827 51.002 17.0738 51.1733 15.2444C51.3241 13.4287 51.3309 11.565 50.9267 9.83832C50.7211 8.97499 50.4059 8.15277 49.94 7.42647C49.4809 6.69333 48.878 6.04925 48.1996 5.4874C46.8361 4.37056 45.1643 3.63741 43.4376 3.16463C39.95 2.23279 36.2569 2.21908 32.6528 2.58223C29.0419 2.97278 25.431 3.56204 22.0599 4.7337C20.3744 5.31611 18.7505 6.06296 17.2499 6.99481C15.7494 7.92666 14.379 9.05036 13.1731 10.3316C11.9672 11.6061 10.9257 13.0313 10.0829 14.5661C9.24014 16.094 8.58922 17.7248 8.39051 19.4103C8.17125 21.089 8.54125 22.7746 9.14421 24.3916C9.76773 26.0086 10.5214 27.612 11.3779 29.1057C12.2412 30.6062 13.2553 32.004 14.4612 33.2031C15.6672 34.4021 17.0718 35.3956 18.5586 36.2453C21.5529 37.9171 24.8075 39.1436 28.0758 40.1303C31.3578 41.1032 34.7152 41.7541 38.0726 42.0899C39.7445 42.2475 41.4232 42.2817 43.0471 42.0488C44.6709 41.8227 46.2332 41.3019 47.5761 40.418C48.9054 39.5341 50.0428 38.3282 50.6183 36.8825C51.2213 35.4436 51.2007 33.806 50.8993 32.2369C50.2826 29.0577 48.5902 26.2005 46.5826 23.6653C44.5682 21.1233 42.2591 18.8005 40.0254 16.4709C37.7643 14.1755 35.421 11.9898 32.7693 10.2905C31.4538 9.43406 30.056 8.72832 28.6034 8.18017C27.884 7.88554 27.1371 7.67999 26.3971 7.45388C25.6434 7.28258 24.8966 7.08388 24.1292 6.9811C22.6081 6.72073 21.0664 6.63166 19.5316 6.67962C17.9968 6.70703 16.4757 6.89203 14.982 7.19351C11.9877 7.78277 9.13051 8.89276 6.54052 10.3933C5.25237 11.1402 4.08756 12.0378 3.45719 13.2985C2.81312 14.5455 2.64868 16.0187 2.7309 17.4575C2.80627 18.9101 3.12831 20.349 3.51201 21.7673C3.90256 23.1925 4.33423 24.5903 4.88238 25.9264C5.94441 28.626 7.62996 30.9831 9.76088 32.8673C11.8781 34.7653 14.3242 36.2453 16.8114 37.5745C19.3123 38.8832 21.8407 40.1234 24.3758 41.2334C26.911 42.3365 29.4804 43.3026 32.0978 43.9604C34.7084 44.6388 37.3738 44.9745 39.998 44.8649C42.6154 44.7621 45.1917 44.1728 47.4802 43.0423C49.7619 41.9254 51.7694 40.2536 53.0644 38.1501C54.3594 36.0534 54.9967 33.5525 54.6952 31.1749C54.4074 28.7836 53.0987 26.6596 51.6667 24.7616C48.7409 20.9314 45.4658 17.5055 41.9234 14.6346C38.3741 11.7705 34.5234 9.46832 30.5356 7.88554C26.541 6.31648 22.4094 5.45315 18.3942 5.33666C16.3866 5.275 14.4133 5.39833 12.5016 5.70666C10.6037 6.03555 8.69199 6.40555 7.10237 7.30314C6.30756 7.74851 5.62237 8.33777 5.12219 9.06406C4.61515 9.79035 4.25886 10.6126 3.97108 11.4553C3.42294 13.1615 2.90905 14.8676 2.62127 16.5531C2.33349 18.2318 2.36775 19.9448 2.99127 21.4248C3.62849 22.9048 4.76589 24.0764 5.94441 25.1042C8.29459 27.1871 10.912 28.7151 13.4883 29.8868C16.0714 31.0721 18.6271 31.9218 21.0458 32.6343C23.4714 33.3264 25.7599 33.9293 27.9114 34.3405C32.2006 35.1832 36.0102 35.053 38.8332 34.0527C41.6767 33.0934 43.4787 31.5586 44.4722 30.4144C44.9656 29.832 45.2945 29.3523 45.5 29.0166C45.6028 28.8521 45.6782 28.722 45.7261 28.6397C45.7809 28.5575 45.8084 28.5164 45.8084 28.5164L45.8015 28.489Z" fill="#3F3F3F"/>
</svg>
