<svg width="1512" height="1489" viewBox="0 0 1512 1489" fill="none" xmlns="http://www.w3.org/2000/svg">
<rect width="1512" height="1488" transform="translate(0 1)" fill="#F2F1EF"/>
<rect x="182" y="0.673828" width="1" height="1468" fill="#AEA797" fill-opacity="0.5"/>
<rect width="300" height="990" transform="translate(33 239.674)" fill="#F2F1EF"/>
<path d="M249 1203.91H54.12L54.12 1129.99C54.12 1092.19 75.4 1066.15 110.96 1066.15C148.76 1066.15 168.92 1093.59 168.92 1131.67V1177.87H249V1203.91ZM75.96 1177.87H147.08V1132.79C147.08 1106.19 134.2 1092.75 111.52 1092.75C87.72 1092.75 75.96 1108.99 75.96 1131.95V1177.87ZM103.68 988.723C103.68 949.243 133.08 923.483 177.6 923.483C218.76 923.483 252.36 947.003 252.36 990.403C252.36 1031 221 1055.64 178.16 1055.64C136.16 1055.64 103.68 1031.56 103.68 988.723ZM124.12 989.843C124.12 1016.44 145.68 1030.44 177.88 1030.44C209.24 1030.44 231.92 1014.76 231.92 989.283C231.92 963.523 210.36 948.683 178.16 948.683C146.24 948.683 124.12 963.243 124.12 989.843ZM249 897.218H145.68C125.8 897.218 114.6 897.498 107.04 897.498L107.04 873.418C110.96 873.138 122.16 872.578 135.88 872.578C116.84 865.298 104.24 848.498 103.68 824.978H128.04C128.88 854.098 144.28 872.578 180.12 872.578H249V897.218ZM126.92 814.924H107.04V790.284H65.04V765.924H107.04V734.564H126.92V765.924H210.08C224.08 765.924 231.08 762.564 231.08 749.684C231.08 746.324 230.8 741.284 229.96 737.364H248.44C250.68 743.244 250.96 751.644 250.96 758.644C250.96 780.764 239.48 790.284 215.96 790.284H126.92V814.924ZM249 686.804V711.444H126.92V734.124H107.04V711.444H89.96C63.92 711.444 40.68 701.364 40.68 670.004C40.68 664.684 41.24 657.684 42.36 654.324H63.36C62.52 657.684 61.96 663.004 61.96 666.644C61.96 681.204 70.92 686.804 91.64 686.804H107.04V658.244H126.92V686.804H249ZM103.68 585.928C103.68 546.448 133.08 520.688 177.6 520.688C218.76 520.688 252.36 544.208 252.36 587.608C252.36 628.208 221 652.848 178.16 652.848C136.16 652.848 103.68 628.768 103.68 585.928ZM124.12 587.048C124.12 613.648 145.68 627.648 177.88 627.648C209.24 627.648 231.92 611.968 231.92 586.488C231.92 560.728 210.36 545.888 178.16 545.888C146.24 545.888 124.12 560.448 124.12 587.048ZM249 469.782V494.422H43.48V469.782H249ZM249 433.577H107.04L107.04 408.937H249V433.577ZM74 408.937V433.577H43.48V408.937H74ZM103.68 315.892C103.68 276.412 133.08 250.652 177.6 250.652C218.76 250.652 252.36 274.172 252.36 317.572C252.36 358.172 221 382.812 178.16 382.812C136.16 382.812 103.68 358.732 103.68 315.892ZM124.12 317.012C124.12 343.612 145.68 357.612 177.88 357.612C209.24 357.612 231.92 341.932 231.92 316.452C231.92 290.692 210.36 275.852 178.16 275.852C146.24 275.852 124.12 290.412 124.12 317.012Z" fill="#6D6E72" fill-opacity="0.05"/>
<g opacity="0.5">
<rect y="146" width="1512" height="1" fill="#AEA797"/>
</g>
</svg>
