<svg width="148" height="148" viewBox="0 0 148 148" fill="none" xmlns="http://www.w3.org/2000/svg">
<g clip-path="url(#clip0_310_1502)">
<path d="M28.2618 106.813C21.9102 100.067 18.5 92.5004 18.5 80.2349C18.5 58.6515 33.6515 39.3067 55.685 29.7422L61.1918 38.2399C40.626 49.3645 36.6053 63.8007 35.002 72.9027C38.3135 71.1884 42.6487 70.5902 46.8975 70.9849C58.0222 72.0147 66.7912 81.1475 66.7912 92.5004C66.7912 98.2246 64.5172 103.714 60.4696 107.762C56.4219 111.81 50.9321 114.084 45.2078 114.084C38.591 114.084 32.264 111.062 28.2618 106.813ZM89.9285 106.813C83.5768 100.067 80.1667 92.5004 80.1667 80.2349C80.1667 58.6515 95.3182 39.3067 117.352 29.7422L122.858 38.2399C102.293 49.3645 98.272 63.8007 96.6687 72.9027C99.9802 71.1884 104.315 70.5902 108.564 70.9849C119.689 72.0147 128.458 81.1475 128.458 92.5004C128.458 98.2246 126.184 103.714 122.136 107.762C118.089 111.81 112.599 114.084 106.874 114.084C100.258 114.084 93.9307 111.062 89.9285 106.813Z" fill="#555555" fill-opacity="0.1"/>
</g>
<defs>
<clipPath id="clip0_310_1502">
<rect width="148" height="148" fill="white"/>
</clipPath>
</defs>
</svg>
