<svg width="13" height="12" viewBox="0 0 13 12" fill="none" xmlns="http://www.w3.org/2000/svg">
<g clip-path="url(#clip0_1268_18987)">
<path d="M3.16663 2H10.1666V1H3.16663V2ZM6.66663 3C5.60576 3 4.58834 3.42143 3.8382 4.17157C3.08805 4.92172 2.66663 5.93913 2.66663 7C2.66663 8.06087 3.08805 9.07828 3.8382 9.82843C4.58834 10.5786 5.60576 11 6.66663 11C7.72749 11 8.74491 10.5786 9.49505 9.82843C10.2452 9.07828 10.6666 8.06087 10.6666 7C10.6666 5.93913 10.2452 4.92172 9.49505 4.17157C8.74491 3.42143 7.72749 3 6.66663 3ZM6.66663 4C7.46228 4 8.22534 4.31607 8.78795 4.87868C9.35056 5.44129 9.66663 6.20435 9.66663 7C9.66663 7.79565 9.35056 8.55871 8.78795 9.12132C8.22534 9.68393 7.46228 10 6.66663 10C5.87098 10 5.10791 9.68393 4.54531 9.12132C3.9827 8.55871 3.66663 7.79565 3.66663 7C3.66663 6.20435 3.9827 5.44129 4.54531 4.87868C5.10791 4.31607 5.87098 4 6.66663 4Z" fill="white"/>
</g>
<defs>
<clipPath id="clip0_1268_18987">
<rect width="12" height="12" rx="6" transform="matrix(1 0 0 -1 0.666626 12)" fill="white"/>
</clipPath>
</defs>
</svg>
