<svg width="200" height="30" viewBox="0 0 200 30" fill="none" xmlns="http://www.w3.org/2000/svg">
<g clip-path="url(#clip0_1235_4829)">
<path d="M80.9387 15.2111C80.9321 15.6265 80.9053 16.0353 80.8586 16.4373C80.8185 16.8528 80.745 17.2616 80.6581 17.6636C80.5713 18.0791 80.4644 18.4811 80.3375 18.8832C80.0702 19.7208 79.7028 20.5316 79.2418 21.3156C78.1194 23.2522 76.5962 24.78 74.6654 25.9057C72.7413 27.0382 70.6368 27.6011 68.372 27.6011C66.1072 27.6011 64.0027 27.0382 62.072 25.9057C60.1479 24.78 58.6179 23.2522 57.4956 21.3156C56.3665 19.3857 55.8053 17.275 55.8053 14.9966C55.8053 12.7183 56.3665 10.6142 57.4956 8.68438C58.6179 6.74782 60.1479 5.22001 62.072 4.09426C64.0027 2.9618 66.1005 2.39893 68.372 2.39893C70.6435 2.39893 72.7413 2.9618 74.6654 4.09426C76.1886 4.98548 77.4647 6.12463 78.4802 7.52513L77.4313 8.10141C77.124 7.67925 76.7832 7.29059 76.4158 6.92204C75.407 5.9035 74.1911 5.09939 72.7881 4.49631C71.3851 3.89993 69.9086 3.59839 68.372 3.59839C66.8354 3.59839 65.3589 3.89993 63.9493 4.49631C62.5463 5.09939 61.3304 5.9035 60.3216 6.92204C59.3061 7.93388 58.5044 9.15345 57.9031 10.5606C57.3085 11.9678 57.0079 13.4487 57.0079 14.9899C57.0079 16.5312 57.3085 18.0188 57.9031 19.426C58.5044 20.8331 59.3061 22.0527 60.3216 23.0645C61.3304 24.0831 62.5463 24.8872 63.9493 25.4903C65.3589 26.0867 66.8287 26.3882 68.372 26.3882C69.9153 26.3882 71.3851 26.0867 72.7881 25.4903C74.1911 24.8872 75.407 24.0831 76.4158 23.0645C77.4313 22.0527 78.2397 20.8331 78.8343 19.426C78.9144 19.245 78.9812 19.0574 79.048 18.8765C79.195 18.4744 79.3153 18.0724 79.4155 17.6569C79.509 17.2549 79.5892 16.8461 79.636 16.4306H68.4722V15.2044H80.9254L80.9387 15.2111Z" fill="white"/>
<path d="M78.1996 17.6635C78.086 18.0789 77.9524 18.481 77.7921 18.883C77.6184 19.3052 77.4113 19.714 77.1841 20.116C76.2755 21.684 75.0396 22.9237 73.4762 23.835C71.9129 24.7463 70.216 25.2087 68.372 25.2087C66.5281 25.2087 64.8312 24.753 63.2679 23.835C61.7045 22.9304 60.4686 21.684 59.56 20.116C58.6514 18.5547 58.1971 16.846 58.1971 14.9965C58.1971 13.1471 58.6514 11.4517 59.56 9.87701C60.4619 8.3157 61.7045 7.06933 63.2679 6.1647C64.8245 5.25338 66.5281 4.79102 68.372 4.79102C70.216 4.79102 71.9062 5.24668 73.4762 6.1647C74.6187 6.82809 75.5874 7.67241 76.3757 8.69095L75.3068 9.28733C74.6387 8.45642 73.8236 7.75952 72.875 7.21005C71.5054 6.40594 70.0022 6.00388 68.372 6.00388C66.7419 6.00388 65.2387 6.40594 63.8691 7.21005C62.4929 8.01416 61.4039 9.10641 60.6022 10.4868C59.8005 11.8605 59.3996 13.3682 59.3996 15.0032C59.3996 16.6382 59.8072 18.1459 60.6022 19.5196C61.4039 20.9 62.4929 21.9923 63.8691 22.7964C65.2387 23.6005 66.7419 24.0025 68.372 24.0025C70.0022 24.0025 71.4987 23.6005 72.875 22.7964C74.2512 21.9923 75.3402 20.9 76.1419 19.5196C76.2622 19.3119 76.3757 19.0975 76.4759 18.8897H75.1064C74.7656 19.4928 74.3514 20.0356 73.8704 20.5181C73.1756 21.215 72.3472 21.7711 71.3851 22.1866C70.4298 22.5953 69.4209 22.7964 68.372 22.7964C67.3231 22.7964 66.3143 22.5953 65.3523 22.1866C64.3969 21.7711 63.5685 21.215 62.867 20.5181C62.1655 19.8212 61.6177 18.9903 61.2035 18.0253C60.7893 17.0671 60.5888 16.0553 60.5888 14.9965C60.5888 13.9378 60.7893 12.9326 61.2035 11.9744C61.611 11.0162 62.1655 10.1853 62.867 9.48166C63.5618 8.78476 64.3902 8.22859 65.3523 7.81313C66.3077 7.40437 67.3165 7.20335 68.372 7.20335C69.4276 7.20335 70.4298 7.40437 71.3851 7.81313C72.3405 8.22859 73.1689 8.78476 73.8704 9.48166C73.9973 9.60897 74.1176 9.74299 74.2312 9.87701L73.1556 10.4734C73.1155 10.4265 73.0687 10.3796 73.0219 10.326C71.7392 9.0394 70.1892 8.38941 68.372 8.38941C66.5548 8.38941 65.0049 9.0394 63.7155 10.326C62.4328 11.6125 61.7847 13.1672 61.7847 14.9898C61.7847 16.8125 62.4328 18.3671 63.7155 19.6603C64.9982 20.9536 66.5482 21.5969 68.372 21.5969C70.1959 21.5969 71.7392 20.9469 73.0219 19.6603C73.2691 19.4124 73.4963 19.1511 73.6967 18.8763H68.4789V17.6568H78.1996V17.6635Z" fill="white"/>
<path d="M0 1.19971H1.29609L11.5312 27.1792L21.7663 1.19971H23.049L12.1792 28.8008H10.8831L0 1.19971ZM12.3596 22.7968L11.6782 24.3313L2.57882 1.19971H3.85486L12.3596 22.7968ZM13.6423 19.5133L13.0077 21.1617L5.15095 1.19971H6.44704L13.6423 19.5133ZM14.905 16.183L14.2703 17.8649L7.72309 1.19971H9.00581L14.905 16.183ZM24.3251 1.19971H25.6211L14.738 28.8008H13.4553L24.3251 1.19971ZM26.9172 1.19971H28.1933L17.3101 28.8008H16.0274L26.9172 1.19971ZM29.476 1.19971H30.7721L19.889 28.8008H18.6062L29.476 1.19971Z" fill="white"/>
<path d="M32.4156 2.39917V1.19971H52.2845V2.39917H32.4156ZM32.4156 4.7981V3.59863H52.2845V4.7981H32.4156ZM32.4156 7.19703V5.99756H52.2845V7.19703H46.539V28.7941H45.3431V7.19703H44.1472V28.7941H42.9513V7.19703H41.7554V28.7941H40.5596V7.19703H39.3637V28.7941H38.1678V7.19703H32.4223H32.4156Z" fill="white"/>
<path d="M83.3305 14.9966C83.3305 15.0704 83.3305 15.1441 83.3305 15.2111C83.3305 15.6265 83.3038 16.0286 83.2704 16.4373C83.2303 16.8528 83.1768 17.2549 83.0967 17.6636C83.0298 18.0791 82.9363 18.4811 82.8227 18.8832C82.649 19.5399 82.4219 20.1832 82.148 20.8264C81.3596 22.6759 80.2974 24.2707 78.9545 25.6109C77.6183 26.9511 76.035 28.0165 74.1844 28.8139C72.3405 29.6113 70.4097 30.0067 68.3787 30.0067C66.3477 30.0067 64.4103 29.6113 62.573 28.8139C60.7291 28.0232 59.1391 26.9578 57.8029 25.6109C56.4667 24.2707 55.4044 22.6759 54.6094 20.8264C53.8144 18.977 53.4202 17.0404 53.4202 15.0034C53.4202 12.9663 53.8144 11.0297 54.6094 9.18025C55.4044 7.3241 56.4667 5.73598 57.8029 4.3958C59.1391 3.05562 60.7291 1.99017 62.573 1.19276C64.4169 0.395354 66.3477 0 68.3787 0C70.4097 0 72.3405 0.395354 74.1844 1.19276C76.035 1.98347 77.6183 3.04892 78.9545 4.3958C79.5625 4.99888 80.1036 5.65557 80.598 6.36587L79.5491 6.94215C79.1215 6.33237 78.6472 5.76279 78.1194 5.23342C76.8901 4.00045 75.427 3.02211 73.7234 2.29171C72.0198 1.56131 70.236 1.19946 68.3787 1.19946C66.5214 1.19946 64.7376 1.56131 63.034 2.29171C61.3304 3.02211 59.8673 4.00045 58.638 5.23342C57.4087 6.46638 56.4333 7.93388 55.7051 9.64262C54.9769 11.3514 54.6161 13.1405 54.6161 15.0034C54.6161 16.8662 54.9769 18.6553 55.7051 20.3641C56.4333 22.0661 57.4087 23.5336 58.638 24.7733C59.8673 26.0063 61.3304 26.9846 63.034 27.715C64.7309 28.4454 66.5147 28.8072 68.3787 28.8072C70.2427 28.8072 72.0198 28.4454 73.7234 27.715C75.4203 26.9846 76.8834 26.0063 78.1194 24.7733C79.3487 23.5403 80.3308 22.0728 81.0523 20.3641C81.2594 19.8749 81.4398 19.3857 81.5801 18.8899C81.7004 18.4878 81.8006 18.0791 81.8807 17.6703C81.9609 17.2616 82.021 16.8595 82.0611 16.444C82.1012 16.0353 82.1213 15.6332 82.1279 15.2178C82.1279 15.1508 82.1279 15.0771 82.1279 15.0034C82.1279 14.6683 82.1213 14.3266 82.0878 13.9915H68.4789V12.7652H83.1568C83.2169 13.174 83.2704 13.5761 83.2904 13.9915C83.3171 14.3266 83.3238 14.6616 83.3238 15.0034L83.3305 14.9966Z" fill="white"/>
<path d="M96.866 1.19971H98.0618V28.8008H96.866V1.19971ZM99.2577 1.19971H100.454V28.8008H99.2577V1.19971ZM101.649 1.19971H102.845V28.8008H101.649V1.19971ZM116.007 1.19971H117.203V28.8008H116.007V17.9855H105.237V28.8008H104.041V1.19971H105.237V11.9815H116.007V1.19971ZM116.007 14.3804V13.1809H105.237V14.3804H116.007ZM116.007 16.7793V15.5799H105.237V16.7793H116.007ZM118.398 1.19971H119.594V28.8008H118.398V1.19971ZM120.79 1.19971H121.986V28.8008H120.79V1.19971ZM123.182 1.19971H124.378V28.8008H123.182V1.19971Z" fill="white"/>
<path d="M154.094 16.6654V1.19971H155.29V16.6654C155.29 19.0644 154.662 21.2891 153.413 23.3395C152.164 25.39 150.467 27.0116 148.322 28.2044C146.177 29.3972 143.853 29.9935 141.334 29.9935C138.815 29.9935 136.49 29.3972 134.346 28.2044C132.201 27.0116 130.504 25.39 129.255 23.3395C128.006 21.2891 127.378 19.0644 127.378 16.6654V1.19971H128.573V16.6654C128.573 18.3004 128.914 19.8685 129.589 21.3628C130.264 22.8638 131.172 24.157 132.315 25.2359C133.457 26.3147 134.813 27.1859 136.397 27.8291C137.98 28.4724 139.624 28.7941 141.341 28.7941C143.058 28.7941 144.708 28.4724 146.284 27.8291C147.861 27.1859 149.224 26.3214 150.366 25.2359C151.509 24.1503 152.417 22.8638 153.092 21.3628C153.767 19.8618 154.108 18.2937 154.108 16.6654H154.094ZM151.703 16.6654V1.19971H152.898V16.6654C152.898 18.1463 152.591 19.5535 151.976 20.9071C151.362 22.2607 150.54 23.4199 149.511 24.3983C148.482 25.3766 147.253 26.1539 145.823 26.7302C144.394 27.3065 142.897 27.5946 141.334 27.5946C139.771 27.5946 138.274 27.3065 136.844 26.7302C135.415 26.1539 134.185 25.3766 133.156 24.3983C132.128 23.4199 131.306 22.254 130.691 20.9071C130.077 19.5602 129.769 18.1463 129.769 16.6654V1.19971H130.965V16.6654C130.965 18.4211 131.433 20.0427 132.361 21.537C133.29 23.0313 134.553 24.2174 136.143 25.0885C137.733 25.9596 139.463 26.3951 141.334 26.3951C143.204 26.3951 144.935 25.9596 146.525 25.0885C148.115 24.2174 149.378 23.0313 150.306 21.537C151.235 20.0427 151.703 18.4211 151.703 16.6654ZM149.311 16.6654V1.19971H150.507V16.6654C150.507 17.818 150.259 18.9236 149.778 19.9757C149.297 21.0277 148.636 21.9323 147.821 22.7029C146.999 23.4669 146.024 24.0766 144.895 24.5256C143.766 24.9746 142.576 25.2024 141.341 25.2024C140.105 25.2024 138.915 24.9746 137.786 24.5256C136.657 24.0766 135.682 23.4669 134.86 22.7029C134.038 21.939 133.384 21.0277 132.903 19.9757C132.415 18.9236 132.174 17.8247 132.174 16.6654V1.19971H133.37V16.6654C133.37 17.9855 133.724 19.2118 134.439 20.3375C135.154 21.4633 136.123 22.3545 137.345 23.0112C138.568 23.6679 139.904 23.9962 141.341 23.9962C142.777 23.9962 144.113 23.6679 145.336 23.0112C146.558 22.3545 147.527 21.4633 148.242 20.3375C148.957 19.2118 149.311 17.9855 149.311 16.6654ZM146.919 16.6654V1.19971H148.115V16.6654C148.115 18.3541 147.447 19.8014 146.124 21.0009C144.795 22.2004 143.198 22.8035 141.341 22.8035C139.483 22.8035 137.887 22.2004 136.557 21.0009C135.228 19.8014 134.566 18.3541 134.566 16.6654V1.19971H135.762V16.6654C135.762 18.019 136.31 19.185 137.399 20.1499C138.488 21.1148 139.804 21.5973 141.347 21.5973C142.89 21.5973 144.2 21.1148 145.296 20.1499C146.385 19.185 146.932 18.019 146.932 16.6654H146.919Z" fill="white"/>
<path d="M182.328 15.0974C183.316 13.7773 183.804 12.35 183.804 10.8155C183.804 9.28101 183.41 7.92073 182.615 6.62075C181.82 5.32747 180.758 4.29553 179.415 3.53833C178.072 2.77442 176.636 2.39917 175.092 2.39917H159.539V28.8008H158.343V1.19971H175.092C176.843 1.19971 178.479 1.63527 180.003 2.49968C181.526 3.3641 182.742 4.54346 183.644 6.02437C184.546 7.50527 185 9.10679 185 10.8155C185 12.5243 184.539 13.8845 183.624 15.1175C184.546 16.3974 185 17.6974 185 19.0174C185 20.505 184.733 21.872 184.205 23.1117C183.671 24.3514 182.956 25.3833 182.054 26.2008C181.152 27.025 180.103 27.6616 178.907 28.1173C177.711 28.5729 176.442 28.8008 175.099 28.8008H167.389V27.6013H175.099C176.261 27.6013 177.377 27.3802 178.439 26.9446C179.502 26.5091 180.43 25.906 181.212 25.1555C182 24.3983 182.628 23.487 183.096 22.4215C183.564 21.3561 183.804 20.2236 183.804 19.0241C183.804 18.4881 183.677 17.8515 183.43 17.101C183.183 16.3505 182.809 15.6871 182.328 15.1108V15.0974ZM182.608 10.8155C182.608 12.3701 182.06 13.7773 180.965 15.0304C182.06 16.25 182.608 17.5834 182.608 19.0107C182.608 20.438 182.261 21.6643 181.573 22.8035C180.878 23.9426 179.963 24.8271 178.814 25.4503C177.664 26.0802 176.428 26.3951 175.099 26.3951H167.389V25.1957H175.099C176.829 25.1957 178.312 24.6127 179.555 23.4534C180.798 22.2942 181.419 20.8133 181.419 19.0107C181.419 18.3675 181.259 17.6505 180.931 16.8664C180.604 16.0824 180.156 15.4861 179.575 15.0773C180.804 13.9247 181.419 12.4974 181.419 10.8088C181.419 9.12019 180.784 7.78001 179.522 6.58724C178.259 5.39448 176.783 4.7981 175.099 4.7981H161.938V28.7941H160.742V3.59863H175.099C176.415 3.59863 177.658 3.92698 178.814 4.57697C179.969 5.22696 180.891 6.11148 181.579 7.22383C182.268 8.34288 182.608 9.53565 182.608 10.8155ZM167.389 14.6015H175.099C176.195 14.6015 177.123 14.2732 177.885 13.6098C178.646 12.9464 179.021 12.015 179.021 10.8155C179.021 9.85059 178.626 9.00627 177.831 8.28257C177.036 7.55888 176.128 7.19703 175.099 7.19703H164.329V28.7941H163.134V5.99756H175.099C176.462 5.99756 177.658 6.48003 178.68 7.43826C179.702 8.39649 180.216 9.52224 180.216 10.8155C180.216 11.8274 179.983 12.7119 179.508 13.4624C179.041 14.2196 178.406 14.8026 177.604 15.2113C179.341 15.8345 180.21 17.101 180.21 19.0107C180.21 20.5251 179.709 21.7313 178.713 22.6359C177.718 23.5406 176.509 23.9962 175.092 23.9962H167.383V22.7968H175.092C176.188 22.7968 177.117 22.4684 177.878 21.805C178.64 21.1416 179.014 20.2169 179.014 19.0107C179.014 18.1999 178.727 17.4829 178.152 16.8597C177.578 16.2366 176.729 15.8747 175.613 15.7742C175.5 15.7876 175.333 15.7876 175.099 15.7876H167.389V14.5881V14.6015ZM166.721 28.8008H165.525V8.40319H175.099C175.854 8.40319 176.495 8.63102 177.023 9.09339C177.558 9.55575 177.818 10.132 177.818 10.8155C177.818 11.7268 177.571 12.3835 177.07 12.7923C176.569 13.201 175.914 13.4021 175.092 13.4021H167.383V12.2026H175.092C176.114 12.2026 176.622 11.7402 176.622 10.8222C176.622 10.447 176.475 10.1454 176.188 9.931C175.901 9.71657 175.533 9.60266 175.092 9.60266H166.714V28.8008H166.721ZM176.622 19.185C176.622 18.7494 176.495 18.4613 176.235 18.3205C175.974 18.1731 175.593 18.1061 175.099 18.1061H167.389V16.9067H175.099C176.916 16.9067 177.825 17.6706 177.825 19.1917C177.825 20.0494 177.578 20.6659 177.076 21.0411C176.575 21.4164 175.921 21.6107 175.099 21.6107H167.389V20.4112H175.099C176.121 20.4112 176.629 20.0092 176.629 19.1917L176.622 19.185Z" fill="white"/>
</g>
<defs>
<clipPath id="clip0_1235_4829">
<rect width="185" height="30" fill="white"/>
</clipPath>
</defs>
</svg>
