<svg width="185" height="30" viewBox="0 0 185 30" fill="none" xmlns="http://www.w3.org/2000/svg">
<g clip-path="url(#clip0_1254_17735)">
<path d="M80.9387 15.2116C80.9321 15.627 80.9053 16.0358 80.8586 16.4378C80.8185 16.8533 80.745 17.262 80.6581 17.6641C80.5713 18.0796 80.4644 18.4816 80.3375 18.8837C80.0702 19.7213 79.7028 20.5321 79.2418 21.3161C78.1194 23.2527 76.5962 24.7805 74.6654 25.9062C72.7413 27.0387 70.6368 27.6016 68.372 27.6016C66.1072 27.6016 64.0027 27.0387 62.072 25.9062C60.1479 24.7805 58.6179 23.2527 57.4956 21.3161C56.3665 19.3862 55.8053 17.2754 55.8053 14.9971C55.8053 12.7188 56.3665 10.6147 57.4956 8.68487C58.6179 6.74831 60.1479 5.2205 62.072 4.09475C64.0027 2.96229 66.1005 2.39941 68.372 2.39941C70.6435 2.39941 72.7413 2.96229 74.6654 4.09475C76.1886 4.98597 77.4647 6.12512 78.4802 7.52561L77.4313 8.10189C77.124 7.67974 76.7832 7.29108 76.4158 6.92253C75.407 5.90399 74.1911 5.09988 72.7881 4.4968C71.3851 3.90042 69.9086 3.59888 68.372 3.59888C66.8354 3.59888 65.3589 3.90042 63.9493 4.4968C62.5463 5.09988 61.3304 5.90399 60.3216 6.92253C59.3061 7.93437 58.5044 9.15394 57.9031 10.5611C57.3085 11.9683 57.0079 13.4492 57.0079 14.9904C57.0079 16.5316 57.3085 18.0192 57.9031 19.4264C58.5044 20.8336 59.3061 22.0532 60.3216 23.065C61.3304 24.0836 62.5463 24.8877 63.9493 25.4908C65.3589 26.0872 66.8287 26.3887 68.372 26.3887C69.9153 26.3887 71.3851 26.0872 72.7881 25.4908C74.1911 24.8877 75.407 24.0836 76.4158 23.065C77.4313 22.0532 78.2397 20.8336 78.8343 19.4264C78.9144 19.2455 78.9812 19.0579 79.048 18.877C79.195 18.4749 79.3153 18.0729 79.4155 17.6574C79.509 17.2553 79.5892 16.8466 79.636 16.4311H68.4722V15.2049H80.9254L80.9387 15.2116Z" fill="white"/>
<path d="M78.1996 17.6635C78.086 18.0789 77.9524 18.481 77.7921 18.883C77.6184 19.3052 77.4113 19.714 77.1841 20.116C76.2755 21.684 75.0396 22.9237 73.4762 23.835C71.9129 24.7463 70.216 25.2087 68.372 25.2087C66.5281 25.2087 64.8312 24.753 63.2679 23.835C61.7045 22.9304 60.4686 21.684 59.56 20.116C58.6514 18.5547 58.1971 16.846 58.1971 14.9965C58.1971 13.1471 58.6514 11.4517 59.56 9.87701C60.4619 8.3157 61.7045 7.06933 63.2679 6.1647C64.8245 5.25338 66.5281 4.79102 68.372 4.79102C70.216 4.79102 71.9062 5.24668 73.4762 6.1647C74.6187 6.82809 75.5874 7.67241 76.3757 8.69095L75.3068 9.28733C74.6387 8.45642 73.8236 7.75952 72.875 7.21005C71.5054 6.40594 70.0022 6.00388 68.372 6.00388C66.7419 6.00388 65.2387 6.40594 63.8691 7.21005C62.4929 8.01416 61.4039 9.10641 60.6022 10.4868C59.8005 11.8605 59.3996 13.3682 59.3996 15.0032C59.3996 16.6382 59.8072 18.1459 60.6022 19.5196C61.4039 20.9 62.4929 21.9923 63.8691 22.7964C65.2387 23.6005 66.7419 24.0025 68.372 24.0025C70.0022 24.0025 71.4987 23.6005 72.875 22.7964C74.2512 21.9923 75.3402 20.9 76.1419 19.5196C76.2622 19.3119 76.3757 19.0975 76.4759 18.8897H75.1064C74.7656 19.4928 74.3514 20.0356 73.8704 20.5181C73.1756 21.215 72.3472 21.7711 71.3851 22.1866C70.4298 22.5953 69.4209 22.7964 68.372 22.7964C67.3231 22.7964 66.3143 22.5953 65.3523 22.1866C64.3969 21.7711 63.5685 21.215 62.867 20.5181C62.1655 19.8212 61.6177 18.9903 61.2035 18.0253C60.7893 17.0671 60.5888 16.0553 60.5888 14.9965C60.5888 13.9378 60.7893 12.9326 61.2035 11.9744C61.611 11.0162 62.1655 10.1853 62.867 9.48166C63.5618 8.78476 64.3902 8.22859 65.3523 7.81313C66.3077 7.40437 67.3165 7.20335 68.372 7.20335C69.4276 7.20335 70.4298 7.40437 71.3851 7.81313C72.3405 8.22859 73.1689 8.78476 73.8704 9.48166C73.9973 9.60897 74.1176 9.74299 74.2312 9.87701L73.1556 10.4734C73.1155 10.4265 73.0687 10.3796 73.0219 10.326C71.7392 9.0394 70.1892 8.38941 68.372 8.38941C66.5548 8.38941 65.0049 9.0394 63.7155 10.326C62.4328 11.6125 61.7847 13.1672 61.7847 14.9898C61.7847 16.8125 62.4328 18.3671 63.7155 19.6603C64.9982 20.9536 66.5482 21.5969 68.372 21.5969C70.1959 21.5969 71.7392 20.9469 73.0219 19.6603C73.2691 19.4124 73.4963 19.1511 73.6967 18.8763H68.4789V17.6568H78.1996V17.6635Z" fill="white"/>
<path d="M0 1.19922H1.29609L11.5312 27.1787L21.7663 1.19922H23.049L12.1792 28.8003H10.8831L0 1.19922ZM12.3596 22.7963L11.6782 24.3308L2.57882 1.19922H3.85486L12.3596 22.7963ZM13.6423 19.5128L13.0077 21.1612L5.15095 1.19922H6.44704L13.6423 19.5128ZM14.905 16.1825L14.2703 17.8644L7.72309 1.19922H9.00581L14.905 16.1825ZM24.3251 1.19922H25.6211L14.738 28.8003H13.4553L24.3251 1.19922ZM26.9172 1.19922H28.1933L17.3101 28.8003H16.0274L26.9172 1.19922ZM29.476 1.19922H30.7721L19.889 28.8003H18.6062L29.476 1.19922Z" fill="white"/>
<path d="M32.4156 2.39868V1.19922H52.2845V2.39868H32.4156ZM32.4156 4.79761V3.59815H52.2845V4.79761H32.4156ZM32.4156 7.19654V5.99707H52.2845V7.19654H46.539V28.7936H45.3431V7.19654H44.1472V28.7936H42.9513V7.19654H41.7554V28.7936H40.5596V7.19654H39.3637V28.7936H38.1678V7.19654H32.4223H32.4156Z" fill="white"/>
<path d="M83.3305 14.9966C83.3305 15.0704 83.3305 15.1441 83.3305 15.2111C83.3305 15.6265 83.3038 16.0286 83.2704 16.4373C83.2303 16.8528 83.1768 17.2549 83.0967 17.6636C83.0298 18.0791 82.9363 18.4811 82.8227 18.8832C82.649 19.5399 82.4219 20.1832 82.148 20.8264C81.3596 22.6759 80.2974 24.2707 78.9545 25.6109C77.6183 26.9511 76.035 28.0165 74.1844 28.8139C72.3405 29.6113 70.4097 30.0067 68.3787 30.0067C66.3477 30.0067 64.4103 29.6113 62.573 28.8139C60.7291 28.0232 59.1391 26.9578 57.8029 25.6109C56.4667 24.2707 55.4044 22.6759 54.6094 20.8264C53.8144 18.977 53.4202 17.0404 53.4202 15.0034C53.4202 12.9663 53.8144 11.0297 54.6094 9.18025C55.4044 7.3241 56.4667 5.73598 57.8029 4.3958C59.1391 3.05562 60.7291 1.99017 62.573 1.19276C64.4169 0.395354 66.3477 0 68.3787 0C70.4097 0 72.3405 0.395354 74.1844 1.19276C76.035 1.98347 77.6183 3.04892 78.9545 4.3958C79.5625 4.99888 80.1036 5.65557 80.598 6.36587L79.5491 6.94215C79.1215 6.33237 78.6472 5.76279 78.1194 5.23342C76.8901 4.00045 75.427 3.02211 73.7234 2.29171C72.0198 1.56131 70.236 1.19946 68.3787 1.19946C66.5214 1.19946 64.7376 1.56131 63.034 2.29171C61.3304 3.02211 59.8673 4.00045 58.638 5.23342C57.4087 6.46638 56.4333 7.93388 55.7051 9.64262C54.9769 11.3514 54.6161 13.1405 54.6161 15.0034C54.6161 16.8662 54.9769 18.6553 55.7051 20.3641C56.4333 22.0661 57.4087 23.5336 58.638 24.7733C59.8673 26.0063 61.3304 26.9846 63.034 27.715C64.7309 28.4454 66.5147 28.8072 68.3787 28.8072C70.2427 28.8072 72.0198 28.4454 73.7234 27.715C75.4203 26.9846 76.8834 26.0063 78.1194 24.7733C79.3487 23.5403 80.3308 22.0728 81.0523 20.3641C81.2594 19.8749 81.4398 19.3857 81.5801 18.8899C81.7004 18.4878 81.8006 18.0791 81.8807 17.6703C81.9609 17.2616 82.021 16.8595 82.0611 16.444C82.1012 16.0353 82.1213 15.6332 82.1279 15.2178C82.1279 15.1508 82.1279 15.0771 82.1279 15.0034C82.1279 14.6683 82.1213 14.3266 82.0878 13.9915H68.4789V12.7652H83.1568C83.2169 13.174 83.2704 13.5761 83.2904 13.9915C83.3171 14.3266 83.3238 14.6616 83.3238 15.0034L83.3305 14.9966Z" fill="white"/>
<path d="M96.866 1.19922H98.0618V28.8003H96.866V1.19922ZM99.2577 1.19922H100.454V28.8003H99.2577V1.19922ZM101.649 1.19922H102.845V28.8003H101.649V1.19922ZM116.007 1.19922H117.203V28.8003H116.007V17.985H105.237V28.8003H104.041V1.19922H105.237V11.981H116.007V1.19922ZM116.007 14.3799V13.1805H105.237V14.3799H116.007ZM116.007 16.7788V15.5794H105.237V16.7788H116.007ZM118.398 1.19922H119.594V28.8003H118.398V1.19922ZM120.79 1.19922H121.986V28.8003H120.79V1.19922ZM123.182 1.19922H124.378V28.8003H123.182V1.19922Z" fill="white"/>
<path d="M154.094 16.6649V1.19922H155.29V16.6649C155.29 19.0639 154.662 21.2886 153.413 23.339C152.164 25.3895 150.467 27.0111 148.322 28.2039C146.177 29.3967 143.853 29.9931 141.334 29.9931C138.815 29.9931 136.49 29.3967 134.346 28.2039C132.201 27.0111 130.504 25.3895 129.255 23.339C128.006 21.2886 127.378 19.0639 127.378 16.6649V1.19922H128.573V16.6649C128.573 18.3 128.914 19.868 129.589 21.3623C130.264 22.8633 131.172 24.1566 132.315 25.2354C133.457 26.3143 134.813 27.1854 136.397 27.8287C137.98 28.4719 139.624 28.7936 141.341 28.7936C143.058 28.7936 144.708 28.4719 146.284 27.8287C147.861 27.1854 149.224 26.321 150.366 25.2354C151.509 24.1499 152.417 22.8633 153.092 21.3623C153.767 19.8613 154.108 18.2933 154.108 16.6649H154.094ZM151.703 16.6649V1.19922H152.898V16.6649C152.898 18.1458 152.591 19.553 151.976 20.9066C151.362 22.2602 150.54 23.4195 149.511 24.3978C148.482 25.3761 147.253 26.1534 145.823 26.7297C144.394 27.306 142.897 27.5941 141.334 27.5941C139.771 27.5941 138.274 27.306 136.844 26.7297C135.415 26.1534 134.185 25.3761 133.156 24.3978C132.128 23.4195 131.306 22.2535 130.691 20.9066C130.077 19.5597 129.769 18.1458 129.769 16.6649V1.19922H130.965V16.6649C130.965 18.4206 131.433 20.0422 132.361 21.5365C133.29 23.0308 134.553 24.2169 136.143 25.088C137.733 25.9591 139.463 26.3947 141.334 26.3947C143.204 26.3947 144.935 25.9591 146.525 25.088C148.115 24.2169 149.378 23.0308 150.306 21.5365C151.235 20.0422 151.703 18.4206 151.703 16.6649ZM149.311 16.6649V1.19922H150.507V16.6649C150.507 17.8175 150.259 18.9231 149.778 19.9752C149.297 21.0272 148.636 21.9319 147.821 22.7025C146.999 23.4664 146.024 24.0761 144.895 24.5251C143.766 24.9741 142.576 25.2019 141.341 25.2019C140.105 25.2019 138.915 24.9741 137.786 24.5251C136.657 24.0761 135.682 23.4664 134.86 22.7025C134.038 21.9386 133.384 21.0272 132.903 19.9752C132.415 18.9231 132.174 17.8242 132.174 16.6649V1.19922H133.37V16.6649C133.37 17.985 133.724 19.2113 134.439 20.337C135.154 21.4628 136.123 22.354 137.345 23.0107C138.568 23.6674 139.904 23.9957 141.341 23.9957C142.777 23.9957 144.113 23.6674 145.336 23.0107C146.558 22.354 147.527 21.4628 148.242 20.337C148.957 19.2113 149.311 17.985 149.311 16.6649ZM146.919 16.6649V1.19922H148.115V16.6649C148.115 18.3536 147.447 19.801 146.124 21.0004C144.795 22.1999 143.198 22.803 141.341 22.803C139.483 22.803 137.887 22.1999 136.557 21.0004C135.228 19.801 134.566 18.3536 134.566 16.6649V1.19922H135.762V16.6649C135.762 18.0185 136.31 19.1845 137.399 20.1494C138.488 21.1143 139.804 21.5968 141.347 21.5968C142.89 21.5968 144.2 21.1143 145.296 20.1494C146.385 19.1845 146.932 18.0185 146.932 16.6649H146.919Z" fill="white"/>
<path d="M182.328 15.0969C183.316 13.7768 183.804 12.3495 183.804 10.815C183.804 9.28052 183.41 7.92024 182.615 6.62026C181.82 5.32698 180.758 4.29504 179.415 3.53784C178.072 2.77393 176.636 2.39868 175.092 2.39868H159.539V28.8003H158.343V1.19922H175.092C176.843 1.19922 178.479 1.63478 180.003 2.4992C181.526 3.36361 182.742 4.54298 183.644 6.02388C184.546 7.50478 185 9.1063 185 10.815C185 12.5238 184.539 13.8841 183.624 15.117C184.546 16.3969 185 17.6969 185 19.017C185 20.5046 184.733 21.8715 184.205 23.1112C183.671 24.3509 182.956 25.3828 182.054 26.2003C181.152 27.0245 180.103 27.6611 178.907 28.1168C177.711 28.5725 176.442 28.8003 175.099 28.8003H167.389V27.6008H175.099C176.261 27.6008 177.377 27.3797 178.439 26.9441C179.502 26.5086 180.43 25.9055 181.212 25.155C182 24.3978 182.628 23.4865 183.096 22.421C183.564 21.3556 183.804 20.2231 183.804 19.0237C183.804 18.4876 183.677 17.851 183.43 17.1005C183.183 16.35 182.809 15.6866 182.328 15.1103V15.0969ZM182.608 10.815C182.608 12.3696 182.06 13.7768 180.965 15.0299C182.06 16.2495 182.608 17.583 182.608 19.0103C182.608 20.4375 182.261 21.6638 181.573 22.803C180.878 23.9421 179.963 24.8266 178.814 25.4498C177.664 26.0797 176.428 26.3947 175.099 26.3947H167.389V25.1952H175.099C176.829 25.1952 178.312 24.6122 179.555 23.453C180.798 22.2937 181.419 20.8128 181.419 19.0103C181.419 18.367 181.259 17.65 180.931 16.866C180.604 16.082 180.156 15.4856 179.575 15.0768C180.804 13.9243 181.419 12.497 181.419 10.8083C181.419 9.1197 180.784 7.77952 179.522 6.58675C178.259 5.39399 176.783 4.79761 175.099 4.79761H161.938V28.7936H160.742V3.59815H175.099C176.415 3.59815 177.658 3.92649 178.814 4.57648C179.969 5.22647 180.891 6.11099 181.579 7.22334C182.268 8.34239 182.608 9.53516 182.608 10.815ZM167.389 14.6011H175.099C176.195 14.6011 177.123 14.2727 177.885 13.6093C178.646 12.9459 179.021 12.0145 179.021 10.815C179.021 9.8501 178.626 9.00579 177.831 8.28209C177.036 7.55839 176.128 7.19654 175.099 7.19654H164.329V28.7936H163.134V5.99707H175.099C176.462 5.99707 177.658 6.47954 178.68 7.43777C179.702 8.396 180.216 9.52176 180.216 10.815C180.216 11.8269 179.983 12.7114 179.508 13.4619C179.041 14.2191 178.406 14.8021 177.604 15.2108C179.341 15.834 180.21 17.1005 180.21 19.0103C180.21 20.5247 179.709 21.7308 178.713 22.6354C177.718 23.5401 176.509 23.9957 175.092 23.9957H167.383V22.7963H175.092C176.188 22.7963 177.117 22.4679 177.878 21.8045C178.64 21.1411 179.014 20.2164 179.014 19.0103C179.014 18.1994 178.727 17.4824 178.152 16.8593C177.578 16.2361 176.729 15.8742 175.613 15.7737C175.5 15.7871 175.333 15.7871 175.099 15.7871H167.389V14.5876V14.6011ZM166.721 28.8003H165.525V8.4027H175.099C175.854 8.4027 176.495 8.63053 177.023 9.0929C177.558 9.55526 177.818 10.1315 177.818 10.815C177.818 11.7264 177.571 12.383 177.07 12.7918C176.569 13.2006 175.914 13.4016 175.092 13.4016H167.383V12.2021H175.092C176.114 12.2021 176.622 11.7398 176.622 10.8217C176.622 10.4465 176.475 10.1449 176.188 9.93051C175.901 9.71608 175.533 9.60217 175.092 9.60217H166.714V28.8003H166.721ZM176.622 19.1845C176.622 18.7489 176.495 18.4608 176.235 18.3201C175.974 18.1726 175.593 18.1056 175.099 18.1056H167.389V16.9062H175.099C176.916 16.9062 177.825 17.6701 177.825 19.1912C177.825 20.0489 177.578 20.6654 177.076 21.0406C176.575 21.4159 175.921 21.6102 175.099 21.6102H167.389V20.4107H175.099C176.121 20.4107 176.629 20.0087 176.629 19.1912L176.622 19.1845Z" fill="white"/>
</g>
<defs>
<clipPath id="clip0_1254_17735">
<rect width="185" height="30" fill="white"/>
</clipPath>
</defs>
</svg>
